<svg id="visual" viewBox="0 0 1920 1080" width="1920" height="1080" xmlns="http://www.w3.org/2000/svg" xmlns:xlink="http://www.w3.org/1999/xlink" version="1.1"><g stroke-width="1" stroke-linejoin="bevel"><path d="M1015 537L1004 497L944 461Z" fill="#75abd3" stroke="#75abd3"></path><path d="M944 461L891 474L1015 537Z" fill="#e4f4fc" stroke="#e4f4fc"></path><path d="M891 474L997 598L1015 537Z" fill="#e4f4fc" stroke="#e4f4fc"></path><path d="M891 474L896 623L997 598Z" fill="#d3eaf6" stroke="#d3eaf6"></path><path d="M891 474L814 538L896 623Z" fill="#85b6d8" stroke="#85b6d8"></path><path d="M1004 497L970 416L944 461Z" fill="#b3d5e9" stroke="#b3d5e9"></path><path d="M944 461L970 416L891 474Z" fill="#5696c8" stroke="#5696c8"></path><path d="M891 474L823 364L832 490Z" fill="#c3dfef" stroke="#c3dfef"></path><path d="M832 490L814 538L891 474Z" fill="#e4f4fc" stroke="#e4f4fc"></path><path d="M896 623L967 669L997 598Z" fill="#75abd3" stroke="#75abd3"></path><path d="M814 538L821 666L896 623Z" fill="#c3dfef" stroke="#c3dfef"></path><path d="M896 623L865 703L967 669Z" fill="#94c0de" stroke="#94c0de"></path><path d="M821 666L865 703L896 623Z" fill="#5696c8" stroke="#5696c8"></path><path d="M970 416L823 364L891 474Z" fill="#5696c8" stroke="#5696c8"></path><path d="M832 490L730 458L814 538Z" fill="#b3d5e9" stroke="#b3d5e9"></path><path d="M823 364L730 458L832 490Z" fill="#d3eaf6" stroke="#d3eaf6"></path><path d="M814 538L709 616L821 666Z" fill="#d3eaf6" stroke="#d3eaf6"></path><path d="M730 458L710 567L814 538Z" fill="#5696c8" stroke="#5696c8"></path><path d="M840 289L803 342L823 364Z" fill="#66a1cd" stroke="#66a1cd"></path><path d="M823 364L803 342L730 458Z" fill="#b3d5e9" stroke="#b3d5e9"></path><path d="M710 567L709 616L814 538Z" fill="#458cc2" stroke="#458cc2"></path><path d="M821 666L773 759L865 703Z" fill="#a4cae4" stroke="#a4cae4"></path><path d="M1171 457L1111 362L1004 497Z" fill="#85b6d8" stroke="#85b6d8"></path><path d="M1004 497L1111 362L970 416Z" fill="#c3dfef" stroke="#c3dfef"></path><path d="M970 416L932 277L823 364Z" fill="#75abd3" stroke="#75abd3"></path><path d="M1171 457L1004 497L1015 537Z" fill="#e4f4fc" stroke="#e4f4fc"></path><path d="M1171 457L1015 537L1181 621Z" fill="#c3dfef" stroke="#c3dfef"></path><path d="M1181 621L1015 537L997 598Z" fill="#5696c8" stroke="#5696c8"></path><path d="M1042 768L1137 685L967 669Z" fill="#d3eaf6" stroke="#d3eaf6"></path><path d="M967 669L1137 685L997 598Z" fill="#94c0de" stroke="#94c0de"></path><path d="M1019 783L1042 768L967 669Z" fill="#c3dfef" stroke="#c3dfef"></path><path d="M1137 685L1181 621L997 598Z" fill="#d3eaf6" stroke="#d3eaf6"></path><path d="M1111 362L1040 299L970 416Z" fill="#a4cae4" stroke="#a4cae4"></path><path d="M865 703L1019 783L967 669Z" fill="#85b6d8" stroke="#85b6d8"></path><path d="M1040 299L932 277L970 416Z" fill="#c3dfef" stroke="#c3dfef"></path><path d="M932 277L840 289L823 364Z" fill="#e4f4fc" stroke="#e4f4fc"></path><path d="M1111 362L1076 299L1040 299Z" fill="#b3d5e9" stroke="#b3d5e9"></path><path d="M1052 167L906 198L932 277Z" fill="#75abd3" stroke="#75abd3"></path><path d="M1120 265L1076 299L1111 362Z" fill="#d3eaf6" stroke="#d3eaf6"></path><path d="M709 616L773 759L821 666Z" fill="#c3dfef" stroke="#c3dfef"></path><path d="M954 869L1007 843L1019 783Z" fill="#c3dfef" stroke="#c3dfef"></path><path d="M840 289L770 291L803 342Z" fill="#66a1cd" stroke="#66a1cd"></path><path d="M803 342L688 353L730 458Z" fill="#e4f4fc" stroke="#e4f4fc"></path><path d="M753 276L770 291L762 227Z" fill="#c3dfef" stroke="#c3dfef"></path><path d="M1007 843L1042 824L1019 783Z" fill="#e4f4fc" stroke="#e4f4fc"></path><path d="M1019 783L1042 824L1042 768Z" fill="#94c0de" stroke="#94c0de"></path><path d="M1042 768L1165 845L1137 685Z" fill="#94c0de" stroke="#94c0de"></path><path d="M1235 716L1252 659L1181 621Z" fill="#75abd3" stroke="#75abd3"></path><path d="M710 567L653 643L709 616Z" fill="#66a1cd" stroke="#66a1cd"></path><path d="M709 616L653 643L773 759Z" fill="#458cc2" stroke="#458cc2"></path><path d="M580 582L653 643L710 567Z" fill="#d3eaf6" stroke="#d3eaf6"></path><path d="M580 582L710 567L730 458Z" fill="#66a1cd" stroke="#66a1cd"></path><path d="M1181 621L1244 476L1171 457Z" fill="#b3d5e9" stroke="#b3d5e9"></path><path d="M1171 457L1180 316L1111 362Z" fill="#85b6d8" stroke="#85b6d8"></path><path d="M770 291L688 353L803 342Z" fill="#e4f4fc" stroke="#e4f4fc"></path><path d="M954 869L1019 783L865 703Z" fill="#a4cae4" stroke="#a4cae4"></path><path d="M762 227L770 291L840 289Z" fill="#94c0de" stroke="#94c0de"></path><path d="M770 291L753 276L688 353Z" fill="#75abd3" stroke="#75abd3"></path><path d="M1244 476L1240 425L1171 457Z" fill="#b3d5e9" stroke="#b3d5e9"></path><path d="M1180 316L1120 265L1111 362Z" fill="#b3d5e9" stroke="#b3d5e9"></path><path d="M1076 299L1052 167L1040 299Z" fill="#c3dfef" stroke="#c3dfef"></path><path d="M932 277L906 198L840 289Z" fill="#e4f4fc" stroke="#e4f4fc"></path><path d="M1240 425L1180 316L1171 457Z" fill="#c3dfef" stroke="#c3dfef"></path><path d="M794 869L954 869L865 703Z" fill="#e4f4fc" stroke="#e4f4fc"></path><path d="M1235 716L1181 621L1137 685Z" fill="#85b6d8" stroke="#85b6d8"></path><path d="M1181 621L1322 584L1244 476Z" fill="#b3d5e9" stroke="#b3d5e9"></path><path d="M653 643L727 797L773 759Z" fill="#5696c8" stroke="#5696c8"></path><path d="M773 759L794 869L865 703Z" fill="#a4cae4" stroke="#a4cae4"></path><path d="M1052 167L932 277L1040 299Z" fill="#458cc2" stroke="#458cc2"></path><path d="M577 331L642 369L688 353Z" fill="#c3dfef" stroke="#c3dfef"></path><path d="M688 353L642 369L730 458Z" fill="#c3dfef" stroke="#c3dfef"></path><path d="M1007 843L1041 864L1042 824Z" fill="#5696c8" stroke="#5696c8"></path><path d="M1201 829L1235 716L1137 685Z" fill="#94c0de" stroke="#94c0de"></path><path d="M954 869L1041 864L1007 843Z" fill="#5696c8" stroke="#5696c8"></path><path d="M1165 845L1042 768L1042 824Z" fill="#a4cae4" stroke="#a4cae4"></path><path d="M775 188L762 227L840 289Z" fill="#66a1cd" stroke="#66a1cd"></path><path d="M753 276L698 224L688 353Z" fill="#458cc2" stroke="#458cc2"></path><path d="M577 331L622 372L642 369Z" fill="#5696c8" stroke="#5696c8"></path><path d="M642 369L622 372L730 458Z" fill="#458cc2" stroke="#458cc2"></path><path d="M630 810L719 818L727 797Z" fill="#d3eaf6" stroke="#d3eaf6"></path><path d="M782 867L794 869L773 759Z" fill="#b3d5e9" stroke="#b3d5e9"></path><path d="M1240 425L1214 305L1180 316Z" fill="#e4f4fc" stroke="#e4f4fc"></path><path d="M1180 316L1194 217L1120 265Z" fill="#a4cae4" stroke="#a4cae4"></path><path d="M622 372L580 582L730 458Z" fill="#d3eaf6" stroke="#d3eaf6"></path><path d="M653 643L630 810L727 797Z" fill="#75abd3" stroke="#75abd3"></path><path d="M782 867L773 759L727 797Z" fill="#94c0de" stroke="#94c0de"></path><path d="M719 818L782 867L727 797Z" fill="#b3d5e9" stroke="#b3d5e9"></path><path d="M1201 829L1257 722L1235 716Z" fill="#66a1cd" stroke="#66a1cd"></path><path d="M1235 716L1257 722L1252 659Z" fill="#e4f4fc" stroke="#e4f4fc"></path><path d="M1252 659L1322 584L1181 621Z" fill="#75abd3" stroke="#75abd3"></path><path d="M580 582L579 650L653 643Z" fill="#b3d5e9" stroke="#b3d5e9"></path><path d="M1041 864L1165 845L1042 824Z" fill="#d3eaf6" stroke="#d3eaf6"></path><path d="M845 158L775 188L840 289Z" fill="#458cc2" stroke="#458cc2"></path><path d="M762 227L698 224L753 276Z" fill="#b3d5e9" stroke="#b3d5e9"></path><path d="M1319 661L1322 584L1252 659Z" fill="#b3d5e9" stroke="#b3d5e9"></path><path d="M1407 378L1306 308L1240 425Z" fill="#94c0de" stroke="#94c0de"></path><path d="M1240 425L1306 308L1214 305Z" fill="#c3dfef" stroke="#c3dfef"></path><path d="M1081 162L1052 167L1120 265Z" fill="#75abd3" stroke="#75abd3"></path><path d="M1120 265L1052 167L1076 299Z" fill="#75abd3" stroke="#75abd3"></path><path d="M906 198L845 158L840 289Z" fill="#85b6d8" stroke="#85b6d8"></path><path d="M893 0L845 158L906 198Z" fill="#94c0de" stroke="#94c0de"></path><path d="M492 514L557 619L580 582Z" fill="#a4cae4" stroke="#a4cae4"></path><path d="M580 582L557 619L579 650Z" fill="#85b6d8" stroke="#85b6d8"></path><path d="M1165 845L1201 829L1137 685Z" fill="#b3d5e9" stroke="#b3d5e9"></path><path d="M775 188L698 224L762 227Z" fill="#5696c8" stroke="#5696c8"></path><path d="M1349 719L1319 661L1257 722Z" fill="#a4cae4" stroke="#a4cae4"></path><path d="M1257 722L1319 661L1252 659Z" fill="#a4cae4" stroke="#a4cae4"></path><path d="M1194 217L1081 162L1120 265Z" fill="#a4cae4" stroke="#a4cae4"></path><path d="M993 0L893 0L906 198Z" fill="#5696c8" stroke="#5696c8"></path><path d="M1306 308L1194 217L1214 305Z" fill="#d3eaf6" stroke="#d3eaf6"></path><path d="M1214 305L1194 217L1180 316Z" fill="#e4f4fc" stroke="#e4f4fc"></path><path d="M550 727L653 643L579 650Z" fill="#c3dfef" stroke="#c3dfef"></path><path d="M550 727L630 810L653 643Z" fill="#b3d5e9" stroke="#b3d5e9"></path><path d="M700 985L799 934L782 867Z" fill="#e4f4fc" stroke="#e4f4fc"></path><path d="M1062 1020L1112 912L1041 864Z" fill="#85b6d8" stroke="#85b6d8"></path><path d="M1041 864L1112 912L1165 845Z" fill="#75abd3" stroke="#75abd3"></path><path d="M1165 845L1166 976L1201 829Z" fill="#85b6d8" stroke="#85b6d8"></path><path d="M1062 1020L1041 864L954 869Z" fill="#d3eaf6" stroke="#d3eaf6"></path><path d="M698 224L577 331L688 353Z" fill="#66a1cd" stroke="#66a1cd"></path><path d="M494 461L492 514L580 582Z" fill="#c3dfef" stroke="#c3dfef"></path><path d="M782 867L799 934L794 869Z" fill="#458cc2" stroke="#458cc2"></path><path d="M794 869L867 956L954 869Z" fill="#d3eaf6" stroke="#d3eaf6"></path><path d="M700 985L782 867L719 818Z" fill="#e4f4fc" stroke="#e4f4fc"></path><path d="M799 934L867 956L794 869Z" fill="#e4f4fc" stroke="#e4f4fc"></path><path d="M1398 450L1240 425L1244 476Z" fill="#5696c8" stroke="#5696c8"></path><path d="M557 619L550 727L579 650Z" fill="#a4cae4" stroke="#a4cae4"></path><path d="M1329 826L1302 775L1201 829Z" fill="#e4f4fc" stroke="#e4f4fc"></path><path d="M1201 829L1302 775L1257 722Z" fill="#b3d5e9" stroke="#b3d5e9"></path><path d="M494 461L580 582L622 372Z" fill="#94c0de" stroke="#94c0de"></path><path d="M557 619L505 745L550 727Z" fill="#458cc2" stroke="#458cc2"></path><path d="M1302 775L1349 719L1257 722Z" fill="#b3d5e9" stroke="#b3d5e9"></path><path d="M1319 661L1381 642L1322 584Z" fill="#85b6d8" stroke="#85b6d8"></path><path d="M1322 584L1398 450L1244 476Z" fill="#85b6d8" stroke="#85b6d8"></path><path d="M501 367L494 461L622 372Z" fill="#c3dfef" stroke="#c3dfef"></path><path d="M1349 719L1381 642L1319 661Z" fill="#b3d5e9" stroke="#b3d5e9"></path><path d="M1449 553L1398 450L1322 584Z" fill="#5696c8" stroke="#5696c8"></path><path d="M459 362L501 367L470 212Z" fill="#e4f4fc" stroke="#e4f4fc"></path><path d="M577 331L501 367L622 372Z" fill="#e4f4fc" stroke="#e4f4fc"></path><path d="M531 798L591 853L630 810Z" fill="#75abd3" stroke="#75abd3"></path><path d="M630 810L591 853L719 818Z" fill="#e4f4fc" stroke="#e4f4fc"></path><path d="M1358 291L1338 272L1306 308Z" fill="#d3eaf6" stroke="#d3eaf6"></path><path d="M1306 308L1338 272L1194 217Z" fill="#d3eaf6" stroke="#d3eaf6"></path><path d="M1216 88L1089 35L1081 162Z" fill="#d3eaf6" stroke="#d3eaf6"></path><path d="M1349 719L1407 638L1381 642Z" fill="#66a1cd" stroke="#66a1cd"></path><path d="M1381 642L1407 638L1322 584Z" fill="#b3d5e9" stroke="#b3d5e9"></path><path d="M427 720L505 745L557 619Z" fill="#85b6d8" stroke="#85b6d8"></path><path d="M550 727L531 798L630 810Z" fill="#66a1cd" stroke="#66a1cd"></path><path d="M700 985L809 1001L799 934Z" fill="#d3eaf6" stroke="#d3eaf6"></path><path d="M799 934L809 1001L867 956Z" fill="#a4cae4" stroke="#a4cae4"></path><path d="M1062 1020L1166 976L1112 912Z" fill="#b3d5e9" stroke="#b3d5e9"></path><path d="M1407 378L1358 291L1306 308Z" fill="#85b6d8" stroke="#85b6d8"></path><path d="M1344 1002L1329 826L1201 829Z" fill="#5696c8" stroke="#5696c8"></path><path d="M1302 775L1329 826L1349 719Z" fill="#66a1cd" stroke="#66a1cd"></path><path d="M1494 753L1526 599L1407 638Z" fill="#66a1cd" stroke="#66a1cd"></path><path d="M505 745L531 798L550 727Z" fill="#5696c8" stroke="#5696c8"></path><path d="M494 461L425 537L492 514Z" fill="#e4f4fc" stroke="#e4f4fc"></path><path d="M492 514L425 537L557 619Z" fill="#d3eaf6" stroke="#d3eaf6"></path><path d="M501 367L471 399L494 461Z" fill="#e4f4fc" stroke="#e4f4fc"></path><path d="M1424 346L1407 378L1510 345Z" fill="#94c0de" stroke="#94c0de"></path><path d="M1398 450L1407 378L1240 425Z" fill="#b3d5e9" stroke="#b3d5e9"></path><path d="M1062 1020L954 869L867 956Z" fill="#e4f4fc" stroke="#e4f4fc"></path><path d="M1112 912L1166 976L1165 845Z" fill="#75abd3" stroke="#75abd3"></path><path d="M981 1080L1062 1020L867 956Z" fill="#85b6d8" stroke="#85b6d8"></path><path d="M620 1001L700 985L591 853Z" fill="#75abd3" stroke="#75abd3"></path><path d="M591 853L700 985L719 818Z" fill="#b3d5e9" stroke="#b3d5e9"></path><path d="M1475 518L1449 553L1477 534Z" fill="#e4f4fc" stroke="#e4f4fc"></path><path d="M1407 638L1449 553L1322 584Z" fill="#b3d5e9" stroke="#b3d5e9"></path><path d="M506 206L501 367L577 331Z" fill="#75abd3" stroke="#75abd3"></path><path d="M501 367L459 362L471 399Z" fill="#c3dfef" stroke="#c3dfef"></path><path d="M350 433L425 537L494 461Z" fill="#c3dfef" stroke="#c3dfef"></path><path d="M368 407L494 461L471 399Z" fill="#85b6d8" stroke="#85b6d8"></path><path d="M1510 345L1407 378L1398 450Z" fill="#e4f4fc" stroke="#e4f4fc"></path><path d="M1407 378L1424 346L1358 291Z" fill="#d3eaf6" stroke="#d3eaf6"></path><path d="M1305 132L1194 217L1338 272Z" fill="#b3d5e9" stroke="#b3d5e9"></path><path d="M1216 88L1081 162L1194 217Z" fill="#e4f4fc" stroke="#e4f4fc"></path><path d="M1081 162L1089 35L1052 167Z" fill="#5696c8" stroke="#5696c8"></path><path d="M845 158L782 19L775 188Z" fill="#94c0de" stroke="#94c0de"></path><path d="M775 188L649 42L698 224Z" fill="#b3d5e9" stroke="#b3d5e9"></path><path d="M1216 88L1194 217L1305 132Z" fill="#94c0de" stroke="#94c0de"></path><path d="M1305 132L1338 272L1370 151Z" fill="#66a1cd" stroke="#66a1cd"></path><path d="M1477 534L1449 553L1526 599Z" fill="#b3d5e9" stroke="#b3d5e9"></path><path d="M1449 553L1475 518L1398 450Z" fill="#e4f4fc" stroke="#e4f4fc"></path><path d="M1526 599L1449 553L1407 638Z" fill="#458cc2" stroke="#458cc2"></path><path d="M993 0L906 198L1052 167Z" fill="#5696c8" stroke="#5696c8"></path><path d="M698 224L506 206L577 331Z" fill="#d3eaf6" stroke="#d3eaf6"></path><path d="M1052 9L993 0L1052 167Z" fill="#66a1cd" stroke="#66a1cd"></path><path d="M1089 35L1052 9L1052 167Z" fill="#75abd3" stroke="#75abd3"></path><path d="M1180 0L1052 9L1089 35Z" fill="#66a1cd" stroke="#66a1cd"></path><path d="M823 6L782 19L845 158Z" fill="#5696c8" stroke="#5696c8"></path><path d="M893 0L823 6L845 158Z" fill="#85b6d8" stroke="#85b6d8"></path><path d="M795 1080L924 1080L809 1001Z" fill="#e4f4fc" stroke="#e4f4fc"></path><path d="M809 1001L924 1080L867 956Z" fill="#75abd3" stroke="#75abd3"></path><path d="M1062 1020L1116 1080L1166 976Z" fill="#d3eaf6" stroke="#d3eaf6"></path><path d="M505 745L424 855L531 798Z" fill="#e4f4fc" stroke="#e4f4fc"></path><path d="M466 947L620 1001L591 853Z" fill="#85b6d8" stroke="#85b6d8"></path><path d="M371 608L427 720L557 619Z" fill="#66a1cd" stroke="#66a1cd"></path><path d="M1370 151L1458 224L1400 148Z" fill="#b3d5e9" stroke="#b3d5e9"></path><path d="M1180 0L1037 0L1052 9Z" fill="#458cc2" stroke="#458cc2"></path><path d="M1052 9L1037 0L993 0Z" fill="#75abd3" stroke="#75abd3"></path><path d="M649 42L506 206L698 224Z" fill="#66a1cd" stroke="#66a1cd"></path><path d="M924 1080L981 1080L867 956Z" fill="#458cc2" stroke="#458cc2"></path><path d="M823 6L812 0L782 19Z" fill="#a4cae4" stroke="#a4cae4"></path><path d="M893 0L812 0L823 6Z" fill="#94c0de" stroke="#94c0de"></path><path d="M762 1080L809 1001L700 985Z" fill="#b3d5e9" stroke="#b3d5e9"></path><path d="M762 1080L795 1080L809 1001Z" fill="#94c0de" stroke="#94c0de"></path><path d="M466 947L591 853L531 798Z" fill="#94c0de" stroke="#94c0de"></path><path d="M812 0L755 0L782 19Z" fill="#a4cae4" stroke="#a4cae4"></path><path d="M782 19L649 42L775 188Z" fill="#458cc2" stroke="#458cc2"></path><path d="M455 169L470 212L506 206Z" fill="#75abd3" stroke="#75abd3"></path><path d="M506 206L470 212L501 367Z" fill="#e4f4fc" stroke="#e4f4fc"></path><path d="M349 574L371 608L425 537Z" fill="#d3eaf6" stroke="#d3eaf6"></path><path d="M981 1080L1116 1080L1062 1020Z" fill="#5696c8" stroke="#5696c8"></path><path d="M1166 976L1344 1002L1201 829Z" fill="#85b6d8" stroke="#85b6d8"></path><path d="M661 1080L762 1080L700 985Z" fill="#85b6d8" stroke="#85b6d8"></path><path d="M368 407L471 399L459 362Z" fill="#d3eaf6" stroke="#d3eaf6"></path><path d="M425 537L371 608L557 619Z" fill="#c3dfef" stroke="#c3dfef"></path><path d="M755 0L649 42L782 19Z" fill="#a4cae4" stroke="#a4cae4"></path><path d="M1370 151L1338 272L1458 224Z" fill="#b3d5e9" stroke="#b3d5e9"></path><path d="M1196 0L1180 0L1216 88Z" fill="#b3d5e9" stroke="#b3d5e9"></path><path d="M1216 88L1180 0L1089 35Z" fill="#85b6d8" stroke="#85b6d8"></path><path d="M1338 272L1358 291L1458 224Z" fill="#e4f4fc" stroke="#e4f4fc"></path><path d="M363 402L368 407L459 362Z" fill="#458cc2" stroke="#458cc2"></path><path d="M1196 0L1216 88L1297 28Z" fill="#85b6d8" stroke="#85b6d8"></path><path d="M499 1075L627 1036L620 1001Z" fill="#b3d5e9" stroke="#b3d5e9"></path><path d="M620 1001L627 1036L700 985Z" fill="#d3eaf6" stroke="#d3eaf6"></path><path d="M1477 534L1556 534L1475 518Z" fill="#94c0de" stroke="#94c0de"></path><path d="M1564 453L1510 345L1398 450Z" fill="#66a1cd" stroke="#66a1cd"></path><path d="M1494 753L1407 638L1349 719Z" fill="#d3eaf6" stroke="#d3eaf6"></path><path d="M1494 753L1349 719L1496 775Z" fill="#c3dfef" stroke="#c3dfef"></path><path d="M350 433L349 574L425 537Z" fill="#d3eaf6" stroke="#d3eaf6"></path><path d="M345 759L424 855L427 720Z" fill="#c3dfef" stroke="#c3dfef"></path><path d="M351 305L363 402L459 362Z" fill="#c3dfef" stroke="#c3dfef"></path><path d="M368 407L350 433L494 461Z" fill="#e4f4fc" stroke="#e4f4fc"></path><path d="M1297 28L1216 88L1305 132Z" fill="#a4cae4" stroke="#a4cae4"></path><path d="M1496 775L1349 719L1329 826Z" fill="#458cc2" stroke="#458cc2"></path><path d="M363 402L350 433L368 407Z" fill="#75abd3" stroke="#75abd3"></path><path d="M1564 453L1398 450L1475 518Z" fill="#5696c8" stroke="#5696c8"></path><path d="M1116 1080L1197 1080L1166 976Z" fill="#b3d5e9" stroke="#b3d5e9"></path><path d="M1458 224L1358 291L1424 346Z" fill="#94c0de" stroke="#94c0de"></path><path d="M1370 151L1354 76L1305 132Z" fill="#d3eaf6" stroke="#d3eaf6"></path><path d="M1510 345L1458 224L1424 346Z" fill="#b3d5e9" stroke="#b3d5e9"></path><path d="M1487 901L1496 775L1329 826Z" fill="#85b6d8" stroke="#85b6d8"></path><path d="M1494 753L1612 637L1526 599Z" fill="#5696c8" stroke="#5696c8"></path><path d="M345 759L427 720L310 695Z" fill="#94c0de" stroke="#94c0de"></path><path d="M427 720L424 855L505 745Z" fill="#c3dfef" stroke="#c3dfef"></path><path d="M490 98L455 169L506 206Z" fill="#75abd3" stroke="#75abd3"></path><path d="M470 212L351 305L459 362Z" fill="#66a1cd" stroke="#66a1cd"></path><path d="M363 402L314 394L350 433Z" fill="#85b6d8" stroke="#85b6d8"></path><path d="M635 1080L661 1080L627 1036Z" fill="#94c0de" stroke="#94c0de"></path><path d="M627 1036L661 1080L700 985Z" fill="#d3eaf6" stroke="#d3eaf6"></path><path d="M591 0L599 28L649 42Z" fill="#a4cae4" stroke="#a4cae4"></path><path d="M649 42L493 97L506 206Z" fill="#b3d5e9" stroke="#b3d5e9"></path><path d="M1612 637L1556 534L1526 599Z" fill="#b3d5e9" stroke="#b3d5e9"></path><path d="M1526 599L1556 534L1477 534Z" fill="#b3d5e9" stroke="#b3d5e9"></path><path d="M1339 1021L1344 1002L1166 976Z" fill="#b3d5e9" stroke="#b3d5e9"></path><path d="M1477 0L1354 76L1400 148Z" fill="#85b6d8" stroke="#85b6d8"></path><path d="M1400 148L1354 76L1370 151Z" fill="#75abd3" stroke="#75abd3"></path><path d="M1354 76L1297 28L1305 132Z" fill="#94c0de" stroke="#94c0de"></path><path d="M499 1075L635 1080L627 1036Z" fill="#85b6d8" stroke="#85b6d8"></path><path d="M599 28L493 97L649 42Z" fill="#e4f4fc" stroke="#e4f4fc"></path><path d="M424 855L466 947L531 798Z" fill="#e4f4fc" stroke="#e4f4fc"></path><path d="M377 86L490 98L412 0Z" fill="#e4f4fc" stroke="#e4f4fc"></path><path d="M493 97L490 98L506 206Z" fill="#e4f4fc" stroke="#e4f4fc"></path><path d="M1197 1080L1339 1021L1166 976Z" fill="#5696c8" stroke="#5696c8"></path><path d="M1344 1002L1487 901L1329 826Z" fill="#458cc2" stroke="#458cc2"></path><path d="M1556 534L1564 453L1475 518Z" fill="#c3dfef" stroke="#c3dfef"></path><path d="M1510 345L1573 304L1458 224Z" fill="#85b6d8" stroke="#85b6d8"></path><path d="M377 86L351 305L455 169Z" fill="#66a1cd" stroke="#66a1cd"></path><path d="M455 169L351 305L470 212Z" fill="#e4f4fc" stroke="#e4f4fc"></path><path d="M310 695L427 720L371 608Z" fill="#a4cae4" stroke="#a4cae4"></path><path d="M424 855L394 923L466 947Z" fill="#458cc2" stroke="#458cc2"></path><path d="M310 695L371 608L271 595Z" fill="#c3dfef" stroke="#c3dfef"></path><path d="M271 595L349 574L248 513Z" fill="#94c0de" stroke="#94c0de"></path><path d="M1556 534L1570 453L1564 453Z" fill="#d3eaf6" stroke="#d3eaf6"></path><path d="M1564 453L1570 453L1510 345Z" fill="#c3dfef" stroke="#c3dfef"></path><path d="M599 28L591 0L493 97Z" fill="#a4cae4" stroke="#a4cae4"></path><path d="M755 0L591 0L649 42Z" fill="#5696c8" stroke="#5696c8"></path><path d="M351 305L314 394L363 402Z" fill="#b3d5e9" stroke="#b3d5e9"></path><path d="M271 595L371 608L349 574Z" fill="#458cc2" stroke="#458cc2"></path><path d="M1297 28L1307 0L1196 0Z" fill="#d3eaf6" stroke="#d3eaf6"></path><path d="M1354 76L1307 0L1297 28Z" fill="#85b6d8" stroke="#85b6d8"></path><path d="M1477 0L1307 0L1354 76Z" fill="#75abd3" stroke="#75abd3"></path><path d="M1505 994L1487 901L1344 1002Z" fill="#85b6d8" stroke="#85b6d8"></path><path d="M1635 640L1612 637L1625 760Z" fill="#b3d5e9" stroke="#b3d5e9"></path><path d="M1197 1080L1316 1080L1339 1021Z" fill="#c3dfef" stroke="#c3dfef"></path><path d="M1339 1021L1388 1080L1344 1002Z" fill="#a4cae4" stroke="#a4cae4"></path><path d="M1505 994L1510 878L1487 901Z" fill="#c3dfef" stroke="#c3dfef"></path><path d="M1487 901L1510 878L1496 775Z" fill="#e4f4fc" stroke="#e4f4fc"></path><path d="M1556 534L1657 543L1570 453Z" fill="#66a1cd" stroke="#66a1cd"></path><path d="M232 807L394 923L345 759Z" fill="#b3d5e9" stroke="#b3d5e9"></path><path d="M345 759L394 923L424 855Z" fill="#e4f4fc" stroke="#e4f4fc"></path><path d="M466 947L499 1075L620 1001Z" fill="#85b6d8" stroke="#85b6d8"></path><path d="M248 513L349 574L350 433Z" fill="#d3eaf6" stroke="#d3eaf6"></path><path d="M312 970L427 1080L394 923Z" fill="#458cc2" stroke="#458cc2"></path><path d="M1570 453L1573 304L1510 345Z" fill="#d3eaf6" stroke="#d3eaf6"></path><path d="M1608 84L1477 0L1400 148Z" fill="#75abd3" stroke="#75abd3"></path><path d="M1612 637L1494 753L1625 760Z" fill="#94c0de" stroke="#94c0de"></path><path d="M1570 453L1649 312L1573 304Z" fill="#66a1cd" stroke="#66a1cd"></path><path d="M171 297L248 513L314 394Z" fill="#75abd3" stroke="#75abd3"></path><path d="M314 394L248 513L350 433Z" fill="#75abd3" stroke="#75abd3"></path><path d="M427 1080L499 1075L466 947Z" fill="#5696c8" stroke="#5696c8"></path><path d="M1625 760L1494 753L1496 775Z" fill="#66a1cd" stroke="#66a1cd"></path><path d="M1612 637L1657 543L1556 534Z" fill="#75abd3" stroke="#75abd3"></path><path d="M1316 1080L1388 1080L1339 1021Z" fill="#458cc2" stroke="#458cc2"></path><path d="M1674 596L1657 543L1612 637Z" fill="#94c0de" stroke="#94c0de"></path><path d="M490 98L377 86L455 169Z" fill="#a4cae4" stroke="#a4cae4"></path><path d="M351 305L230 269L314 394Z" fill="#85b6d8" stroke="#85b6d8"></path><path d="M412 0L490 98L493 97Z" fill="#e4f4fc" stroke="#e4f4fc"></path><path d="M1618 844L1625 760L1496 775Z" fill="#458cc2" stroke="#458cc2"></path><path d="M1635 640L1674 596L1612 637Z" fill="#b3d5e9" stroke="#b3d5e9"></path><path d="M1618 844L1496 775L1510 878Z" fill="#c3dfef" stroke="#c3dfef"></path><path d="M1388 1080L1505 994L1344 1002Z" fill="#a4cae4" stroke="#a4cae4"></path><path d="M1743 619L1674 596L1635 640Z" fill="#458cc2" stroke="#458cc2"></path><path d="M1751 398L1649 312L1570 453Z" fill="#b3d5e9" stroke="#b3d5e9"></path><path d="M1608 84L1400 148L1458 224Z" fill="#85b6d8" stroke="#85b6d8"></path><path d="M1680 289L1649 312L1744 357Z" fill="#75abd3" stroke="#75abd3"></path><path d="M1505 994L1618 844L1510 878Z" fill="#85b6d8" stroke="#85b6d8"></path><path d="M1625 760L1654 786L1635 640Z" fill="#b3d5e9" stroke="#b3d5e9"></path><path d="M394 923L427 1080L466 947Z" fill="#75abd3" stroke="#75abd3"></path><path d="M499 1075L427 1080L635 1080Z" fill="#5696c8" stroke="#5696c8"></path><path d="M229 789L345 759L310 695Z" fill="#a4cae4" stroke="#a4cae4"></path><path d="M591 0L412 0L493 97Z" fill="#75abd3" stroke="#75abd3"></path><path d="M126 679L310 695L271 595Z" fill="#d3eaf6" stroke="#d3eaf6"></path><path d="M126 679L229 789L310 695Z" fill="#a4cae4" stroke="#a4cae4"></path><path d="M1618 844L1654 786L1625 760Z" fill="#458cc2" stroke="#458cc2"></path><path d="M229 789L232 807L345 759Z" fill="#b3d5e9" stroke="#b3d5e9"></path><path d="M245 61L230 269L377 86Z" fill="#e4f4fc" stroke="#e4f4fc"></path><path d="M377 86L230 269L351 305Z" fill="#458cc2" stroke="#458cc2"></path><path d="M248 513L140 580L271 595Z" fill="#b3d5e9" stroke="#b3d5e9"></path><path d="M1388 1080L1469 1080L1505 994Z" fill="#66a1cd" stroke="#66a1cd"></path><path d="M1559 1035L1651 861L1618 844Z" fill="#75abd3" stroke="#75abd3"></path><path d="M1608 84L1458 224L1666 178Z" fill="#d3eaf6" stroke="#d3eaf6"></path><path d="M232 807L312 970L394 923Z" fill="#d3eaf6" stroke="#d3eaf6"></path><path d="M412 0L379 0L377 86Z" fill="#94c0de" stroke="#94c0de"></path><path d="M1746 477L1570 453L1657 543Z" fill="#94c0de" stroke="#94c0de"></path><path d="M1649 312L1666 178L1573 304Z" fill="#d3eaf6" stroke="#d3eaf6"></path><path d="M1559 1035L1618 844L1505 994Z" fill="#c3dfef" stroke="#c3dfef"></path><path d="M1618 844L1651 861L1654 786Z" fill="#66a1cd" stroke="#66a1cd"></path><path d="M1797 694L1743 619L1635 640Z" fill="#b3d5e9" stroke="#b3d5e9"></path><path d="M1547 1069L1559 1035L1505 994Z" fill="#85b6d8" stroke="#85b6d8"></path><path d="M27 452L140 580L248 513Z" fill="#85b6d8" stroke="#85b6d8"></path><path d="M229 789L136 810L232 807Z" fill="#d3eaf6" stroke="#d3eaf6"></path><path d="M100 214L171 297L230 269Z" fill="#e4f4fc" stroke="#e4f4fc"></path><path d="M230 269L171 297L314 394Z" fill="#d3eaf6" stroke="#d3eaf6"></path><path d="M1666 178L1458 224L1573 304Z" fill="#66a1cd" stroke="#66a1cd"></path><path d="M1797 694L1635 640L1654 786Z" fill="#e4f4fc" stroke="#e4f4fc"></path><path d="M1674 596L1743 619L1657 543Z" fill="#94c0de" stroke="#94c0de"></path><path d="M1469 1080L1547 1069L1505 994Z" fill="#d3eaf6" stroke="#d3eaf6"></path><path d="M1714 1080L1755 863L1651 861Z" fill="#85b6d8" stroke="#85b6d8"></path><path d="M1743 619L1746 477L1657 543Z" fill="#94c0de" stroke="#94c0de"></path><path d="M1721 172L1666 178L1680 289Z" fill="#5696c8" stroke="#5696c8"></path><path d="M1680 289L1666 178L1649 312Z" fill="#458cc2" stroke="#458cc2"></path><path d="M312 970L331 1080L427 1080Z" fill="#a4cae4" stroke="#a4cae4"></path><path d="M323 1080L331 1080L307 1064Z" fill="#d3eaf6" stroke="#d3eaf6"></path><path d="M331 1080L312 970L307 1064Z" fill="#a4cae4" stroke="#a4cae4"></path><path d="M1680 0L1562 0L1608 84Z" fill="#a4cae4" stroke="#a4cae4"></path><path d="M1608 84L1562 0L1477 0Z" fill="#a4cae4" stroke="#a4cae4"></path><path d="M307 1064L312 970L277 1071Z" fill="#458cc2" stroke="#458cc2"></path><path d="M1746 477L1751 398L1570 453Z" fill="#75abd3" stroke="#75abd3"></path><path d="M1775 419L1751 398L1746 477Z" fill="#e4f4fc" stroke="#e4f4fc"></path><path d="M180 926L312 970L232 807Z" fill="#e4f4fc" stroke="#e4f4fc"></path><path d="M1751 398L1744 357L1649 312Z" fill="#85b6d8" stroke="#85b6d8"></path><path d="M59 593L126 679L140 580Z" fill="#94c0de" stroke="#94c0de"></path><path d="M140 580L126 679L271 595Z" fill="#66a1cd" stroke="#66a1cd"></path><path d="M379 0L304 0L377 86Z" fill="#458cc2" stroke="#458cc2"></path><path d="M304 0L245 61L377 86Z" fill="#d3eaf6" stroke="#d3eaf6"></path><path d="M1886 371L1775 419L1920 470Z" fill="#94c0de" stroke="#94c0de"></path><path d="M1751 398L1802 327L1744 357Z" fill="#85b6d8" stroke="#85b6d8"></path><path d="M1744 357L1763 288L1680 289Z" fill="#5696c8" stroke="#5696c8"></path><path d="M126 679L136 810L229 789Z" fill="#85b6d8" stroke="#85b6d8"></path><path d="M233 1080L277 1071L312 970Z" fill="#5696c8" stroke="#5696c8"></path><path d="M307 1064L277 1071L323 1080Z" fill="#5696c8" stroke="#5696c8"></path><path d="M141 883L180 926L232 807Z" fill="#5696c8" stroke="#5696c8"></path><path d="M1802 327L1763 288L1744 357Z" fill="#458cc2" stroke="#458cc2"></path><path d="M1666 178L1721 172L1608 84Z" fill="#66a1cd" stroke="#66a1cd"></path><path d="M1763 288L1721 172L1680 289Z" fill="#66a1cd" stroke="#66a1cd"></path><path d="M100 214L99 337L171 297Z" fill="#85b6d8" stroke="#85b6d8"></path><path d="M171 297L99 337L248 513Z" fill="#94c0de" stroke="#94c0de"></path><path d="M62 902L141 883L136 810Z" fill="#a4cae4" stroke="#a4cae4"></path><path d="M124 104L168 137L245 61Z" fill="#e4f4fc" stroke="#e4f4fc"></path><path d="M245 61L168 137L230 269Z" fill="#5696c8" stroke="#5696c8"></path><path d="M82 778L136 810L126 679Z" fill="#5696c8" stroke="#5696c8"></path><path d="M136 810L141 883L232 807Z" fill="#d3eaf6" stroke="#d3eaf6"></path><path d="M180 926L233 1080L312 970Z" fill="#5696c8" stroke="#5696c8"></path><path d="M1755 863L1654 786L1651 861Z" fill="#75abd3" stroke="#75abd3"></path><path d="M1806 776L1797 694L1654 786Z" fill="#d3eaf6" stroke="#d3eaf6"></path><path d="M1920 470L1775 419L1746 477Z" fill="#458cc2" stroke="#458cc2"></path><path d="M1714 1080L1651 861L1559 1035Z" fill="#75abd3" stroke="#75abd3"></path><path d="M304 0L243 0L245 61Z" fill="#94c0de" stroke="#94c0de"></path><path d="M48 562L59 593L140 580Z" fill="#458cc2" stroke="#458cc2"></path><path d="M1775 419L1802 327L1751 398Z" fill="#e4f4fc" stroke="#e4f4fc"></path><path d="M1763 288L1800 223L1721 172Z" fill="#e4f4fc" stroke="#e4f4fc"></path><path d="M1886 371L1802 327L1775 419Z" fill="#a4cae4" stroke="#a4cae4"></path><path d="M0 678L82 778L126 679Z" fill="#d3eaf6" stroke="#d3eaf6"></path><path d="M103 943L180 926L141 883Z" fill="#75abd3" stroke="#75abd3"></path><path d="M103 943L233 1080L180 926Z" fill="#94c0de" stroke="#94c0de"></path><path d="M277 1071L233 1080L323 1080Z" fill="#e4f4fc" stroke="#e4f4fc"></path><path d="M59 593L0 678L126 679Z" fill="#a4cae4" stroke="#a4cae4"></path><path d="M27 452L48 562L140 580Z" fill="#a4cae4" stroke="#a4cae4"></path><path d="M1755 863L1806 776L1654 786Z" fill="#c3dfef" stroke="#c3dfef"></path><path d="M1920 510L1746 477L1743 619Z" fill="#94c0de" stroke="#94c0de"></path><path d="M124 104L100 214L168 137Z" fill="#94c0de" stroke="#94c0de"></path><path d="M168 137L100 214L230 269Z" fill="#5696c8" stroke="#5696c8"></path><path d="M99 337L27 452L248 513Z" fill="#458cc2" stroke="#458cc2"></path><path d="M1755 863L1814 775L1806 776Z" fill="#d3eaf6" stroke="#d3eaf6"></path><path d="M1806 776L1820 771L1797 694Z" fill="#c3dfef" stroke="#c3dfef"></path><path d="M1908 881L1820 771L1814 775Z" fill="#e4f4fc" stroke="#e4f4fc"></path><path d="M1814 775L1820 771L1806 776Z" fill="#5696c8" stroke="#5696c8"></path><path d="M1692 0L1680 0L1608 84Z" fill="#b3d5e9" stroke="#b3d5e9"></path><path d="M1692 0L1608 84L1721 172Z" fill="#458cc2" stroke="#458cc2"></path><path d="M1805 139L1800 223L1881 149Z" fill="#66a1cd" stroke="#66a1cd"></path><path d="M1802 327L1800 223L1763 288Z" fill="#94c0de" stroke="#94c0de"></path><path d="M0 388L27 452L99 337Z" fill="#458cc2" stroke="#458cc2"></path><path d="M48 562L0 543L59 593Z" fill="#94c0de" stroke="#94c0de"></path><path d="M113 -3L124 104L245 61Z" fill="#b3d5e9" stroke="#b3d5e9"></path><path d="M0 388L3 476L27 452Z" fill="#a4cae4" stroke="#a4cae4"></path><path d="M1805 139L1692 0L1721 172Z" fill="#458cc2" stroke="#458cc2"></path><path d="M62 902L103 943L141 883Z" fill="#d3eaf6" stroke="#d3eaf6"></path><path d="M62 902L136 810L82 778Z" fill="#75abd3" stroke="#75abd3"></path><path d="M0 388L99 337L0 294Z" fill="#d3eaf6" stroke="#d3eaf6"></path><path d="M27 452L0 521L48 562Z" fill="#66a1cd" stroke="#66a1cd"></path><path d="M0 521L0 543L48 562Z" fill="#66a1cd" stroke="#66a1cd"></path><path d="M3 476L0 521L27 452Z" fill="#b3d5e9" stroke="#b3d5e9"></path><path d="M1469 1080L1714 1080L1547 1069Z" fill="#e4f4fc" stroke="#e4f4fc"></path><path d="M1547 1069L1714 1080L1559 1035Z" fill="#75abd3" stroke="#75abd3"></path><path d="M1755 863L1908 881L1814 775Z" fill="#458cc2" stroke="#458cc2"></path><path d="M0 543L0 678L59 593Z" fill="#458cc2" stroke="#458cc2"></path><path d="M0 886L62 902L82 778Z" fill="#a4cae4" stroke="#a4cae4"></path><path d="M103 943L85 1080L233 1080Z" fill="#c3dfef" stroke="#c3dfef"></path><path d="M1714 1080L1820 986L1755 863Z" fill="#75abd3" stroke="#75abd3"></path><path d="M0 294L99 337L0 284Z" fill="#75abd3" stroke="#75abd3"></path><path d="M3 476L0 388L0 521Z" fill="#458cc2" stroke="#458cc2"></path><path d="M1920 274L1800 223L1802 327Z" fill="#5696c8" stroke="#5696c8"></path><path d="M1800 223L1805 139L1721 172Z" fill="#5696c8" stroke="#5696c8"></path><path d="M1920 510L1743 619L1920 613Z" fill="#c3dfef" stroke="#c3dfef"></path><path d="M0 678L0 768L82 778Z" fill="#a4cae4" stroke="#a4cae4"></path><path d="M0 284L99 337L100 214Z" fill="#75abd3" stroke="#75abd3"></path><path d="M0 149L0 284L100 214Z" fill="#458cc2" stroke="#458cc2"></path><path d="M1920 613L1797 694L1920 730Z" fill="#d3eaf6" stroke="#d3eaf6"></path><path d="M1920 613L1743 619L1797 694Z" fill="#94c0de" stroke="#94c0de"></path><path d="M1920 510L1920 470L1746 477Z" fill="#458cc2" stroke="#458cc2"></path><path d="M1920 730L1797 694L1820 771Z" fill="#d3eaf6" stroke="#d3eaf6"></path><path d="M243 0L113 -3L245 61Z" fill="#e4f4fc" stroke="#e4f4fc"></path><path d="M124 104L0 149L100 214Z" fill="#b3d5e9" stroke="#b3d5e9"></path><path d="M304 0L113 -3L243 0Z" fill="#94c0de" stroke="#94c0de"></path><path d="M379 0L113 -3L304 0Z" fill="#94c0de" stroke="#94c0de"></path><path d="M412 0L113 -3L379 0Z" fill="#66a1cd" stroke="#66a1cd"></path><path d="M591 0L113 -3L412 0Z" fill="#d3eaf6" stroke="#d3eaf6"></path><path d="M755 0L113 -3L591 0Z" fill="#66a1cd" stroke="#66a1cd"></path><path d="M812 0L113 -3L755 0Z" fill="#85b6d8" stroke="#85b6d8"></path><path d="M893 0L113 -3L812 0Z" fill="#458cc2" stroke="#458cc2"></path><path d="M993 0L113 -3L893 0Z" fill="#e4f4fc" stroke="#e4f4fc"></path><path d="M1037 0L113 -3L993 0Z" fill="#75abd3" stroke="#75abd3"></path><path d="M1180 0L113 -3L1037 0Z" fill="#75abd3" stroke="#75abd3"></path><path d="M1196 0L113 -3L1180 0Z" fill="#85b6d8" stroke="#85b6d8"></path><path d="M1307 0L113 -3L1196 0Z" fill="#66a1cd" stroke="#66a1cd"></path><path d="M1477 0L113 -3L1307 0Z" fill="#85b6d8" stroke="#85b6d8"></path><path d="M1562 0L113 -3L1477 0Z" fill="#85b6d8" stroke="#85b6d8"></path><path d="M1680 0L113 -3L1562 0Z" fill="#458cc2" stroke="#458cc2"></path><path d="M1692 0L113 -3L1680 0Z" fill="#5696c8" stroke="#5696c8"></path><path d="M1720 1080L1820 986L1714 1080Z" fill="#a4cae4" stroke="#a4cae4"></path><path d="M1920 731L1920 730L1820 771Z" fill="#458cc2" stroke="#458cc2"></path><path d="M1908 881L1920 731L1820 771Z" fill="#66a1cd" stroke="#66a1cd"></path><path d="M1920 470L1920 330L1886 371Z" fill="#66a1cd" stroke="#66a1cd"></path><path d="M1886 371L1920 330L1802 327Z" fill="#5696c8" stroke="#5696c8"></path><path d="M0 768L0 886L82 778Z" fill="#a4cae4" stroke="#a4cae4"></path><path d="M0 1011L85 1080L103 943Z" fill="#458cc2" stroke="#458cc2"></path><path d="M0 1011L103 943L62 902Z" fill="#c3dfef" stroke="#c3dfef"></path><path d="M1920 330L1920 274L1802 327Z" fill="#75abd3" stroke="#75abd3"></path><path d="M1805 139L1809 0L1692 0Z" fill="#5696c8" stroke="#5696c8"></path><path d="M0 123L0 149L124 104Z" fill="#5696c8" stroke="#5696c8"></path><path d="M1920 198L1881 149L1800 223Z" fill="#d3eaf6" stroke="#d3eaf6"></path><path d="M1852 16L1809 0L1805 139Z" fill="#5696c8" stroke="#5696c8"></path><path d="M1692 0L1809 0L113 -3Z" fill="#75abd3" stroke="#75abd3"></path><path d="M28 27L0 123L124 104Z" fill="#66a1cd" stroke="#66a1cd"></path><path d="M1896 920L1908 881L1755 863Z" fill="#75abd3" stroke="#75abd3"></path><path d="M1920 952L1896 920L1820 986Z" fill="#75abd3" stroke="#75abd3"></path><path d="M1820 986L1896 920L1755 863Z" fill="#a4cae4" stroke="#a4cae4"></path><path d="M1920 274L1920 198L1800 223Z" fill="#b3d5e9" stroke="#b3d5e9"></path><path d="M1881 149L1852 16L1805 139Z" fill="#458cc2" stroke="#458cc2"></path><path d="M113 -3L28 27L124 104Z" fill="#c3dfef" stroke="#c3dfef"></path><path d="M1920 102L1852 16L1881 149Z" fill="#94c0de" stroke="#94c0de"></path><path d="M0 886L0 1011L62 902Z" fill="#d3eaf6" stroke="#d3eaf6"></path><path d="M113 -3L33 0L28 27Z" fill="#94c0de" stroke="#94c0de"></path><path d="M28 27L0 0L0 123Z" fill="#b3d5e9" stroke="#b3d5e9"></path><path d="M1920 983L1920 952L1820 986Z" fill="#d3eaf6" stroke="#d3eaf6"></path><path d="M1896 920L1920 952L1908 881Z" fill="#66a1cd" stroke="#66a1cd"></path><path d="M1908 881L1920 952L1920 731Z" fill="#c3dfef" stroke="#c3dfef"></path><path d="M1920 198L1920 102L1881 149Z" fill="#85b6d8" stroke="#85b6d8"></path><path d="M1891 1080L1920 983L1820 986Z" fill="#85b6d8" stroke="#85b6d8"></path><path d="M113 -3L0 0L33 0Z" fill="#c3dfef" stroke="#c3dfef"></path><path d="M33 0L0 0L28 27Z" fill="#458cc2" stroke="#458cc2"></path><path d="M0 1011L0 1080L85 1080Z" fill="#66a1cd" stroke="#66a1cd"></path><path d="M1720 1080L1891 1080L1820 986Z" fill="#94c0de" stroke="#94c0de"></path><path d="M1920 102L1920 0L1852 16Z" fill="#458cc2" stroke="#458cc2"></path><path d="M1852 16L1920 0L1809 0Z" fill="#94c0de" stroke="#94c0de"></path><path d="M1809 0L1920 0L113 -3Z" fill="#94c0de" stroke="#94c0de"></path><path d="M1891 1080L1920 1080L1920 983Z" fill="#b3d5e9" stroke="#b3d5e9"></path></g></svg>