<svg id="visual" viewBox="0 0 3840 3200" width="3840" height="3200" xmlns="http://www.w3.org/2000/svg" xmlns:xlink="http://www.w3.org/1999/xlink" version="1.1"><g stroke-width="1" stroke-linejoin="bevel"><path d="M2002 1707.1L2137 1817.4L2137 1750.1Z" fill="#b7cedb" stroke="#b7cedb"></path><path d="M2137 1817.4L2252 1859.4L2137 1750.1Z" fill="#d1d9e5" stroke="#d1d9e5"></path><path d="M2002 1707.1L1849 1873.4L2137 1817.4Z" fill="#8dbcbc" stroke="#8dbcbc"></path><path d="M2137 1817.4L2069 2096.6L2252 1859.4Z" fill="#94c0c4" stroke="#94c0c4"></path><path d="M2002 1707.1L1823 1748.1L1849 1873.4Z" fill="#d1d9e5" stroke="#d1d9e5"></path><path d="M2252 1859.4L2219 1600.1L2137 1750.1Z" fill="#c9d5e2" stroke="#c9d5e2"></path><path d="M2137 1750.1L2219 1600.1L2002 1707.1Z" fill="#8dbcbc" stroke="#8dbcbc"></path><path d="M2002 1707.1L1826 1502.9L1823 1748.1Z" fill="#87b8b3" stroke="#87b8b3"></path><path d="M1849 1873.4L1956 2019.6L2137 1817.4Z" fill="#c0d1df" stroke="#c0d1df"></path><path d="M1823 1748.1L1759 1852.4L1849 1873.4Z" fill="#c0d1df" stroke="#c0d1df"></path><path d="M1849 1873.4L1675 2163.6L1956 2019.6Z" fill="#94c0c4" stroke="#94c0c4"></path><path d="M1956 2019.6L2069 2096.6L2137 1817.4Z" fill="#82b4aa" stroke="#82b4aa"></path><path d="M2219 1600.1L2019 1459.9L2002 1707.1Z" fill="#8dbcbc" stroke="#8dbcbc"></path><path d="M2468 1669.1L2287 1539.9L2219 1600.1Z" fill="#d1d9e5" stroke="#d1d9e5"></path><path d="M2219 1600.1L2287 1539.9L2019 1459.9Z" fill="#8dbcbc" stroke="#8dbcbc"></path><path d="M2019 1459.9L1826 1502.9L2002 1707.1Z" fill="#aecad6" stroke="#aecad6"></path><path d="M1823 1748.1L1450 1729.1L1759 1852.4Z" fill="#c0d1df" stroke="#c0d1df"></path><path d="M2239 2096.6L2416 1787.4L2252 1859.4Z" fill="#aecad6" stroke="#aecad6"></path><path d="M2252 1859.4L2416 1787.4L2219 1600.1Z" fill="#c9d5e2" stroke="#c9d5e2"></path><path d="M2069 2096.6L2239 2096.6L2252 1859.4Z" fill="#94c0c4" stroke="#94c0c4"></path><path d="M1826 1502.9L1739 1537.9L1823 1748.1Z" fill="#94c0c4" stroke="#94c0c4"></path><path d="M1675 2163.6L1933 2186.8L1956 2019.6Z" fill="#aecad6" stroke="#aecad6"></path><path d="M1956 2019.6L1933 2186.8L2069 2096.6Z" fill="#94c0c4" stroke="#94c0c4"></path><path d="M2069 2096.6L2060 2353.8L2239 2096.6Z" fill="#c9d5e2" stroke="#c9d5e2"></path><path d="M2416 1787.4L2468 1669.1L2219 1600.1Z" fill="#aecad6" stroke="#aecad6"></path><path d="M2079 1225.6L1957 1345.6L2019 1459.9Z" fill="#87b8b3" stroke="#87b8b3"></path><path d="M2019 1459.9L1957 1345.6L1826 1502.9Z" fill="#c0d1df" stroke="#c0d1df"></path><path d="M1826 1502.9L1584 1422.9L1739 1537.9Z" fill="#a5c7d1" stroke="#a5c7d1"></path><path d="M2436 1431.9L2342 1364.6L2287 1539.9Z" fill="#94c0c4" stroke="#94c0c4"></path><path d="M2287 1539.9L2342 1364.6L2019 1459.9Z" fill="#94c0c4" stroke="#94c0c4"></path><path d="M2468 1669.1L2436 1431.9L2287 1539.9Z" fill="#c0d1df" stroke="#c0d1df"></path><path d="M1441 1954.4L1675 2163.6L1759 1852.4Z" fill="#9cc3cb" stroke="#9cc3cb"></path><path d="M1759 1852.4L1675 2163.6L1849 1873.4Z" fill="#d1d9e5" stroke="#d1d9e5"></path><path d="M2436 1431.9L2406 1374.6L2342 1364.6Z" fill="#c0d1df" stroke="#c0d1df"></path><path d="M2292 1198.4L2079 1225.6L2342 1364.6Z" fill="#d1d9e5" stroke="#d1d9e5"></path><path d="M2342 1364.6L2079 1225.6L2019 1459.9Z" fill="#a5c7d1" stroke="#a5c7d1"></path><path d="M1759 1226.6L1584 1422.9L1826 1502.9Z" fill="#c9d5e2" stroke="#c9d5e2"></path><path d="M1675 2163.6L1701 2232.8L1933 2186.8Z" fill="#87b8b3" stroke="#87b8b3"></path><path d="M1759 2482.1L2060 2353.8L1933 2186.8Z" fill="#aecad6" stroke="#aecad6"></path><path d="M1933 2186.8L2060 2353.8L2069 2096.6Z" fill="#aecad6" stroke="#aecad6"></path><path d="M2563 2145.6L2626 1794.4L2416 1787.4Z" fill="#8dbcbc" stroke="#8dbcbc"></path><path d="M2416 1787.4L2626 1794.4L2468 1669.1Z" fill="#b7cedb" stroke="#b7cedb"></path><path d="M2468 1669.1L2628 1623.1L2436 1431.9Z" fill="#9cc3cb" stroke="#9cc3cb"></path><path d="M2436 1431.9L2605 1144.4L2406 1374.6Z" fill="#82b4aa" stroke="#82b4aa"></path><path d="M2563 2145.6L2416 1787.4L2239 2096.6Z" fill="#a5c7d1" stroke="#a5c7d1"></path><path d="M1759 1226.6L1826 1502.9L1957 1345.6Z" fill="#b7cedb" stroke="#b7cedb"></path><path d="M1739 1537.9L1450 1729.1L1823 1748.1Z" fill="#c9d5e2" stroke="#c9d5e2"></path><path d="M2626 1794.4L2628 1623.1L2468 1669.1Z" fill="#b7cedb" stroke="#b7cedb"></path><path d="M1584 1422.9L1450 1729.1L1739 1537.9Z" fill="#a5c7d1" stroke="#a5c7d1"></path><path d="M1675 2163.6L1634 2333.8L1701 2232.8Z" fill="#82b4aa" stroke="#82b4aa"></path><path d="M2060 2353.8L2268 2350.8L2239 2096.6Z" fill="#9cc3cb" stroke="#9cc3cb"></path><path d="M2268 2350.8L2460 2254.8L2239 2096.6Z" fill="#aecad6" stroke="#aecad6"></path><path d="M2460 2254.8L2563 2145.6L2239 2096.6Z" fill="#8dbcbc" stroke="#8dbcbc"></path><path d="M1859 1180.4L1759 1226.6L1957 1345.6Z" fill="#9cc3cb" stroke="#9cc3cb"></path><path d="M2471 1079.4L2292 1198.4L2406 1374.6Z" fill="#82b4aa" stroke="#82b4aa"></path><path d="M2406 1374.6L2292 1198.4L2342 1364.6Z" fill="#94c0c4" stroke="#94c0c4"></path><path d="M2079 1225.6L1859 1180.4L1957 1345.6Z" fill="#94c0c4" stroke="#94c0c4"></path><path d="M2068 960.2L1859 1180.4L2079 1225.6Z" fill="#aecad6" stroke="#aecad6"></path><path d="M1450 1729.1L1441 1954.4L1759 1852.4Z" fill="#aecad6" stroke="#aecad6"></path><path d="M1584 1422.9L1417 1713.1L1450 1729.1Z" fill="#b7cedb" stroke="#b7cedb"></path><path d="M1450 1729.1L1340 1843.4L1441 1954.4Z" fill="#9cc3cb" stroke="#9cc3cb"></path><path d="M1973 2542.1L2102 2447.1L2060 2353.8Z" fill="#c0d1df" stroke="#c0d1df"></path><path d="M2060 2353.8L2102 2447.1L2268 2350.8Z" fill="#b7cedb" stroke="#b7cedb"></path><path d="M2268 2350.8L2519 2358.1L2460 2254.8Z" fill="#94c0c4" stroke="#94c0c4"></path><path d="M2292 1198.4L2195 1112.4L2079 1225.6Z" fill="#94c0c4" stroke="#94c0c4"></path><path d="M1440 2152.6L1634 2333.8L1675 2163.6Z" fill="#c9d5e2" stroke="#c9d5e2"></path><path d="M1701 2232.8L1759 2482.1L1933 2186.8Z" fill="#aecad6" stroke="#aecad6"></path><path d="M2829 1529.9L2690 1515.9L2858 1626.1Z" fill="#c9d5e2" stroke="#c9d5e2"></path><path d="M2628 1623.1L2690 1515.9L2436 1431.9Z" fill="#9cc3cb" stroke="#9cc3cb"></path><path d="M2292 1198.4L2218 1030.2L2195 1112.4Z" fill="#c9d5e2" stroke="#c9d5e2"></path><path d="M2858 1626.1L2628 1623.1L2626 1794.4Z" fill="#b7cedb" stroke="#b7cedb"></path><path d="M1625 1048.4L1726 1168.4L1651 975.2Z" fill="#82b4aa" stroke="#82b4aa"></path><path d="M1859 1180.4L1726 1168.4L1759 1226.6Z" fill="#9cc3cb" stroke="#9cc3cb"></path><path d="M1759 1226.6L1523 1296.6L1584 1422.9Z" fill="#b7cedb" stroke="#b7cedb"></path><path d="M1242 1726.1L1340 1843.4L1417 1713.1Z" fill="#aecad6" stroke="#aecad6"></path><path d="M1425 1411.6L1417 1713.1L1584 1422.9Z" fill="#87b8b3" stroke="#87b8b3"></path><path d="M1417 1713.1L1340 1843.4L1450 1729.1Z" fill="#c0d1df" stroke="#c0d1df"></path><path d="M1441 1954.4L1440 2152.6L1675 2163.6Z" fill="#82b4aa" stroke="#82b4aa"></path><path d="M1302 1979.6L1440 2152.6L1441 1954.4Z" fill="#aecad6" stroke="#aecad6"></path><path d="M1726 1168.4L1523 1296.6L1759 1226.6Z" fill="#c0d1df" stroke="#c0d1df"></path><path d="M1523 1296.6L1425 1411.6L1584 1422.9Z" fill="#d1d9e5" stroke="#d1d9e5"></path><path d="M2102 2447.1L2276 2485.1L2268 2350.8Z" fill="#94c0c4" stroke="#94c0c4"></path><path d="M2460 2254.8L2519 2358.1L2563 2145.6Z" fill="#aecad6" stroke="#aecad6"></path><path d="M2276 2485.1L2519 2358.1L2268 2350.8Z" fill="#b7cedb" stroke="#b7cedb"></path><path d="M1660 2537.3L1759 2482.1L1634 2333.8Z" fill="#c0d1df" stroke="#c0d1df"></path><path d="M1634 2333.8L1759 2482.1L1701 2232.8Z" fill="#aecad6" stroke="#aecad6"></path><path d="M2102 2447.1L2069 2561.3L2276 2485.1Z" fill="#9cc3cb" stroke="#9cc3cb"></path><path d="M1759 2482.1L1973 2542.1L2060 2353.8Z" fill="#c0d1df" stroke="#c0d1df"></path><path d="M2725 2161.8L2771 2055.6L2563 2145.6Z" fill="#82b4aa" stroke="#82b4aa"></path><path d="M2563 2145.6L2771 2055.6L2626 1794.4Z" fill="#c9d5e2" stroke="#c9d5e2"></path><path d="M2401 1031.2L2218 1030.2L2292 1198.4Z" fill="#94c0c4" stroke="#94c0c4"></path><path d="M2195 1112.4L2068 960.2L2079 1225.6Z" fill="#9cc3cb" stroke="#9cc3cb"></path><path d="M2519 2358.1L2725 2161.8L2563 2145.6Z" fill="#82b4aa" stroke="#82b4aa"></path><path d="M1340 1843.4L1302 1979.6L1441 1954.4Z" fill="#87b8b3" stroke="#87b8b3"></path><path d="M1234 1809.4L1302 1979.6L1340 1843.4Z" fill="#87b8b3" stroke="#87b8b3"></path><path d="M1973 2542.1L2069 2561.3L2102 2447.1Z" fill="#8dbcbc" stroke="#8dbcbc"></path><path d="M2771 2055.6L2828 1844.4L2626 1794.4Z" fill="#87b8b3" stroke="#87b8b3"></path><path d="M1133 1437.9L1329 1481.9L1141 1352.6Z" fill="#c9d5e2" stroke="#c9d5e2"></path><path d="M1425 1411.6L1329 1481.9L1417 1713.1Z" fill="#c0d1df" stroke="#c0d1df"></path><path d="M1833 2813.5L2011 2573.3L1973 2542.1Z" fill="#82b4aa" stroke="#82b4aa"></path><path d="M1973 2542.1L2011 2573.3L2069 2561.3Z" fill="#82b4aa" stroke="#82b4aa"></path><path d="M1163 2158.6L1388 2238.8L1440 2152.6Z" fill="#87b8b3" stroke="#87b8b3"></path><path d="M1440 2152.6L1388 2238.8L1634 2333.8Z" fill="#8dbcbc" stroke="#8dbcbc"></path><path d="M1329 1481.9L1242 1726.1L1417 1713.1Z" fill="#c0d1df" stroke="#c0d1df"></path><path d="M2858 1626.1L2690 1515.9L2628 1623.1Z" fill="#d1d9e5" stroke="#d1d9e5"></path><path d="M2605 1144.4L2471 1079.4L2406 1374.6Z" fill="#d1d9e5" stroke="#d1d9e5"></path><path d="M1242 1726.1L1234 1809.4L1340 1843.4Z" fill="#9cc3cb" stroke="#9cc3cb"></path><path d="M1302 1979.6L1163 2158.6L1440 2152.6Z" fill="#9cc3cb" stroke="#9cc3cb"></path><path d="M2605 1144.4L2436 1431.9L2690 1515.9Z" fill="#94c0c4" stroke="#94c0c4"></path><path d="M2828 1844.4L2858 1626.1L2626 1794.4Z" fill="#b7cedb" stroke="#b7cedb"></path><path d="M2207 718.9L2068 960.2L2218 1030.2Z" fill="#c0d1df" stroke="#c0d1df"></path><path d="M2218 1030.2L2068 960.2L2195 1112.4Z" fill="#87b8b3" stroke="#87b8b3"></path><path d="M2471 1079.4L2401 1031.2L2292 1198.4Z" fill="#8dbcbc" stroke="#8dbcbc"></path><path d="M2797 1292.6L2605 1144.4L2690 1515.9Z" fill="#c9d5e2" stroke="#c9d5e2"></path><path d="M2471 1079.4L2488 734.9L2401 1031.2Z" fill="#8dbcbc" stroke="#8dbcbc"></path><path d="M1542 2475.1L1660 2537.3L1634 2333.8Z" fill="#a5c7d1" stroke="#a5c7d1"></path><path d="M1759 2482.1L1833 2813.5L1973 2542.1Z" fill="#9cc3cb" stroke="#9cc3cb"></path><path d="M1651 975.2L1726 1168.4L1859 1180.4Z" fill="#8dbcbc" stroke="#8dbcbc"></path><path d="M1726 1168.4L1625 1048.4L1523 1296.6Z" fill="#94c0c4" stroke="#94c0c4"></path><path d="M1141 1352.6L1329 1481.9L1425 1411.6Z" fill="#82b4aa" stroke="#82b4aa"></path><path d="M1388 2238.8L1542 2475.1L1634 2333.8Z" fill="#87b8b3" stroke="#87b8b3"></path><path d="M1899 832.9L1989 925.2L2207 718.9Z" fill="#aecad6" stroke="#aecad6"></path><path d="M2068 960.2L1989 925.2L1859 1180.4Z" fill="#d1d9e5" stroke="#d1d9e5"></path><path d="M3124 1230.6L2797 1292.6L2829 1529.9Z" fill="#d1d9e5" stroke="#d1d9e5"></path><path d="M2829 1529.9L2797 1292.6L2690 1515.9Z" fill="#c0d1df" stroke="#c0d1df"></path><path d="M1815 843.9L1651 975.2L1859 1180.4Z" fill="#aecad6" stroke="#aecad6"></path><path d="M1625 1048.4L1280 1064.4L1523 1296.6Z" fill="#aecad6" stroke="#aecad6"></path><path d="M2797 1292.6L2787 1255.6L2605 1144.4Z" fill="#d1d9e5" stroke="#d1d9e5"></path><path d="M2069 2561.3L2353 2663.3L2276 2485.1Z" fill="#94c0c4" stroke="#94c0c4"></path><path d="M2276 2485.1L2559 2640.3L2519 2358.1Z" fill="#b7cedb" stroke="#b7cedb"></path><path d="M2519 2358.1L2757 2418.1L2725 2161.8Z" fill="#d1d9e5" stroke="#d1d9e5"></path><path d="M2264 2900.5L2353 2663.3L2069 2561.3Z" fill="#a5c7d1" stroke="#a5c7d1"></path><path d="M2024 2861.5L2069 2561.3L2011 2573.3Z" fill="#c0d1df" stroke="#c0d1df"></path><path d="M2972 2045.6L2968 2013.6L2771 2055.6Z" fill="#a5c7d1" stroke="#a5c7d1"></path><path d="M2771 2055.6L2968 2013.6L2828 1844.4Z" fill="#aecad6" stroke="#aecad6"></path><path d="M2828 1844.4L3068 1638.1L2858 1626.1Z" fill="#9cc3cb" stroke="#9cc3cb"></path><path d="M2858 1626.1L3068 1638.1L2829 1529.9Z" fill="#8dbcbc" stroke="#8dbcbc"></path><path d="M2867 2278.8L2771 2055.6L2725 2161.8Z" fill="#94c0c4" stroke="#94c0c4"></path><path d="M2636 2572.3L2757 2418.1L2519 2358.1Z" fill="#a5c7d1" stroke="#a5c7d1"></path><path d="M1503 802.9L1565 968.2L1651 975.2Z" fill="#9cc3cb" stroke="#9cc3cb"></path><path d="M1651 975.2L1565 968.2L1625 1048.4Z" fill="#8dbcbc" stroke="#8dbcbc"></path><path d="M2757 2418.1L2867 2278.8L2725 2161.8Z" fill="#c0d1df" stroke="#c0d1df"></path><path d="M2867 2278.8L2972 2045.6L2771 2055.6Z" fill="#c0d1df" stroke="#c0d1df"></path><path d="M2207 718.9L1989 925.2L2068 960.2Z" fill="#c9d5e2" stroke="#c9d5e2"></path><path d="M1989 925.2L1815 843.9L1859 1180.4Z" fill="#87b8b3" stroke="#87b8b3"></path><path d="M958 2041.6L1302 1979.6L1234 1809.4Z" fill="#aecad6" stroke="#aecad6"></path><path d="M958 2041.6L1163 2158.6L1302 1979.6Z" fill="#aecad6" stroke="#aecad6"></path><path d="M1290 2389.1L1506 2582.3L1542 2475.1Z" fill="#87b8b3" stroke="#87b8b3"></path><path d="M1290 2389.1L1542 2475.1L1388 2238.8Z" fill="#8dbcbc" stroke="#8dbcbc"></path><path d="M1542 2475.1L1506 2582.3L1660 2537.3Z" fill="#8dbcbc" stroke="#8dbcbc"></path><path d="M1660 2537.3L1833 2813.5L1759 2482.1Z" fill="#87b8b3" stroke="#87b8b3"></path><path d="M1899 832.9L1815 843.9L1989 925.2Z" fill="#87b8b3" stroke="#87b8b3"></path><path d="M1163 2158.6L1162 2174.8L1388 2238.8Z" fill="#9cc3cb" stroke="#9cc3cb"></path><path d="M1162 2174.8L1290 2389.1L1388 2238.8Z" fill="#c9d5e2" stroke="#c9d5e2"></path><path d="M2559 2640.3L2636 2572.3L2519 2358.1Z" fill="#c9d5e2" stroke="#c9d5e2"></path><path d="M2757 2418.1L2912 2429.1L2867 2278.8Z" fill="#94c0c4" stroke="#94c0c4"></path><path d="M1141 1352.6L1425 1411.6L1280 1064.4Z" fill="#c9d5e2" stroke="#c9d5e2"></path><path d="M1329 1481.9L1057 1602.9L1242 1726.1Z" fill="#c9d5e2" stroke="#c9d5e2"></path><path d="M1242 1726.1L1057 1602.9L1234 1809.4Z" fill="#b7cedb" stroke="#b7cedb"></path><path d="M1163 2158.6L958 2041.6L1162 2174.8Z" fill="#9cc3cb" stroke="#9cc3cb"></path><path d="M2353 2663.3L2559 2640.3L2276 2485.1Z" fill="#94c0c4" stroke="#94c0c4"></path><path d="M1280 1064.4L1425 1411.6L1523 1296.6Z" fill="#c9d5e2" stroke="#c9d5e2"></path><path d="M806 1300.6L1057 1602.9L1133 1437.9Z" fill="#a5c7d1" stroke="#a5c7d1"></path><path d="M1133 1437.9L1057 1602.9L1329 1481.9Z" fill="#d1d9e5" stroke="#d1d9e5"></path><path d="M3212 1966.4L3046 1972.4L3185 2204.8Z" fill="#c0d1df" stroke="#c0d1df"></path><path d="M2972 2045.6L3046 1972.4L2968 2013.6Z" fill="#9cc3cb" stroke="#9cc3cb"></path><path d="M2968 2013.6L3046 1972.4L2828 1844.4Z" fill="#82b4aa" stroke="#82b4aa"></path><path d="M2797 1292.6L2863 1154.4L2787 1255.6Z" fill="#82b4aa" stroke="#82b4aa"></path><path d="M3046 1972.4L3068 1638.1L2828 1844.4Z" fill="#8dbcbc" stroke="#8dbcbc"></path><path d="M2990 1092.4L2863 1154.4L3124 1230.6Z" fill="#94c0c4" stroke="#94c0c4"></path><path d="M2787 1255.6L2863 1154.4L2605 1144.4Z" fill="#a5c7d1" stroke="#a5c7d1"></path><path d="M2605 1144.4L2729 992.2L2471 1079.4Z" fill="#c0d1df" stroke="#c0d1df"></path><path d="M2401 1031.2L2207 718.9L2218 1030.2Z" fill="#c0d1df" stroke="#c0d1df"></path><path d="M2863 1154.4L2729 992.2L2605 1144.4Z" fill="#9cc3cb" stroke="#9cc3cb"></path><path d="M1556 2824.5L1833 2813.5L1660 2537.3Z" fill="#aecad6" stroke="#aecad6"></path><path d="M2353 2663.3L2580 2876.5L2559 2640.3Z" fill="#94c0c4" stroke="#94c0c4"></path><path d="M1286 906.2L1280 1064.4L1565 968.2Z" fill="#c9d5e2" stroke="#c9d5e2"></path><path d="M1565 968.2L1280 1064.4L1625 1048.4Z" fill="#82b4aa" stroke="#82b4aa"></path><path d="M2985 2638.3L2757 2418.1L2953 2693.3Z" fill="#b7cedb" stroke="#b7cedb"></path><path d="M2985 2638.3L2912 2429.1L2757 2418.1Z" fill="#aecad6" stroke="#aecad6"></path><path d="M2867 2278.8L3054 2310.8L2972 2045.6Z" fill="#b7cedb" stroke="#b7cedb"></path><path d="M2360 667.9L2207 718.9L2401 1031.2Z" fill="#a5c7d1" stroke="#a5c7d1"></path><path d="M1567 638.7L1503 802.9L1815 843.9Z" fill="#aecad6" stroke="#aecad6"></path><path d="M1833 2813.5L2024 2861.5L2011 2573.3Z" fill="#87b8b3" stroke="#87b8b3"></path><path d="M1121 980.2L1195 1097.4L1280 1064.4Z" fill="#a5c7d1" stroke="#a5c7d1"></path><path d="M1280 1064.4L1195 1097.4L1141 1352.6Z" fill="#82b4aa" stroke="#82b4aa"></path><path d="M1141 1352.6L1052 1279.6L1133 1437.9Z" fill="#9cc3cb" stroke="#9cc3cb"></path><path d="M3208 1726.1L3130 1543.9L3068 1638.1Z" fill="#82b4aa" stroke="#82b4aa"></path><path d="M3068 1638.1L3130 1543.9L2829 1529.9Z" fill="#94c0c4" stroke="#94c0c4"></path><path d="M2912 2429.1L2999 2367.1L2867 2278.8Z" fill="#94c0c4" stroke="#94c0c4"></path><path d="M3046 1972.4L3208 1726.1L3068 1638.1Z" fill="#8dbcbc" stroke="#8dbcbc"></path><path d="M1211 2628.3L1438 2715.3L1506 2582.3Z" fill="#94c0c4" stroke="#94c0c4"></path><path d="M1506 2582.3L1556 2824.5L1660 2537.3Z" fill="#a5c7d1" stroke="#a5c7d1"></path><path d="M1833 2813.5L1807 2888.5L2024 2861.5Z" fill="#b7cedb" stroke="#b7cedb"></path><path d="M1211 2628.3L1506 2582.3L1290 2389.1Z" fill="#b7cedb" stroke="#b7cedb"></path><path d="M1195 1097.4L1052 1279.6L1141 1352.6Z" fill="#aecad6" stroke="#aecad6"></path><path d="M740 1625.1L930 1764.1L1057 1602.9Z" fill="#d1d9e5" stroke="#d1d9e5"></path><path d="M1057 1602.9L930 1764.1L1234 1809.4Z" fill="#8dbcbc" stroke="#8dbcbc"></path><path d="M1162 2174.8L1082 2412.1L1290 2389.1Z" fill="#82b4aa" stroke="#82b4aa"></path><path d="M930 1764.1L931 1839.4L1234 1809.4Z" fill="#b7cedb" stroke="#b7cedb"></path><path d="M931 1839.4L958 2041.6L1234 1809.4Z" fill="#9cc3cb" stroke="#9cc3cb"></path><path d="M1567 638.7L1815 843.9L1703 535.7Z" fill="#82b4aa" stroke="#82b4aa"></path><path d="M1815 843.9L1503 802.9L1651 975.2Z" fill="#a5c7d1" stroke="#a5c7d1"></path><path d="M1556 2824.5L1807 2888.5L1833 2813.5Z" fill="#82b4aa" stroke="#82b4aa"></path><path d="M2999 2367.1L3054 2310.8L2867 2278.8Z" fill="#c9d5e2" stroke="#c9d5e2"></path><path d="M2699 785.9L2488 734.9L2471 1079.4Z" fill="#94c0c4" stroke="#94c0c4"></path><path d="M2331 2943.8L2264 2900.5L2204 3200Z" fill="#b7cedb" stroke="#b7cedb"></path><path d="M2024 2861.5L2264 2900.5L2069 2561.3Z" fill="#94c0c4" stroke="#94c0c4"></path><path d="M2559 2640.3L2698 2881.5L2636 2572.3Z" fill="#aecad6" stroke="#aecad6"></path><path d="M2912 2429.1L2985 2638.3L2999 2367.1Z" fill="#94c0c4" stroke="#94c0c4"></path><path d="M1438 2715.3L1556 2824.5L1506 2582.3Z" fill="#c0d1df" stroke="#c0d1df"></path><path d="M904 2359.1L1082 2412.1L1162 2174.8Z" fill="#82b4aa" stroke="#82b4aa"></path><path d="M1438 2715.3L1420 2865.5L1556 2824.5Z" fill="#9cc3cb" stroke="#9cc3cb"></path><path d="M3212 1966.4L3208 1726.1L3046 1972.4Z" fill="#d1d9e5" stroke="#d1d9e5"></path><path d="M2488 734.9L2360 667.9L2401 1031.2Z" fill="#b7cedb" stroke="#b7cedb"></path><path d="M1703 535.7L1815 843.9L1899 832.9Z" fill="#c9d5e2" stroke="#c9d5e2"></path><path d="M1503 802.9L1286 906.2L1565 968.2Z" fill="#82b4aa" stroke="#82b4aa"></path><path d="M1195 1097.4L994 1039.4L1052 1279.6Z" fill="#c9d5e2" stroke="#c9d5e2"></path><path d="M2863 1154.4L2994 988.2L2729 992.2Z" fill="#c9d5e2" stroke="#c9d5e2"></path><path d="M2729 992.2L2699 785.9L2471 1079.4Z" fill="#aecad6" stroke="#aecad6"></path><path d="M3124 1230.6L2863 1154.4L2797 1292.6Z" fill="#94c0c4" stroke="#94c0c4"></path><path d="M3124 1230.6L2829 1529.9L3130 1543.9Z" fill="#d1d9e5" stroke="#d1d9e5"></path><path d="M3185 2204.8L3046 1972.4L2972 2045.6Z" fill="#c0d1df" stroke="#c0d1df"></path><path d="M2833 806.9L2699 785.9L2729 992.2Z" fill="#b7cedb" stroke="#b7cedb"></path><path d="M2488 734.9L2372 531.7L2360 667.9Z" fill="#87b8b3" stroke="#87b8b3"></path><path d="M1082 2412.1L1211 2628.3L1290 2389.1Z" fill="#9cc3cb" stroke="#9cc3cb"></path><path d="M2058 3080.8L2264 2900.5L2024 2861.5Z" fill="#94c0c4" stroke="#94c0c4"></path><path d="M2264 2900.5L2331 2943.8L2353 2663.3Z" fill="#aecad6" stroke="#aecad6"></path><path d="M931 1839.4L828 1997.6L958 2041.6Z" fill="#d1d9e5" stroke="#d1d9e5"></path><path d="M958 2041.6L862 2226.8L1162 2174.8Z" fill="#c9d5e2" stroke="#c9d5e2"></path><path d="M930 1764.1L858 1827.4L931 1839.4Z" fill="#87b8b3" stroke="#87b8b3"></path><path d="M740 1625.1L858 1827.4L930 1764.1Z" fill="#94c0c4" stroke="#94c0c4"></path><path d="M3308 1431.9L3124 1230.6L3130 1543.9Z" fill="#b7cedb" stroke="#b7cedb"></path><path d="M2990 1092.4L2994 988.2L2863 1154.4Z" fill="#b7cedb" stroke="#b7cedb"></path><path d="M3193 2471.1L3185 2204.8L3054 2310.8Z" fill="#d1d9e5" stroke="#d1d9e5"></path><path d="M3054 2310.8L3185 2204.8L2972 2045.6Z" fill="#aecad6" stroke="#aecad6"></path><path d="M2331 2943.8L2580 2876.5L2353 2663.3Z" fill="#9cc3cb" stroke="#9cc3cb"></path><path d="M2999 2367.1L3193 2471.1L3054 2310.8Z" fill="#c9d5e2" stroke="#c9d5e2"></path><path d="M1285 711.9L1121 980.2L1286 906.2Z" fill="#82b4aa" stroke="#82b4aa"></path><path d="M1286 906.2L1121 980.2L1280 1064.4Z" fill="#8dbcbc" stroke="#8dbcbc"></path><path d="M806 1300.6L740 1625.1L1057 1602.9Z" fill="#87b8b3" stroke="#87b8b3"></path><path d="M3236 967.2L2994 988.2L2990 1092.4Z" fill="#87b8b3" stroke="#87b8b3"></path><path d="M858 1827.4L828 1997.6L931 1839.4Z" fill="#82b4aa" stroke="#82b4aa"></path><path d="M1082 2412.1L907 2548.3L1211 2628.3Z" fill="#82b4aa" stroke="#82b4aa"></path><path d="M1922 495.7L1899 832.9L2207 718.9Z" fill="#94c0c4" stroke="#94c0c4"></path><path d="M1503 802.9L1285 711.9L1286 906.2Z" fill="#8dbcbc" stroke="#8dbcbc"></path><path d="M2936 869.2L2833 806.9L2729 992.2Z" fill="#aecad6" stroke="#aecad6"></path><path d="M2372 531.7L2143 515.7L2360 667.9Z" fill="#b7cedb" stroke="#b7cedb"></path><path d="M1211 2628.3L1420 2865.5L1438 2715.3Z" fill="#c9d5e2" stroke="#c9d5e2"></path><path d="M1556 2824.5L1766 3065.8L1807 2888.5Z" fill="#b7cedb" stroke="#b7cedb"></path><path d="M1807 2888.5L1991 3045.8L2024 2861.5Z" fill="#aecad6" stroke="#aecad6"></path><path d="M1766 3065.8L1991 3045.8L1807 2888.5Z" fill="#8dbcbc" stroke="#8dbcbc"></path><path d="M2712 3017.8L2698 2881.5L2580 2876.5Z" fill="#b7cedb" stroke="#b7cedb"></path><path d="M2953 2693.3L2757 2418.1L2636 2572.3Z" fill="#c0d1df" stroke="#c0d1df"></path><path d="M828 1997.6L862 2226.8L958 2041.6Z" fill="#c0d1df" stroke="#c0d1df"></path><path d="M2372 531.7L2488 734.9L2477 467.7Z" fill="#aecad6" stroke="#aecad6"></path><path d="M2360 667.9L2143 515.7L2207 718.9Z" fill="#d1d9e5" stroke="#d1d9e5"></path><path d="M2994 988.2L2936 869.2L2729 992.2Z" fill="#b7cedb" stroke="#b7cedb"></path><path d="M2993 779.9L2936 869.2L2994 988.2Z" fill="#a5c7d1" stroke="#a5c7d1"></path><path d="M2439 3056.8L2580 2876.5L2331 2943.8Z" fill="#b7cedb" stroke="#b7cedb"></path><path d="M2580 2876.5L2698 2881.5L2559 2640.3Z" fill="#c0d1df" stroke="#c0d1df"></path><path d="M2698 2881.5L2953 2693.3L2636 2572.3Z" fill="#8dbcbc" stroke="#8dbcbc"></path><path d="M862 2226.8L904 2359.1L1162 2174.8Z" fill="#c0d1df" stroke="#c0d1df"></path><path d="M1149 3108.8L1438 2961.8L1420 2865.5Z" fill="#aecad6" stroke="#aecad6"></path><path d="M2775 617.7L2488 734.9L2699 785.9Z" fill="#87b8b3" stroke="#87b8b3"></path><path d="M961 891.2L994 1039.4L1121 980.2Z" fill="#d1d9e5" stroke="#d1d9e5"></path><path d="M1121 980.2L994 1039.4L1195 1097.4Z" fill="#8dbcbc" stroke="#8dbcbc"></path><path d="M858 1827.4L631 1881.4L828 1997.6Z" fill="#87b8b3" stroke="#87b8b3"></path><path d="M1704 456.5L1922 495.7L1960 357.5Z" fill="#aecad6" stroke="#aecad6"></path><path d="M2143 515.7L1922 495.7L2207 718.9Z" fill="#c0d1df" stroke="#c0d1df"></path><path d="M1922 495.7L1703 535.7L1899 832.9Z" fill="#d1d9e5" stroke="#d1d9e5"></path><path d="M1567 638.7L1285 711.9L1503 802.9Z" fill="#9cc3cb" stroke="#9cc3cb"></path><path d="M1966 3200L2058 3080.8L1991 3045.8Z" fill="#82b4aa" stroke="#82b4aa"></path><path d="M1991 3045.8L2058 3080.8L2024 2861.5Z" fill="#aecad6" stroke="#aecad6"></path><path d="M3208 1726.1L3308 1431.9L3130 1543.9Z" fill="#b7cedb" stroke="#b7cedb"></path><path d="M3179 823.9L2993 779.9L2994 988.2Z" fill="#a5c7d1" stroke="#a5c7d1"></path><path d="M3451 1482.9L3308 1431.9L3208 1726.1Z" fill="#9cc3cb" stroke="#9cc3cb"></path><path d="M3363 1977.6L3208 1726.1L3212 1966.4Z" fill="#82b4aa" stroke="#82b4aa"></path><path d="M1451 3040.8L1766 3065.8L1556 2824.5Z" fill="#d1d9e5" stroke="#d1d9e5"></path><path d="M1232 656.9L1285 711.9L1307 548.7Z" fill="#8dbcbc" stroke="#8dbcbc"></path><path d="M806 1300.6L1133 1437.9L1052 1279.6Z" fill="#c9d5e2" stroke="#c9d5e2"></path><path d="M828 1997.6L766 2272.8L862 2226.8Z" fill="#b7cedb" stroke="#b7cedb"></path><path d="M3513 1996.6L3363 1977.6L3563 2133.6Z" fill="#9cc3cb" stroke="#9cc3cb"></path><path d="M3185 2204.8L3363 1977.6L3212 1966.4Z" fill="#b7cedb" stroke="#b7cedb"></path><path d="M1087 2811.5L1420 2865.5L1211 2628.3Z" fill="#a5c7d1" stroke="#a5c7d1"></path><path d="M1420 2865.5L1438 2961.8L1556 2824.5Z" fill="#c9d5e2" stroke="#c9d5e2"></path><path d="M2953 2693.3L2961 2754.5L2985 2638.3Z" fill="#8dbcbc" stroke="#8dbcbc"></path><path d="M2985 2638.3L3193 2471.1L2999 2367.1Z" fill="#a5c7d1" stroke="#a5c7d1"></path><path d="M2698 2881.5L2961 2754.5L2953 2693.3Z" fill="#8dbcbc" stroke="#8dbcbc"></path><path d="M2380 3200L2439 3056.8L2331 2943.8Z" fill="#c0d1df" stroke="#c0d1df"></path><path d="M2698 2881.5L3000 2920.5L2961 2754.5Z" fill="#9cc3cb" stroke="#9cc3cb"></path><path d="M3247 2610.3L3193 2471.1L2985 2638.3Z" fill="#c0d1df" stroke="#c0d1df"></path><path d="M788 1151.4L806 1300.6L1052 1279.6Z" fill="#b7cedb" stroke="#b7cedb"></path><path d="M2833 806.9L2775 617.7L2699 785.9Z" fill="#aecad6" stroke="#aecad6"></path><path d="M2993 779.9L2775 617.7L2833 806.9Z" fill="#a5c7d1" stroke="#a5c7d1"></path><path d="M2993 779.9L2833 806.9L2936 869.2Z" fill="#8dbcbc" stroke="#8dbcbc"></path><path d="M1922 495.7L1704 456.5L1703 535.7Z" fill="#aecad6" stroke="#aecad6"></path><path d="M1703 535.7L1704 456.5L1567 638.7Z" fill="#b7cedb" stroke="#b7cedb"></path><path d="M1960 357.5L1922 495.7L2096 346.5Z" fill="#8dbcbc" stroke="#8dbcbc"></path><path d="M862 2226.8L766 2272.8L904 2359.1Z" fill="#c0d1df" stroke="#c0d1df"></path><path d="M904 2359.1L907 2548.3L1082 2412.1Z" fill="#94c0c4" stroke="#94c0c4"></path><path d="M661 2293.8L766 2272.8L584 2134.6Z" fill="#d1d9e5" stroke="#d1d9e5"></path><path d="M3236 967.2L2990 1092.4L3124 1230.6Z" fill="#8dbcbc" stroke="#8dbcbc"></path><path d="M866 2560.3L907 2548.3L904 2359.1Z" fill="#c0d1df" stroke="#c0d1df"></path><path d="M2775 617.7L2477 467.7L2488 734.9Z" fill="#9cc3cb" stroke="#9cc3cb"></path><path d="M2372 531.7L2241 371.5L2143 515.7Z" fill="#d1d9e5" stroke="#d1d9e5"></path><path d="M1352 3200L1451 3040.8L1149 3108.8Z" fill="#aecad6" stroke="#aecad6"></path><path d="M1438 2961.8L1451 3040.8L1556 2824.5Z" fill="#94c0c4" stroke="#94c0c4"></path><path d="M1285 711.9L1232 656.9L1121 980.2Z" fill="#a5c7d1" stroke="#a5c7d1"></path><path d="M576 1142.4L694 1407.9L806 1300.6Z" fill="#8dbcbc" stroke="#8dbcbc"></path><path d="M1307 548.7L1285 711.9L1567 638.7Z" fill="#b7cedb" stroke="#b7cedb"></path><path d="M3451 1482.9L3358 1287.6L3308 1431.9Z" fill="#aecad6" stroke="#aecad6"></path><path d="M3308 1431.9L3358 1287.6L3124 1230.6Z" fill="#9cc3cb" stroke="#9cc3cb"></path><path d="M2439 3056.8L2712 3017.8L2580 2876.5Z" fill="#87b8b3" stroke="#87b8b3"></path><path d="M788 1151.4L1052 1279.6L994 1039.4Z" fill="#c9d5e2" stroke="#c9d5e2"></path><path d="M806 1300.6L694 1407.9L740 1625.1Z" fill="#d1d9e5" stroke="#d1d9e5"></path><path d="M740 1625.1L631 1881.4L858 1827.4Z" fill="#b7cedb" stroke="#b7cedb"></path><path d="M1232 656.9L961 891.2L1121 980.2Z" fill="#87b8b3" stroke="#87b8b3"></path><path d="M907 2548.3L1087 2811.5L1211 2628.3Z" fill="#a5c7d1" stroke="#a5c7d1"></path><path d="M829 939.2L788 1151.4L994 1039.4Z" fill="#94c0c4" stroke="#94c0c4"></path><path d="M704 2401.1L866 2560.3L904 2359.1Z" fill="#9cc3cb" stroke="#9cc3cb"></path><path d="M842 2738.5L975 2883.5L1087 2811.5Z" fill="#87b8b3" stroke="#87b8b3"></path><path d="M1651 3200L1966 3200L1766 3065.8Z" fill="#82b4aa" stroke="#82b4aa"></path><path d="M1766 3065.8L1966 3200L1991 3045.8Z" fill="#c0d1df" stroke="#c0d1df"></path><path d="M2058 3080.8L2204 3200L2264 2900.5Z" fill="#aecad6" stroke="#aecad6"></path><path d="M2439 3056.8L2618 3200L2712 3017.8Z" fill="#c0d1df" stroke="#c0d1df"></path><path d="M478 1772.1L631 1881.4L740 1625.1Z" fill="#d1d9e5" stroke="#d1d9e5"></path><path d="M1966 3200L2204 3200L2058 3080.8Z" fill="#c9d5e2" stroke="#c9d5e2"></path><path d="M2490 414.5L2241 371.5L2372 531.7Z" fill="#c9d5e2" stroke="#c9d5e2"></path><path d="M2096 346.5L1922 495.7L2143 515.7Z" fill="#d1d9e5" stroke="#d1d9e5"></path><path d="M3524 1641.1L3451 1482.9L3208 1726.1Z" fill="#94c0c4" stroke="#94c0c4"></path><path d="M2775 617.7L2490 414.5L2477 467.7Z" fill="#a5c7d1" stroke="#a5c7d1"></path><path d="M2477 467.7L2490 414.5L2372 531.7Z" fill="#9cc3cb" stroke="#9cc3cb"></path><path d="M2241 371.5L2096 346.5L2143 515.7Z" fill="#b7cedb" stroke="#b7cedb"></path><path d="M3348 1069.4L3236 967.2L3124 1230.6Z" fill="#a5c7d1" stroke="#a5c7d1"></path><path d="M3348 1069.4L3124 1230.6L3358 1287.6Z" fill="#9cc3cb" stroke="#9cc3cb"></path><path d="M1441 391.5L1567 638.7L1704 456.5Z" fill="#a5c7d1" stroke="#a5c7d1"></path><path d="M1441 391.5L1307 548.7L1567 638.7Z" fill="#d1d9e5" stroke="#d1d9e5"></path><path d="M863 733.9L829 939.2L961 891.2Z" fill="#c9d5e2" stroke="#c9d5e2"></path><path d="M3272 2909.5L3247 2610.3L2961 2754.5Z" fill="#94c0c4" stroke="#94c0c4"></path><path d="M2961 2754.5L3247 2610.3L2985 2638.3Z" fill="#94c0c4" stroke="#94c0c4"></path><path d="M3428 2330.8L3363 1977.6L3185 2204.8Z" fill="#aecad6" stroke="#aecad6"></path><path d="M2204 3200L2380 3200L2331 2943.8Z" fill="#94c0c4" stroke="#94c0c4"></path><path d="M1572 3200L1766 3065.8L1451 3040.8Z" fill="#9cc3cb" stroke="#9cc3cb"></path><path d="M1572 3200L1651 3200L1766 3065.8Z" fill="#a5c7d1" stroke="#a5c7d1"></path><path d="M3372 2447.1L3185 2204.8L3193 2471.1Z" fill="#c0d1df" stroke="#c0d1df"></path><path d="M3537 1848.4L3524 1641.1L3208 1726.1Z" fill="#c9d5e2" stroke="#c9d5e2"></path><path d="M3247 2610.3L3372 2447.1L3193 2471.1Z" fill="#9cc3cb" stroke="#9cc3cb"></path><path d="M3537 1848.4L3208 1726.1L3363 1977.6Z" fill="#b7cedb" stroke="#b7cedb"></path><path d="M3470 1163.4L3348 1069.4L3358 1287.6Z" fill="#c9d5e2" stroke="#c9d5e2"></path><path d="M3499 1313.6L3358 1287.6L3451 1482.9Z" fill="#94c0c4" stroke="#94c0c4"></path><path d="M2874 3048.8L3000 2920.5L2698 2881.5Z" fill="#9cc3cb" stroke="#9cc3cb"></path><path d="M2874 3048.8L2698 2881.5L2712 3017.8Z" fill="#8dbcbc" stroke="#8dbcbc"></path><path d="M3204 644.7L3179 823.9L3445 787.9Z" fill="#aecad6" stroke="#aecad6"></path><path d="M3236 967.2L3179 823.9L2994 988.2Z" fill="#9cc3cb" stroke="#9cc3cb"></path><path d="M2993 779.9L2881 537.7L2775 617.7Z" fill="#a5c7d1" stroke="#a5c7d1"></path><path d="M2775 617.7L2685 302.5L2490 414.5Z" fill="#82b4aa" stroke="#82b4aa"></path><path d="M3372 2447.1L3428 2330.8L3185 2204.8Z" fill="#aecad6" stroke="#aecad6"></path><path d="M584 2134.6L766 2272.8L828 1997.6Z" fill="#82b4aa" stroke="#82b4aa"></path><path d="M766 2272.8L704 2401.1L904 2359.1Z" fill="#aecad6" stroke="#aecad6"></path><path d="M661 2293.8L704 2401.1L766 2272.8Z" fill="#82b4aa" stroke="#82b4aa"></path><path d="M842 2738.5L1087 2811.5L907 2548.3Z" fill="#b7cedb" stroke="#b7cedb"></path><path d="M1062 544.7L961 891.2L1232 656.9Z" fill="#a5c7d1" stroke="#a5c7d1"></path><path d="M961 891.2L829 939.2L994 1039.4Z" fill="#87b8b3" stroke="#87b8b3"></path><path d="M430 1513.9L519 1601.9L694 1407.9Z" fill="#8dbcbc" stroke="#8dbcbc"></path><path d="M3513 1996.6L3537 1848.4L3363 1977.6Z" fill="#aecad6" stroke="#aecad6"></path><path d="M1352 3200L1572 3200L1451 3040.8Z" fill="#c0d1df" stroke="#c0d1df"></path><path d="M3079 512.7L2881 537.7L2993 779.9Z" fill="#a5c7d1" stroke="#a5c7d1"></path><path d="M2380 3200L2539 3200L2439 3056.8Z" fill="#a5c7d1" stroke="#a5c7d1"></path><path d="M2819 3200L2874 3048.8L2712 3017.8Z" fill="#a5c7d1" stroke="#a5c7d1"></path><path d="M367 1835.4L584 2134.6L631 1881.4Z" fill="#d1d9e5" stroke="#d1d9e5"></path><path d="M631 1881.4L584 2134.6L828 1997.6Z" fill="#9cc3cb" stroke="#9cc3cb"></path><path d="M394 2384.1L667 2510.1L704 2401.1Z" fill="#c9d5e2" stroke="#c9d5e2"></path><path d="M1465 229.2L1441 391.5L1704 456.5Z" fill="#87b8b3" stroke="#87b8b3"></path><path d="M1307 548.7L1062 544.7L1232 656.9Z" fill="#82b4aa" stroke="#82b4aa"></path><path d="M1941 186.2L1704 456.5L1960 357.5Z" fill="#9cc3cb" stroke="#9cc3cb"></path><path d="M3621 1421.9L3499 1313.6L3451 1482.9Z" fill="#94c0c4" stroke="#94c0c4"></path><path d="M2539 3200L2618 3200L2439 3056.8Z" fill="#a5c7d1" stroke="#a5c7d1"></path><path d="M1441 391.5L1328 438.5L1307 548.7Z" fill="#8dbcbc" stroke="#8dbcbc"></path><path d="M842 2738.5L907 2548.3L866 2560.3Z" fill="#87b8b3" stroke="#87b8b3"></path><path d="M1087 2811.5L1149 3108.8L1420 2865.5Z" fill="#9cc3cb" stroke="#9cc3cb"></path><path d="M975 2883.5L1036 2940.8L1087 2811.5Z" fill="#aecad6" stroke="#aecad6"></path><path d="M667 2510.1L842 2738.5L866 2560.3Z" fill="#82b4aa" stroke="#82b4aa"></path><path d="M667 2510.1L866 2560.3L704 2401.1Z" fill="#d1d9e5" stroke="#d1d9e5"></path><path d="M576 1142.4L806 1300.6L788 1151.4Z" fill="#82b4aa" stroke="#82b4aa"></path><path d="M694 1407.9L519 1601.9L740 1625.1Z" fill="#c9d5e2" stroke="#c9d5e2"></path><path d="M3499 1313.6L3470 1163.4L3358 1287.6Z" fill="#82b4aa" stroke="#82b4aa"></path><path d="M3445 787.9L3179 823.9L3236 967.2Z" fill="#87b8b3" stroke="#87b8b3"></path><path d="M3428 2330.8L3563 2133.6L3363 1977.6Z" fill="#c0d1df" stroke="#c0d1df"></path><path d="M3513 1996.6L3659 1824.4L3537 1848.4Z" fill="#d1d9e5" stroke="#d1d9e5"></path><path d="M3537 1848.4L3659 1824.4L3524 1641.1Z" fill="#d1d9e5" stroke="#d1d9e5"></path><path d="M3524 1641.1L3621 1421.9L3451 1482.9Z" fill="#a5c7d1" stroke="#a5c7d1"></path><path d="M3622 2355.1L3563 2133.6L3428 2330.8Z" fill="#9cc3cb" stroke="#9cc3cb"></path><path d="M2874 3048.8L3021 3006.8L3000 2920.5Z" fill="#c0d1df" stroke="#c0d1df"></path><path d="M3000 2920.5L3272 2909.5L2961 2754.5Z" fill="#c0d1df" stroke="#c0d1df"></path><path d="M3247 2610.3L3541 2539.3L3372 2447.1Z" fill="#94c0c4" stroke="#94c0c4"></path><path d="M3153 3200L3021 3006.8L2874 3048.8Z" fill="#87b8b3" stroke="#87b8b3"></path><path d="M564 2638.3L667 2510.1L394 2384.1Z" fill="#d1d9e5" stroke="#d1d9e5"></path><path d="M519 1601.9L478 1772.1L740 1625.1Z" fill="#d1d9e5" stroke="#d1d9e5"></path><path d="M394 2384.1L704 2401.1L661 2293.8Z" fill="#c9d5e2" stroke="#c9d5e2"></path><path d="M1149 3108.8L1451 3040.8L1438 2961.8Z" fill="#a5c7d1" stroke="#a5c7d1"></path><path d="M1328 438.5L1062 544.7L1307 548.7Z" fill="#82b4aa" stroke="#82b4aa"></path><path d="M1135 318.5L1062 544.7L1328 438.5Z" fill="#87b8b3" stroke="#87b8b3"></path><path d="M1062 544.7L863 733.9L961 891.2Z" fill="#9cc3cb" stroke="#9cc3cb"></path><path d="M622 1016.2L576 1142.4L788 1151.4Z" fill="#d1d9e5" stroke="#d1d9e5"></path><path d="M290 1598.9L457 1745.1L519 1601.9Z" fill="#c0d1df" stroke="#c0d1df"></path><path d="M519 1601.9L457 1745.1L478 1772.1Z" fill="#82b4aa" stroke="#82b4aa"></path><path d="M478 1772.1L367 1835.4L631 1881.4Z" fill="#a5c7d1" stroke="#a5c7d1"></path><path d="M2143 152.2L1941 186.2L2096 346.5Z" fill="#d1d9e5" stroke="#d1d9e5"></path><path d="M2096 346.5L1941 186.2L1960 357.5Z" fill="#d1d9e5" stroke="#d1d9e5"></path><path d="M1441 391.5L1321 258.2L1328 438.5Z" fill="#c9d5e2" stroke="#c9d5e2"></path><path d="M2143 152.2L2096 346.5L2241 371.5Z" fill="#c0d1df" stroke="#c0d1df"></path><path d="M2445 219.2L2241 371.5L2490 414.5Z" fill="#82b4aa" stroke="#82b4aa"></path><path d="M1158 3200L1149 3108.8L879 3200Z" fill="#c9d5e2" stroke="#c9d5e2"></path><path d="M1036 2940.8L1149 3108.8L1087 2811.5Z" fill="#b7cedb" stroke="#b7cedb"></path><path d="M1149 3108.8L1036 2940.8L879 3200Z" fill="#c9d5e2" stroke="#c9d5e2"></path><path d="M3840 1897.4L3659 1824.4L3513 1996.6Z" fill="#87b8b3" stroke="#87b8b3"></path><path d="M3499 1313.6L3736 1159.4L3470 1163.4Z" fill="#c9d5e2" stroke="#c9d5e2"></path><path d="M622 1016.2L788 1151.4L829 939.2Z" fill="#82b4aa" stroke="#82b4aa"></path><path d="M3684 1686.1L3621 1421.9L3524 1641.1Z" fill="#c0d1df" stroke="#c0d1df"></path><path d="M2618 3200L2819 3200L2712 3017.8Z" fill="#aecad6" stroke="#aecad6"></path><path d="M2960 289.5L2685 302.5L2881 537.7Z" fill="#8dbcbc" stroke="#8dbcbc"></path><path d="M2881 537.7L2685 302.5L2775 617.7Z" fill="#b7cedb" stroke="#b7cedb"></path><path d="M2685 302.5L2445 219.2L2490 414.5Z" fill="#9cc3cb" stroke="#9cc3cb"></path><path d="M1062 544.7L863 690.9L863 733.9Z" fill="#d1d9e5" stroke="#d1d9e5"></path><path d="M567 735.9L622 1016.2L829 939.2Z" fill="#c9d5e2" stroke="#c9d5e2"></path><path d="M576 1142.4L499 1334.6L694 1407.9Z" fill="#d1d9e5" stroke="#d1d9e5"></path><path d="M3486 916.2L3236 967.2L3348 1069.4Z" fill="#9cc3cb" stroke="#9cc3cb"></path><path d="M3179 823.9L3204 644.7L2993 779.9Z" fill="#c0d1df" stroke="#c0d1df"></path><path d="M3486 916.2L3348 1069.4L3470 1163.4Z" fill="#94c0c4" stroke="#94c0c4"></path><path d="M567 735.9L829 939.2L863 733.9Z" fill="#b7cedb" stroke="#b7cedb"></path><path d="M338 1156.4L353 1306.6L499 1334.6Z" fill="#d1d9e5" stroke="#d1d9e5"></path><path d="M2264 105.2L2143 152.2L2241 371.5Z" fill="#c0d1df" stroke="#c0d1df"></path><path d="M3204 644.7L3079 512.7L2993 779.9Z" fill="#9cc3cb" stroke="#9cc3cb"></path><path d="M3659 1824.4L3684 1686.1L3524 1641.1Z" fill="#c0d1df" stroke="#c0d1df"></path><path d="M499 1334.6L430 1513.9L694 1407.9Z" fill="#8dbcbc" stroke="#8dbcbc"></path><path d="M3361 2985.8L3272 2909.5L3333 3021.8Z" fill="#9cc3cb" stroke="#9cc3cb"></path><path d="M3021 3006.8L3272 2909.5L3000 2920.5Z" fill="#aecad6" stroke="#aecad6"></path><path d="M3372 2447.1L3541 2539.3L3428 2330.8Z" fill="#a5c7d1" stroke="#a5c7d1"></path><path d="M1823 106.2L1704 456.5L1941 186.2Z" fill="#aecad6" stroke="#aecad6"></path><path d="M1823 106.2L1465 229.2L1704 456.5Z" fill="#94c0c4" stroke="#94c0c4"></path><path d="M1062 544.7L924 538.7L863 690.9Z" fill="#c0d1df" stroke="#c0d1df"></path><path d="M3473 2763.5L3541 2539.3L3247 2610.3Z" fill="#c9d5e2" stroke="#c9d5e2"></path><path d="M3840 2113.6L3840 1897.4L3513 1996.6Z" fill="#d1d9e5" stroke="#d1d9e5"></path><path d="M3659 1824.4L3840 1701.1L3684 1686.1Z" fill="#c0d1df" stroke="#c0d1df"></path><path d="M3541 2539.3L3622 2355.1L3428 2330.8Z" fill="#aecad6" stroke="#aecad6"></path><path d="M1149 3108.8L1158 3200L1352 3200Z" fill="#82b4aa" stroke="#82b4aa"></path><path d="M879 3200L1036 2940.8L975 2883.5Z" fill="#82b4aa" stroke="#82b4aa"></path><path d="M879 3200L975 2883.5L692 3086.8Z" fill="#b7cedb" stroke="#b7cedb"></path><path d="M3637 1017.2L3486 916.2L3470 1163.4Z" fill="#c9d5e2" stroke="#c9d5e2"></path><path d="M3296 429.5L3014 347.5L3079 512.7Z" fill="#94c0c4" stroke="#94c0c4"></path><path d="M3622 2355.1L3676 2207.8L3563 2133.6Z" fill="#9cc3cb" stroke="#9cc3cb"></path><path d="M897 384.5L924 538.7L1062 544.7Z" fill="#b7cedb" stroke="#b7cedb"></path><path d="M863 690.9L666 617.7L863 733.9Z" fill="#a5c7d1" stroke="#a5c7d1"></path><path d="M290 1598.9L367 1835.4L457 1745.1Z" fill="#8dbcbc" stroke="#8dbcbc"></path><path d="M457 1745.1L367 1835.4L478 1772.1Z" fill="#b7cedb" stroke="#b7cedb"></path><path d="M1465 229.2L1321 258.2L1441 391.5Z" fill="#b7cedb" stroke="#b7cedb"></path><path d="M2445 219.2L2264 105.2L2241 371.5Z" fill="#94c0c4" stroke="#94c0c4"></path><path d="M1827 0L1823 106.2L1941 186.2Z" fill="#aecad6" stroke="#aecad6"></path><path d="M2177 0L2264 105.2L2396 0Z" fill="#82b4aa" stroke="#82b4aa"></path><path d="M2177 0L1941 186.2L2143 152.2Z" fill="#d1d9e5" stroke="#d1d9e5"></path><path d="M1465 229.2L1354 0L1321 258.2Z" fill="#94c0c4" stroke="#94c0c4"></path><path d="M3486 916.2L3445 787.9L3236 967.2Z" fill="#8dbcbc" stroke="#8dbcbc"></path><path d="M370 2230.8L661 2293.8L584 2134.6Z" fill="#a5c7d1" stroke="#a5c7d1"></path><path d="M667 2510.1L564 2638.3L842 2738.5Z" fill="#94c0c4" stroke="#94c0c4"></path><path d="M3272 2909.5L3473 2763.5L3247 2610.3Z" fill="#c0d1df" stroke="#c0d1df"></path><path d="M3541 2539.3L3668 2543.3L3622 2355.1Z" fill="#b7cedb" stroke="#b7cedb"></path><path d="M3840 2213.8L3840 2113.6L3676 2207.8Z" fill="#94c0c4" stroke="#94c0c4"></path><path d="M1321 258.2L1135 318.5L1328 438.5Z" fill="#c9d5e2" stroke="#c9d5e2"></path><path d="M3296 429.5L3079 512.7L3204 644.7Z" fill="#c9d5e2" stroke="#c9d5e2"></path><path d="M3079 512.7L3014 347.5L2881 537.7Z" fill="#c0d1df" stroke="#c0d1df"></path><path d="M2685 302.5L2757 119.2L2445 219.2Z" fill="#9cc3cb" stroke="#9cc3cb"></path><path d="M3621 1421.9L3731 1357.6L3499 1313.6Z" fill="#87b8b3" stroke="#87b8b3"></path><path d="M3486 916.2L3553 764.9L3445 787.9Z" fill="#d1d9e5" stroke="#d1d9e5"></path><path d="M3840 1442.9L3731 1357.6L3621 1421.9Z" fill="#82b4aa" stroke="#82b4aa"></path><path d="M3840 1442.9L3621 1421.9L3684 1686.1Z" fill="#d1d9e5" stroke="#d1d9e5"></path><path d="M329 2139.6L370 2230.8L584 2134.6Z" fill="#82b4aa" stroke="#82b4aa"></path><path d="M2971 191.2L2960 289.5L2982 196.2Z" fill="#a5c7d1" stroke="#a5c7d1"></path><path d="M3014 347.5L2960 289.5L2881 537.7Z" fill="#82b4aa" stroke="#82b4aa"></path><path d="M367 1835.4L329 2139.6L584 2134.6Z" fill="#82b4aa" stroke="#82b4aa"></path><path d="M3736 1159.4L3637 1017.2L3470 1163.4Z" fill="#b7cedb" stroke="#b7cedb"></path><path d="M203 2206.8L394 2384.1L370 2230.8Z" fill="#d1d9e5" stroke="#d1d9e5"></path><path d="M370 2230.8L394 2384.1L661 2293.8Z" fill="#8dbcbc" stroke="#8dbcbc"></path><path d="M338 1156.4L499 1334.6L576 1142.4Z" fill="#94c0c4" stroke="#94c0c4"></path><path d="M499 1334.6L353 1306.6L430 1513.9Z" fill="#c9d5e2" stroke="#c9d5e2"></path><path d="M430 1513.9L290 1598.9L519 1601.9Z" fill="#b7cedb" stroke="#b7cedb"></path><path d="M367 1835.4L252 1954.4L329 2139.6Z" fill="#b7cedb" stroke="#b7cedb"></path><path d="M441 938.2L576 1142.4L622 1016.2Z" fill="#a5c7d1" stroke="#a5c7d1"></path><path d="M353 1306.6L290 1598.9L430 1513.9Z" fill="#82b4aa" stroke="#82b4aa"></path><path d="M3333 3021.8L3272 2909.5L3021 3006.8Z" fill="#87b8b3" stroke="#87b8b3"></path><path d="M3272 2909.5L3361 2985.8L3473 2763.5Z" fill="#82b4aa" stroke="#82b4aa"></path><path d="M3153 3200L3333 3021.8L3021 3006.8Z" fill="#9cc3cb" stroke="#9cc3cb"></path><path d="M3473 2763.5L3668 2543.3L3541 2539.3Z" fill="#87b8b3" stroke="#87b8b3"></path><path d="M3840 1897.4L3840 1701.1L3659 1824.4Z" fill="#94c0c4" stroke="#94c0c4"></path><path d="M3612 2861.5L3668 2543.3L3473 2763.5Z" fill="#9cc3cb" stroke="#9cc3cb"></path><path d="M2396 0L2264 105.2L2445 219.2Z" fill="#c0d1df" stroke="#c0d1df"></path><path d="M2264 105.2L2177 0L2143 152.2Z" fill="#a5c7d1" stroke="#a5c7d1"></path><path d="M3513 1996.6L3563 2133.6L3840 2113.6Z" fill="#8dbcbc" stroke="#8dbcbc"></path><path d="M3731 1357.6L3736 1159.4L3499 1313.6Z" fill="#94c0c4" stroke="#94c0c4"></path><path d="M3840 2113.6L3563 2133.6L3676 2207.8Z" fill="#b7cedb" stroke="#b7cedb"></path><path d="M2819 3200L3153 3200L2874 3048.8Z" fill="#8dbcbc" stroke="#8dbcbc"></path><path d="M3840 1340.6L3736 1159.4L3731 1357.6Z" fill="#a5c7d1" stroke="#a5c7d1"></path><path d="M2177 0L1827 0L1941 186.2Z" fill="#a5c7d1" stroke="#a5c7d1"></path><path d="M1823 106.2L1701 0L1465 229.2Z" fill="#82b4aa" stroke="#82b4aa"></path><path d="M1321 258.2L1057 92.2L1135 318.5Z" fill="#94c0c4" stroke="#94c0c4"></path><path d="M2960 289.5L2757 119.2L2685 302.5Z" fill="#b7cedb" stroke="#b7cedb"></path><path d="M120 1768.1L252 1954.4L367 1835.4Z" fill="#c0d1df" stroke="#c0d1df"></path><path d="M329 2139.6L203 2206.8L370 2230.8Z" fill="#b7cedb" stroke="#b7cedb"></path><path d="M679 574.7L863 690.9L924 538.7Z" fill="#87b8b3" stroke="#87b8b3"></path><path d="M679 574.7L666 617.7L863 690.9Z" fill="#aecad6" stroke="#aecad6"></path><path d="M3637 1017.2L3553 764.9L3486 916.2Z" fill="#d1d9e5" stroke="#d1d9e5"></path><path d="M3503 581.7L3296 429.5L3204 644.7Z" fill="#a5c7d1" stroke="#a5c7d1"></path><path d="M2960 289.5L2971 191.2L2757 119.2Z" fill="#82b4aa" stroke="#82b4aa"></path><path d="M3840 820.9L3553 764.9L3637 1017.2Z" fill="#aecad6" stroke="#aecad6"></path><path d="M1135 318.5L897 384.5L1062 544.7Z" fill="#8dbcbc" stroke="#8dbcbc"></path><path d="M782 301.5L897 384.5L795 208.2Z" fill="#94c0c4" stroke="#94c0c4"></path><path d="M2517 0L2396 0L2445 219.2Z" fill="#82b4aa" stroke="#82b4aa"></path><path d="M666 617.7L567 735.9L863 733.9Z" fill="#94c0c4" stroke="#94c0c4"></path><path d="M1827 0L1701 0L1823 106.2Z" fill="#d1d9e5" stroke="#d1d9e5"></path><path d="M3840 2213.8L3676 2207.8L3622 2355.1Z" fill="#8dbcbc" stroke="#8dbcbc"></path><path d="M567 735.9L441 938.2L622 1016.2Z" fill="#b7cedb" stroke="#b7cedb"></path><path d="M3840 1701.1L3840 1442.9L3684 1686.1Z" fill="#8dbcbc" stroke="#8dbcbc"></path><path d="M441 938.2L338 1156.4L576 1142.4Z" fill="#c0d1df" stroke="#c0d1df"></path><path d="M353 1306.6L170 1281.6L290 1598.9Z" fill="#8dbcbc" stroke="#8dbcbc"></path><path d="M666 617.7L408 655.7L567 735.9Z" fill="#94c0c4" stroke="#94c0c4"></path><path d="M897 384.5L679 574.7L924 538.7Z" fill="#c0d1df" stroke="#c0d1df"></path><path d="M2982 196.2L2960 289.5L3014 347.5Z" fill="#d1d9e5" stroke="#d1d9e5"></path><path d="M511 2828.5L842 2738.5L564 2638.3Z" fill="#c9d5e2" stroke="#c9d5e2"></path><path d="M692 3086.8L975 2883.5L842 2738.5Z" fill="#aecad6" stroke="#aecad6"></path><path d="M3503 581.7L3204 644.7L3445 787.9Z" fill="#94c0c4" stroke="#94c0c4"></path><path d="M3840 2502.1L3840 2213.8L3622 2355.1Z" fill="#8dbcbc" stroke="#8dbcbc"></path><path d="M3285 140.2L2982 196.2L3014 347.5Z" fill="#82b4aa" stroke="#82b4aa"></path><path d="M3840 1442.9L3840 1340.6L3731 1357.6Z" fill="#a5c7d1" stroke="#a5c7d1"></path><path d="M3702 470.7L3503 581.7L3553 764.9Z" fill="#d1d9e5" stroke="#d1d9e5"></path><path d="M2717 0L2517 0L2757 119.2Z" fill="#87b8b3" stroke="#87b8b3"></path><path d="M2757 119.2L2517 0L2445 219.2Z" fill="#c0d1df" stroke="#c0d1df"></path><path d="M319 2565.3L511 2828.5L564 2638.3Z" fill="#9cc3cb" stroke="#9cc3cb"></path><path d="M319 2565.3L564 2638.3L394 2384.1Z" fill="#c0d1df" stroke="#c0d1df"></path><path d="M511 2828.5L581 2927.8L842 2738.5Z" fill="#aecad6" stroke="#aecad6"></path><path d="M3153 3200L3271 3200L3333 3021.8Z" fill="#a5c7d1" stroke="#a5c7d1"></path><path d="M3462 3200L3579 2987.8L3361 2985.8Z" fill="#a5c7d1" stroke="#a5c7d1"></path><path d="M3579 2987.8L3612 2861.5L3473 2763.5Z" fill="#c0d1df" stroke="#c0d1df"></path><path d="M1701 0L1482 0L1465 229.2Z" fill="#82b4aa" stroke="#82b4aa"></path><path d="M0 1887.4L189 2031.6L252 1954.4Z" fill="#c9d5e2" stroke="#c9d5e2"></path><path d="M252 1954.4L189 2031.6L329 2139.6Z" fill="#94c0c4" stroke="#94c0c4"></path><path d="M120 1768.1L367 1835.4L290 1598.9Z" fill="#a5c7d1" stroke="#a5c7d1"></path><path d="M668 3200L692 3086.8L600 3200Z" fill="#9cc3cb" stroke="#9cc3cb"></path><path d="M581 2927.8L692 3086.8L842 2738.5Z" fill="#87b8b3" stroke="#87b8b3"></path><path d="M3553 764.9L3503 581.7L3445 787.9Z" fill="#a5c7d1" stroke="#a5c7d1"></path><path d="M3079 0L2971 191.2L2982 196.2Z" fill="#8dbcbc" stroke="#8dbcbc"></path><path d="M3840 959.2L3637 1017.2L3736 1159.4Z" fill="#c9d5e2" stroke="#c9d5e2"></path><path d="M281 1018.2L266 1084.4L338 1156.4Z" fill="#82b4aa" stroke="#82b4aa"></path><path d="M567 735.9L435 814.9L441 938.2Z" fill="#c9d5e2" stroke="#c9d5e2"></path><path d="M408 655.7L435 814.9L567 735.9Z" fill="#9cc3cb" stroke="#9cc3cb"></path><path d="M3579 2987.8L3473 2763.5L3361 2985.8Z" fill="#94c0c4" stroke="#94c0c4"></path><path d="M3668 2543.3L3840 2502.1L3622 2355.1Z" fill="#a5c7d1" stroke="#a5c7d1"></path><path d="M189 2031.6L203 2206.8L329 2139.6Z" fill="#87b8b3" stroke="#87b8b3"></path><path d="M203 2528.1L319 2565.3L394 2384.1Z" fill="#c0d1df" stroke="#c0d1df"></path><path d="M511 2828.5L479 2903.5L581 2927.8Z" fill="#c0d1df" stroke="#c0d1df"></path><path d="M3840 1340.6L3840 1132.4L3736 1159.4Z" fill="#8dbcbc" stroke="#8dbcbc"></path><path d="M2800 0L2757 119.2L2971 191.2Z" fill="#82b4aa" stroke="#82b4aa"></path><path d="M2800 0L2717 0L2757 119.2Z" fill="#87b8b3" stroke="#87b8b3"></path><path d="M2800 0L2971 191.2L3079 0Z" fill="#c0d1df" stroke="#c0d1df"></path><path d="M1482 0L1354 0L1465 229.2Z" fill="#a5c7d1" stroke="#a5c7d1"></path><path d="M281 1018.2L338 1156.4L441 938.2Z" fill="#c9d5e2" stroke="#c9d5e2"></path><path d="M338 1156.4L170 1281.6L353 1306.6Z" fill="#8dbcbc" stroke="#8dbcbc"></path><path d="M3840 2663.3L3840 2502.1L3668 2543.3Z" fill="#b7cedb" stroke="#b7cedb"></path><path d="M435 814.9L281 1018.2L441 938.2Z" fill="#8dbcbc" stroke="#8dbcbc"></path><path d="M188 2780.5L479 2903.5L511 2828.5Z" fill="#87b8b3" stroke="#87b8b3"></path><path d="M0 1691.1L120 1768.1L290 1598.9Z" fill="#b7cedb" stroke="#b7cedb"></path><path d="M189 2031.6L0 2123.6L203 2206.8Z" fill="#9cc3cb" stroke="#9cc3cb"></path><path d="M3285 140.2L3014 347.5L3296 429.5Z" fill="#a5c7d1" stroke="#a5c7d1"></path><path d="M3462 3200L3361 2985.8L3333 3021.8Z" fill="#82b4aa" stroke="#82b4aa"></path><path d="M3840 2729.5L3840 2663.3L3668 2543.3Z" fill="#aecad6" stroke="#aecad6"></path><path d="M0 1414.6L170 1281.6L0 1174.4Z" fill="#aecad6" stroke="#aecad6"></path><path d="M266 1084.4L170 1281.6L338 1156.4Z" fill="#c0d1df" stroke="#c0d1df"></path><path d="M897 384.5L782 301.5L679 574.7Z" fill="#9cc3cb" stroke="#9cc3cb"></path><path d="M679 574.7L408 655.7L666 617.7Z" fill="#aecad6" stroke="#aecad6"></path><path d="M435 814.9L109 745.9L281 1018.2Z" fill="#aecad6" stroke="#aecad6"></path><path d="M922 113.2L897 384.5L1135 318.5Z" fill="#82b4aa" stroke="#82b4aa"></path><path d="M1196 0L1057 92.2L1321 258.2Z" fill="#c9d5e2" stroke="#c9d5e2"></path><path d="M3840 1132.4L3840 959.2L3736 1159.4Z" fill="#a5c7d1" stroke="#a5c7d1"></path><path d="M1354 0L1196 0L1321 258.2Z" fill="#d1d9e5" stroke="#d1d9e5"></path><path d="M600 3200L692 3086.8L581 2927.8Z" fill="#d1d9e5" stroke="#d1d9e5"></path><path d="M692 3086.8L668 3200L879 3200Z" fill="#c0d1df" stroke="#c0d1df"></path><path d="M3840 2729.5L3668 2543.3L3612 2861.5Z" fill="#82b4aa" stroke="#82b4aa"></path><path d="M203 2206.8L203 2528.1L394 2384.1Z" fill="#87b8b3" stroke="#87b8b3"></path><path d="M188 2780.5L429 2994.8L479 2903.5Z" fill="#c9d5e2" stroke="#c9d5e2"></path><path d="M479 2903.5L429 2994.8L581 2927.8Z" fill="#9cc3cb" stroke="#9cc3cb"></path><path d="M0 2350.1L203 2528.1L203 2206.8Z" fill="#c9d5e2" stroke="#c9d5e2"></path><path d="M446 382.5L408 655.7L679 574.7Z" fill="#82b4aa" stroke="#82b4aa"></path><path d="M0 1414.6L0 1476.9L170 1281.6Z" fill="#94c0c4" stroke="#94c0c4"></path><path d="M3271 3200L3462 3200L3333 3021.8Z" fill="#c9d5e2" stroke="#c9d5e2"></path><path d="M3840 2911.8L3840 2729.5L3612 2861.5Z" fill="#aecad6" stroke="#aecad6"></path><path d="M922 113.2L795 208.2L897 384.5Z" fill="#c0d1df" stroke="#c0d1df"></path><path d="M782 301.5L574 330.5L679 574.7Z" fill="#c9d5e2" stroke="#c9d5e2"></path><path d="M922 113.2L1135 318.5L1057 92.2Z" fill="#9cc3cb" stroke="#9cc3cb"></path><path d="M1053 0L922 113.2L1057 92.2Z" fill="#c0d1df" stroke="#c0d1df"></path><path d="M3840 2911.8L3612 2861.5L3579 2987.8Z" fill="#8dbcbc" stroke="#8dbcbc"></path><path d="M188 2780.5L511 2828.5L319 2565.3Z" fill="#d1d9e5" stroke="#d1d9e5"></path><path d="M429 2994.8L600 3200L581 2927.8Z" fill="#aecad6" stroke="#aecad6"></path><path d="M3840 959.2L3840 820.9L3637 1017.2Z" fill="#9cc3cb" stroke="#9cc3cb"></path><path d="M3459 156.2L3285 140.2L3296 429.5Z" fill="#c9d5e2" stroke="#c9d5e2"></path><path d="M0 2709.3L193 2633.3L203 2528.1Z" fill="#b7cedb" stroke="#b7cedb"></path><path d="M203 2528.1L193 2633.3L319 2565.3Z" fill="#a5c7d1" stroke="#a5c7d1"></path><path d="M1196 0L1053 0L1057 92.2Z" fill="#c0d1df" stroke="#c0d1df"></path><path d="M527 211.2L574 330.5L795 208.2Z" fill="#a5c7d1" stroke="#a5c7d1"></path><path d="M0 1476.9L0 1691.1L290 1598.9Z" fill="#94c0c4" stroke="#94c0c4"></path><path d="M120 1768.1L0 1887.4L252 1954.4Z" fill="#8dbcbc" stroke="#8dbcbc"></path><path d="M0 1476.9L290 1598.9L170 1281.6Z" fill="#aecad6" stroke="#aecad6"></path><path d="M0 1691.1L0 1887.4L120 1768.1Z" fill="#94c0c4" stroke="#94c0c4"></path><path d="M3535 279.5L3296 429.5L3503 581.7Z" fill="#82b4aa" stroke="#82b4aa"></path><path d="M3285 140.2L3079 0L2982 196.2Z" fill="#aecad6" stroke="#aecad6"></path><path d="M795 208.2L574 330.5L782 301.5Z" fill="#c0d1df" stroke="#c0d1df"></path><path d="M446 382.5L574 330.5L405 249.2Z" fill="#d1d9e5" stroke="#d1d9e5"></path><path d="M170 1281.6L266 1084.4L0 1174.4Z" fill="#9cc3cb" stroke="#9cc3cb"></path><path d="M0 1887.4L0 2123.6L189 2031.6Z" fill="#aecad6" stroke="#aecad6"></path><path d="M0 1174.4L266 1084.4L0 1032.2Z" fill="#c9d5e2" stroke="#c9d5e2"></path><path d="M266 1084.4L281 1018.2L0 1032.2Z" fill="#8dbcbc" stroke="#8dbcbc"></path><path d="M0 2123.6L0 2245.8L203 2206.8Z" fill="#9cc3cb" stroke="#9cc3cb"></path><path d="M3840 537.7L3702 470.7L3553 764.9Z" fill="#a5c7d1" stroke="#a5c7d1"></path><path d="M3702 470.7L3535 279.5L3503 581.7Z" fill="#a5c7d1" stroke="#a5c7d1"></path><path d="M3285 140.2L3343 0L3079 0Z" fill="#c0d1df" stroke="#c0d1df"></path><path d="M0 2709.3L188 2780.5L193 2633.3Z" fill="#b7cedb" stroke="#b7cedb"></path><path d="M193 2633.3L188 2780.5L319 2565.3Z" fill="#87b8b3" stroke="#87b8b3"></path><path d="M429 2994.8L303 3200L600 3200Z" fill="#9cc3cb" stroke="#9cc3cb"></path><path d="M3731 3200L3840 2911.8L3579 2987.8Z" fill="#c0d1df" stroke="#c0d1df"></path><path d="M0 2245.8L0 2350.1L203 2206.8Z" fill="#9cc3cb" stroke="#9cc3cb"></path><path d="M527 211.2L795 208.2L698 0Z" fill="#b7cedb" stroke="#b7cedb"></path><path d="M574 330.5L446 382.5L679 574.7Z" fill="#d1d9e5" stroke="#d1d9e5"></path><path d="M0 1032.2L281 1018.2L109 745.9Z" fill="#a5c7d1" stroke="#a5c7d1"></path><path d="M3506 0L3459 156.2L3590 0Z" fill="#82b4aa" stroke="#82b4aa"></path><path d="M3535 279.5L3459 156.2L3296 429.5Z" fill="#c9d5e2" stroke="#c9d5e2"></path><path d="M3840 820.9L3840 537.7L3553 764.9Z" fill="#87b8b3" stroke="#87b8b3"></path><path d="M3702 470.7L3689 341.5L3535 279.5Z" fill="#87b8b3" stroke="#87b8b3"></path><path d="M3840 277.5L3689 341.5L3702 470.7Z" fill="#d1d9e5" stroke="#d1d9e5"></path><path d="M109 745.9L435 814.9L408 655.7Z" fill="#8dbcbc" stroke="#8dbcbc"></path><path d="M698 0L795 208.2L922 113.2Z" fill="#87b8b3" stroke="#87b8b3"></path><path d="M446 382.5L219 562.7L408 655.7Z" fill="#82b4aa" stroke="#82b4aa"></path><path d="M3462 3200L3731 3200L3579 2987.8Z" fill="#aecad6" stroke="#aecad6"></path><path d="M3506 0L3343 0L3459 156.2Z" fill="#c9d5e2" stroke="#c9d5e2"></path><path d="M3459 156.2L3343 0L3285 140.2Z" fill="#b7cedb" stroke="#b7cedb"></path><path d="M216 398.5L219 562.7L446 382.5Z" fill="#8dbcbc" stroke="#8dbcbc"></path><path d="M219 562.7L109 745.9L408 655.7Z" fill="#b7cedb" stroke="#b7cedb"></path><path d="M0 2913.5L220 3024.8L188 2780.5Z" fill="#b7cedb" stroke="#b7cedb"></path><path d="M188 2780.5L220 3024.8L429 2994.8Z" fill="#c9d5e2" stroke="#c9d5e2"></path><path d="M1053 0L698 0L922 113.2Z" fill="#8dbcbc" stroke="#8dbcbc"></path><path d="M527 211.2L405 249.2L574 330.5Z" fill="#82b4aa" stroke="#82b4aa"></path><path d="M220 3024.8L303 3200L429 2994.8Z" fill="#c0d1df" stroke="#c0d1df"></path><path d="M376 0L405 249.2L527 211.2Z" fill="#d1d9e5" stroke="#d1d9e5"></path><path d="M0 571.7L0 805.9L109 745.9Z" fill="#d1d9e5" stroke="#d1d9e5"></path><path d="M0 2350.1L0 2709.3L203 2528.1Z" fill="#8dbcbc" stroke="#8dbcbc"></path><path d="M220 3024.8L231 3200L303 3200Z" fill="#82b4aa" stroke="#82b4aa"></path><path d="M0 571.7L109 745.9L219 562.7Z" fill="#d1d9e5" stroke="#d1d9e5"></path><path d="M109 745.9L0 805.9L0 1032.2Z" fill="#8dbcbc" stroke="#8dbcbc"></path><path d="M3731 3200L3840 3200L3840 2911.8Z" fill="#87b8b3" stroke="#87b8b3"></path><path d="M211 235.2L216 398.5L405 249.2Z" fill="#82b4aa" stroke="#82b4aa"></path><path d="M405 249.2L216 398.5L446 382.5Z" fill="#d1d9e5" stroke="#d1d9e5"></path><path d="M3703 154.2L3535 279.5L3689 341.5Z" fill="#8dbcbc" stroke="#8dbcbc"></path><path d="M3703 154.2L3459 156.2L3535 279.5Z" fill="#c9d5e2" stroke="#c9d5e2"></path><path d="M0 3099.8L231 3200L220 3024.8Z" fill="#87b8b3" stroke="#87b8b3"></path><path d="M3840 277.5L3703 154.2L3689 341.5Z" fill="#a5c7d1" stroke="#a5c7d1"></path><path d="M698 0L546 0L527 211.2Z" fill="#c0d1df" stroke="#c0d1df"></path><path d="M3840 537.7L3840 277.5L3702 470.7Z" fill="#a5c7d1" stroke="#a5c7d1"></path><path d="M0 2709.3L0 2913.5L188 2780.5Z" fill="#d1d9e5" stroke="#d1d9e5"></path><path d="M3840 0L3590 0L3703 154.2Z" fill="#9cc3cb" stroke="#9cc3cb"></path><path d="M3703 154.2L3590 0L3459 156.2Z" fill="#c0d1df" stroke="#c0d1df"></path><path d="M3840 277.5L3840 223.2L3703 154.2Z" fill="#b7cedb" stroke="#b7cedb"></path><path d="M216 398.5L0 571.7L219 562.7Z" fill="#8dbcbc" stroke="#8dbcbc"></path><path d="M0 378.5L0 571.7L216 398.5Z" fill="#aecad6" stroke="#aecad6"></path><path d="M376 0L211 235.2L405 249.2Z" fill="#aecad6" stroke="#aecad6"></path><path d="M0 2913.5L0 3099.8L220 3024.8Z" fill="#d1d9e5" stroke="#d1d9e5"></path><path d="M546 0L376 0L527 211.2Z" fill="#a5c7d1" stroke="#a5c7d1"></path><path d="M0 163.2L0 378.5L211 235.2Z" fill="#87b8b3" stroke="#87b8b3"></path><path d="M211 235.2L0 378.5L216 398.5Z" fill="#94c0c4" stroke="#94c0c4"></path><path d="M0 3099.8L0 3200L231 3200Z" fill="#82b4aa" stroke="#82b4aa"></path><path d="M3840 223.2L3840 0L3703 154.2Z" fill="#8dbcbc" stroke="#8dbcbc"></path><path d="M115 0L0 163.2L211 235.2Z" fill="#c9d5e2" stroke="#c9d5e2"></path><path d="M376 0L115 0L211 235.2Z" fill="#aecad6" stroke="#aecad6"></path><path d="M115 0L0 0L0 163.2Z" fill="#aecad6" stroke="#aecad6"></path></g></svg>