<svg id="visual" viewBox="0 0 1920 1080" width="1920" height="1080" xmlns="http://www.w3.org/2000/svg" xmlns:xlink="http://www.w3.org/1999/xlink" version="1.1"><g stroke-width="1" stroke-linejoin="bevel"><path d="M1001 586L1001 656L1056 637Z" fill="#cbd7e3" stroke="#cbd7e3"></path><path d="M1001 656L1044 674L1056 637Z" fill="#dfe7f3" stroke="#dfe7f3"></path><path d="M1001 586L937 628L1001 656Z" fill="#c2cfdb" stroke="#c2cfdb"></path><path d="M1165 627L1108 585L1056 637Z" fill="#eef3ff" stroke="#eef3ff"></path><path d="M1056 637L1108 585L1001 586Z" fill="#bdcbd7" stroke="#bdcbd7"></path><path d="M1108 585L1072 530L1001 586Z" fill="#bdcbd7" stroke="#bdcbd7"></path><path d="M1001 586L880 528L937 628Z" fill="#bdcbd7" stroke="#bdcbd7"></path><path d="M1108 585L1119 527L1072 530Z" fill="#cbd7e3" stroke="#cbd7e3"></path><path d="M1165 627L1147 553L1108 585Z" fill="#dfe7f3" stroke="#dfe7f3"></path><path d="M1108 585L1147 553L1119 527Z" fill="#c2cfdb" stroke="#c2cfdb"></path><path d="M1022 361L977 482L1072 530Z" fill="#dfe7f3" stroke="#dfe7f3"></path><path d="M1072 530L977 482L1001 586Z" fill="#e9effb" stroke="#e9effb"></path><path d="M1165 690L1165 627L1056 637Z" fill="#dae3ef" stroke="#dae3ef"></path><path d="M1044 674L1165 690L1056 637Z" fill="#dae3ef" stroke="#dae3ef"></path><path d="M977 482L880 528L1001 586Z" fill="#c7d3df" stroke="#c7d3df"></path><path d="M945 816L978 813L1001 656Z" fill="#eef3ff" stroke="#eef3ff"></path><path d="M1001 656L978 813L1044 674Z" fill="#d5dfeb" stroke="#d5dfeb"></path><path d="M1044 674L1153 791L1165 690Z" fill="#e9effb" stroke="#e9effb"></path><path d="M945 816L1001 656L937 628Z" fill="#eef3ff" stroke="#eef3ff"></path><path d="M912 816L945 816L937 628Z" fill="#c7d3df" stroke="#c7d3df"></path><path d="M1137 809L1153 791L1044 674Z" fill="#bdcbd7" stroke="#bdcbd7"></path><path d="M977 482L875 460L880 528Z" fill="#c2cfdb" stroke="#c2cfdb"></path><path d="M1141 837L1137 809L1001 886Z" fill="#d5dfeb" stroke="#d5dfeb"></path><path d="M978 813L1137 809L1044 674Z" fill="#e9effb" stroke="#e9effb"></path><path d="M819 771L912 816L937 628Z" fill="#cbd7e3" stroke="#cbd7e3"></path><path d="M1165 690L1258 645L1165 627Z" fill="#dae3ef" stroke="#dae3ef"></path><path d="M1165 627L1258 645L1147 553Z" fill="#e4ebf7" stroke="#e4ebf7"></path><path d="M1223 408L1022 361L1119 527Z" fill="#e9effb" stroke="#e9effb"></path><path d="M1205 795L1258 645L1165 690Z" fill="#dae3ef" stroke="#dae3ef"></path><path d="M1001 886L1137 809L978 813Z" fill="#eef3ff" stroke="#eef3ff"></path><path d="M1137 809L1141 837L1153 791Z" fill="#cbd7e3" stroke="#cbd7e3"></path><path d="M1153 791L1205 795L1165 690Z" fill="#c7d3df" stroke="#c7d3df"></path><path d="M1001 886L978 813L945 816Z" fill="#d0dbe7" stroke="#d0dbe7"></path><path d="M779 703L937 628L880 528Z" fill="#dfe7f3" stroke="#dfe7f3"></path><path d="M779 703L819 771L937 628Z" fill="#bdcbd7" stroke="#bdcbd7"></path><path d="M1141 837L1205 795L1153 791Z" fill="#cbd7e3" stroke="#cbd7e3"></path><path d="M703 600L779 703L880 528Z" fill="#d5dfeb" stroke="#d5dfeb"></path><path d="M1245 465L1119 527L1147 553Z" fill="#dae3ef" stroke="#dae3ef"></path><path d="M1119 527L1022 361L1072 530Z" fill="#dfe7f3" stroke="#dfe7f3"></path><path d="M977 482L931 357L875 460Z" fill="#cbd7e3" stroke="#cbd7e3"></path><path d="M893 906L945 816L912 816Z" fill="#dfe7f3" stroke="#dfe7f3"></path><path d="M893 906L1001 886L945 816Z" fill="#d5dfeb" stroke="#d5dfeb"></path><path d="M1258 645L1245 465L1147 553Z" fill="#c2cfdb" stroke="#c2cfdb"></path><path d="M779 703L779 759L819 771Z" fill="#d5dfeb" stroke="#d5dfeb"></path><path d="M819 771L893 906L912 816Z" fill="#dfe7f3" stroke="#dfe7f3"></path><path d="M1022 361L931 357L977 482Z" fill="#d5dfeb" stroke="#d5dfeb"></path><path d="M808 374L781 471L875 460Z" fill="#d5dfeb" stroke="#d5dfeb"></path><path d="M875 460L781 471L880 528Z" fill="#c2cfdb" stroke="#c2cfdb"></path><path d="M1245 465L1223 408L1119 527Z" fill="#bdcbd7" stroke="#bdcbd7"></path><path d="M751 839L893 906L819 771Z" fill="#e4ebf7" stroke="#e4ebf7"></path><path d="M703 600L716 702L779 703Z" fill="#d5dfeb" stroke="#d5dfeb"></path><path d="M779 703L716 702L779 759Z" fill="#eef3ff" stroke="#eef3ff"></path><path d="M779 759L751 839L819 771Z" fill="#dae3ef" stroke="#dae3ef"></path><path d="M781 471L703 600L880 528Z" fill="#d0dbe7" stroke="#d0dbe7"></path><path d="M937 948L1029 942L1001 886Z" fill="#c2cfdb" stroke="#c2cfdb"></path><path d="M1001 886L1029 942L1141 837Z" fill="#eef3ff" stroke="#eef3ff"></path><path d="M1141 837L1209 893L1205 795Z" fill="#cbd7e3" stroke="#cbd7e3"></path><path d="M847 311L863 340L883 249Z" fill="#c7d3df" stroke="#c7d3df"></path><path d="M931 357L863 340L875 460Z" fill="#d0dbe7" stroke="#d0dbe7"></path><path d="M863 340L808 374L875 460Z" fill="#e4ebf7" stroke="#e4ebf7"></path><path d="M781 471L707 468L703 600Z" fill="#c7d3df" stroke="#c7d3df"></path><path d="M1190 943L1209 893L1141 837Z" fill="#c2cfdb" stroke="#c2cfdb"></path><path d="M1205 795L1329 807L1258 645Z" fill="#c7d3df" stroke="#c7d3df"></path><path d="M716 702L727 780L779 759Z" fill="#e4ebf7" stroke="#e4ebf7"></path><path d="M1316 416L1223 408L1245 465Z" fill="#c7d3df" stroke="#c7d3df"></path><path d="M1316 416L1249 375L1223 408Z" fill="#e4ebf7" stroke="#e4ebf7"></path><path d="M1223 408L1087 273L1022 361Z" fill="#d5dfeb" stroke="#d5dfeb"></path><path d="M1022 361L883 249L931 357Z" fill="#cbd7e3" stroke="#cbd7e3"></path><path d="M934 984L937 948L893 906Z" fill="#cbd7e3" stroke="#cbd7e3"></path><path d="M893 906L937 948L1001 886Z" fill="#cbd7e3" stroke="#cbd7e3"></path><path d="M727 780L751 839L779 759Z" fill="#dae3ef" stroke="#dae3ef"></path><path d="M703 600L672 637L716 702Z" fill="#d0dbe7" stroke="#d0dbe7"></path><path d="M570 724L622 848L727 780Z" fill="#dfe7f3" stroke="#dfe7f3"></path><path d="M668 584L672 637L703 600Z" fill="#d5dfeb" stroke="#d5dfeb"></path><path d="M778 369L707 468L781 471Z" fill="#dfe7f3" stroke="#dfe7f3"></path><path d="M847 311L778 369L808 374Z" fill="#d0dbe7" stroke="#d0dbe7"></path><path d="M808 374L778 369L781 471Z" fill="#eef3ff" stroke="#eef3ff"></path><path d="M707 468L668 584L703 600Z" fill="#eef3ff" stroke="#eef3ff"></path><path d="M1182 281L1087 273L1223 408Z" fill="#bdcbd7" stroke="#bdcbd7"></path><path d="M883 249L863 340L931 357Z" fill="#cbd7e3" stroke="#cbd7e3"></path><path d="M863 340L847 311L808 374Z" fill="#e9effb" stroke="#e9effb"></path><path d="M1384 607L1319 429L1245 465Z" fill="#cbd7e3" stroke="#cbd7e3"></path><path d="M1384 607L1245 465L1258 645Z" fill="#eef3ff" stroke="#eef3ff"></path><path d="M1319 429L1316 416L1245 465Z" fill="#cbd7e3" stroke="#cbd7e3"></path><path d="M1249 375L1182 281L1223 408Z" fill="#dae3ef" stroke="#dae3ef"></path><path d="M1209 893L1329 807L1205 795Z" fill="#eef3ff" stroke="#eef3ff"></path><path d="M1150 971L1190 943L1141 837Z" fill="#c7d3df" stroke="#c7d3df"></path><path d="M1209 893L1346 867L1329 807Z" fill="#d5dfeb" stroke="#d5dfeb"></path><path d="M1150 971L1141 837L1029 942Z" fill="#d5dfeb" stroke="#d5dfeb"></path><path d="M1369 748L1384 607L1258 645Z" fill="#c7d3df" stroke="#c7d3df"></path><path d="M1319 429L1360 419L1316 416Z" fill="#d5dfeb" stroke="#d5dfeb"></path><path d="M1329 807L1369 748L1258 645Z" fill="#d0dbe7" stroke="#d0dbe7"></path><path d="M855 1080L934 984L893 906Z" fill="#c7d3df" stroke="#c7d3df"></path><path d="M937 948L934 984L1029 942Z" fill="#bdcbd7" stroke="#bdcbd7"></path><path d="M1081 1080L1150 971L1029 942Z" fill="#c2cfdb" stroke="#c2cfdb"></path><path d="M1333 186L1182 281L1249 375Z" fill="#dae3ef" stroke="#dae3ef"></path><path d="M1346 867L1351 803L1329 807Z" fill="#bdcbd7" stroke="#bdcbd7"></path><path d="M1329 807L1351 803L1369 748Z" fill="#c2cfdb" stroke="#c2cfdb"></path><path d="M707 468L641 571L668 584Z" fill="#d5dfeb" stroke="#d5dfeb"></path><path d="M668 584L641 571L672 637Z" fill="#bdcbd7" stroke="#bdcbd7"></path><path d="M622 848L701 880L727 780Z" fill="#dae3ef" stroke="#dae3ef"></path><path d="M727 780L701 880L751 839Z" fill="#dae3ef" stroke="#dae3ef"></path><path d="M1150 971L1231 947L1190 943Z" fill="#eef3ff" stroke="#eef3ff"></path><path d="M1190 943L1231 947L1209 893Z" fill="#c2cfdb" stroke="#c2cfdb"></path><path d="M1384 607L1360 419L1319 429Z" fill="#c2cfdb" stroke="#c2cfdb"></path><path d="M1316 416L1440 319L1249 375Z" fill="#e9effb" stroke="#e9effb"></path><path d="M895 201L883 249L1087 273Z" fill="#e9effb" stroke="#e9effb"></path><path d="M1087 273L883 249L1022 361Z" fill="#e4ebf7" stroke="#e4ebf7"></path><path d="M847 311L751 291L778 369Z" fill="#d0dbe7" stroke="#d0dbe7"></path><path d="M778 369L684 406L707 468Z" fill="#cbd7e3" stroke="#cbd7e3"></path><path d="M707 468L540 511L641 571Z" fill="#dfe7f3" stroke="#dfe7f3"></path><path d="M751 291L684 406L778 369Z" fill="#e4ebf7" stroke="#e4ebf7"></path><path d="M1484 873L1415 710L1369 748Z" fill="#bdcbd7" stroke="#bdcbd7"></path><path d="M1369 748L1415 710L1384 607Z" fill="#cbd7e3" stroke="#cbd7e3"></path><path d="M1384 607L1533 467L1360 419Z" fill="#d5dfeb" stroke="#d5dfeb"></path><path d="M1231 947L1346 867L1209 893Z" fill="#cbd7e3" stroke="#cbd7e3"></path><path d="M1351 803L1484 873L1369 748Z" fill="#cbd7e3" stroke="#cbd7e3"></path><path d="M727 780L716 702L570 724Z" fill="#cbd7e3" stroke="#cbd7e3"></path><path d="M751 839L734 925L893 906Z" fill="#d0dbe7" stroke="#d0dbe7"></path><path d="M701 880L734 925L751 839Z" fill="#cbd7e3" stroke="#cbd7e3"></path><path d="M883 249L751 291L847 311Z" fill="#e4ebf7" stroke="#e4ebf7"></path><path d="M1560 816L1442 674L1415 710Z" fill="#d5dfeb" stroke="#d5dfeb"></path><path d="M1415 710L1442 674L1384 607Z" fill="#dae3ef" stroke="#dae3ef"></path><path d="M890 193L895 201L917 128Z" fill="#d5dfeb" stroke="#d5dfeb"></path><path d="M883 249L744 181L751 291Z" fill="#dfe7f3" stroke="#dfe7f3"></path><path d="M977 142L895 201L1087 273Z" fill="#bdcbd7" stroke="#bdcbd7"></path><path d="M895 201L890 193L883 249Z" fill="#dae3ef" stroke="#dae3ef"></path><path d="M1483 626L1473 629L1442 674Z" fill="#c7d3df" stroke="#c7d3df"></path><path d="M1442 674L1473 629L1384 607Z" fill="#dfe7f3" stroke="#dfe7f3"></path><path d="M1333 186L1165 191L1182 281Z" fill="#e4ebf7" stroke="#e4ebf7"></path><path d="M1182 281L1165 191L1087 273Z" fill="#bdcbd7" stroke="#bdcbd7"></path><path d="M570 724L716 702L672 637Z" fill="#cbd7e3" stroke="#cbd7e3"></path><path d="M701 880L629 967L734 925Z" fill="#dfe7f3" stroke="#dfe7f3"></path><path d="M960 1080L997 1080L934 984Z" fill="#c7d3df" stroke="#c7d3df"></path><path d="M934 984L997 1080L1029 942Z" fill="#dae3ef" stroke="#dae3ef"></path><path d="M1150 971L1176 1080L1231 947Z" fill="#d0dbe7" stroke="#d0dbe7"></path><path d="M535 621L672 637L641 571Z" fill="#c2cfdb" stroke="#c2cfdb"></path><path d="M535 621L570 724L672 637Z" fill="#dfe7f3" stroke="#dfe7f3"></path><path d="M855 1080L960 1080L934 984Z" fill="#cbd7e3" stroke="#cbd7e3"></path><path d="M997 1080L1081 1080L1029 942Z" fill="#dfe7f3" stroke="#dfe7f3"></path><path d="M1366 1080L1412 895L1346 867Z" fill="#dfe7f3" stroke="#dfe7f3"></path><path d="M1558 616L1483 626L1442 674Z" fill="#dae3ef" stroke="#dae3ef"></path><path d="M1473 629L1483 626L1384 607Z" fill="#cbd7e3" stroke="#cbd7e3"></path><path d="M1165 191L1059 156L1087 273Z" fill="#d5dfeb" stroke="#d5dfeb"></path><path d="M1452 938L1412 895L1366 1080Z" fill="#d0dbe7" stroke="#d0dbe7"></path><path d="M1346 867L1412 895L1351 803Z" fill="#e9effb" stroke="#e9effb"></path><path d="M1059 156L977 142L1087 273Z" fill="#dfe7f3" stroke="#dfe7f3"></path><path d="M1081 1080L1166 1080L1150 971Z" fill="#eef3ff" stroke="#eef3ff"></path><path d="M540 511L707 468L534 460Z" fill="#d5dfeb" stroke="#d5dfeb"></path><path d="M540 511L535 621L641 571Z" fill="#dfe7f3" stroke="#dfe7f3"></path><path d="M1166 1080L1176 1080L1150 971Z" fill="#dae3ef" stroke="#dae3ef"></path><path d="M535 621L544 726L570 724Z" fill="#e9effb" stroke="#e9effb"></path><path d="M570 724L581 866L622 848Z" fill="#d0dbe7" stroke="#d0dbe7"></path><path d="M734 925L855 1080L893 906Z" fill="#d5dfeb" stroke="#d5dfeb"></path><path d="M661 1080L855 1080L734 925Z" fill="#e4ebf7" stroke="#e4ebf7"></path><path d="M534 460L707 468L684 406Z" fill="#e4ebf7" stroke="#e4ebf7"></path><path d="M544 726L581 866L570 724Z" fill="#bdcbd7" stroke="#bdcbd7"></path><path d="M622 848L629 967L701 880Z" fill="#dae3ef" stroke="#dae3ef"></path><path d="M907 68L917 128L977 142Z" fill="#dfe7f3" stroke="#dfe7f3"></path><path d="M977 142L917 128L895 201Z" fill="#dae3ef" stroke="#dae3ef"></path><path d="M890 193L744 181L883 249Z" fill="#dfe7f3" stroke="#dfe7f3"></path><path d="M1174 130L1128 121L1165 191Z" fill="#c2cfdb" stroke="#c2cfdb"></path><path d="M1165 191L1128 121L1059 156Z" fill="#cbd7e3" stroke="#cbd7e3"></path><path d="M1059 156L1055 0L977 142Z" fill="#c7d3df" stroke="#c7d3df"></path><path d="M582 334L684 406L608 297Z" fill="#d0dbe7" stroke="#d0dbe7"></path><path d="M582 334L534 460L684 406Z" fill="#d0dbe7" stroke="#d0dbe7"></path><path d="M442 577L442 635L535 621Z" fill="#dfe7f3" stroke="#dfe7f3"></path><path d="M1333 186L1174 130L1165 191Z" fill="#dae3ef" stroke="#dae3ef"></path><path d="M1533 467L1440 319L1360 419Z" fill="#c7d3df" stroke="#c7d3df"></path><path d="M1360 419L1440 319L1316 416Z" fill="#e9effb" stroke="#e9effb"></path><path d="M917 128L744 181L890 193Z" fill="#cbd7e3" stroke="#cbd7e3"></path><path d="M674 181L736 183L691 102Z" fill="#cbd7e3" stroke="#cbd7e3"></path><path d="M744 181L736 183L751 291Z" fill="#dae3ef" stroke="#dae3ef"></path><path d="M581 866L629 967L622 848Z" fill="#bdcbd7" stroke="#bdcbd7"></path><path d="M608 297L684 406L751 291Z" fill="#bdcbd7" stroke="#bdcbd7"></path><path d="M674 181L608 297L751 291Z" fill="#dae3ef" stroke="#dae3ef"></path><path d="M1452 938L1484 873L1412 895Z" fill="#d5dfeb" stroke="#d5dfeb"></path><path d="M1412 895L1484 873L1351 803Z" fill="#c2cfdb" stroke="#c2cfdb"></path><path d="M1558 616L1533 467L1483 626Z" fill="#c2cfdb" stroke="#c2cfdb"></path><path d="M1483 626L1533 467L1384 607Z" fill="#dfe7f3" stroke="#dfe7f3"></path><path d="M1366 1080L1346 867L1231 947Z" fill="#eef3ff" stroke="#eef3ff"></path><path d="M1420 236L1333 186L1249 375Z" fill="#c7d3df" stroke="#c7d3df"></path><path d="M442 635L498 747L544 726Z" fill="#e4ebf7" stroke="#e4ebf7"></path><path d="M544 726L498 747L581 866Z" fill="#dae3ef" stroke="#dae3ef"></path><path d="M581 866L597 987L629 967Z" fill="#dae3ef" stroke="#dae3ef"></path><path d="M442 635L544 726L535 621Z" fill="#dfe7f3" stroke="#dfe7f3"></path><path d="M442 577L540 511L443 462Z" fill="#cbd7e3" stroke="#cbd7e3"></path><path d="M608 297L597 288L582 334Z" fill="#dfe7f3" stroke="#dfe7f3"></path><path d="M674 181L597 288L608 297Z" fill="#bdcbd7" stroke="#bdcbd7"></path><path d="M1560 816L1558 616L1442 674Z" fill="#d0dbe7" stroke="#d0dbe7"></path><path d="M1302 0L1154 90L1174 130Z" fill="#cbd7e3" stroke="#cbd7e3"></path><path d="M1174 130L1154 90L1128 121Z" fill="#c2cfdb" stroke="#c2cfdb"></path><path d="M1128 121L1055 0L1059 156Z" fill="#e9effb" stroke="#e9effb"></path><path d="M1440 319L1420 236L1249 375Z" fill="#cbd7e3" stroke="#cbd7e3"></path><path d="M1543 237L1420 236L1440 319Z" fill="#cbd7e3" stroke="#cbd7e3"></path><path d="M431 939L597 987L581 866Z" fill="#e9effb" stroke="#e9effb"></path><path d="M629 967L661 1080L734 925Z" fill="#dae3ef" stroke="#dae3ef"></path><path d="M691 102L736 183L744 181Z" fill="#eef3ff" stroke="#eef3ff"></path><path d="M736 183L674 181L751 291Z" fill="#e4ebf7" stroke="#e4ebf7"></path><path d="M1055 0L907 68L977 142Z" fill="#c2cfdb" stroke="#c2cfdb"></path><path d="M917 128L907 68L744 181Z" fill="#e9effb" stroke="#e9effb"></path><path d="M1176 1080L1358 1083L1231 947Z" fill="#dfe7f3" stroke="#dfe7f3"></path><path d="M1166 1080L1358 1083L1176 1080Z" fill="#dae3ef" stroke="#dae3ef"></path><path d="M1081 1080L1358 1083L1166 1080Z" fill="#dfe7f3" stroke="#dfe7f3"></path><path d="M605 1089L1358 1083L1081 1080Z" fill="#bdcbd7" stroke="#bdcbd7"></path><path d="M605 1089L1081 1080L997 1080Z" fill="#e4ebf7" stroke="#e4ebf7"></path><path d="M605 1089L997 1080L960 1080Z" fill="#c7d3df" stroke="#c7d3df"></path><path d="M1640 880L1560 816L1484 873Z" fill="#dae3ef" stroke="#dae3ef"></path><path d="M1484 873L1560 816L1415 710Z" fill="#cbd7e3" stroke="#cbd7e3"></path><path d="M1612 801L1560 816L1640 880Z" fill="#c2cfdb" stroke="#c2cfdb"></path><path d="M1358 1083L1366 1080L1231 947Z" fill="#dae3ef" stroke="#dae3ef"></path><path d="M1545 356L1527 349L1533 467Z" fill="#c2cfdb" stroke="#c2cfdb"></path><path d="M1533 467L1527 349L1440 319Z" fill="#c7d3df" stroke="#c7d3df"></path><path d="M442 577L535 621L540 511Z" fill="#d0dbe7" stroke="#d0dbe7"></path><path d="M498 747L459 824L581 866Z" fill="#e4ebf7" stroke="#e4ebf7"></path><path d="M540 511L534 460L443 462Z" fill="#d5dfeb" stroke="#d5dfeb"></path><path d="M448 447L534 460L582 334Z" fill="#e4ebf7" stroke="#e4ebf7"></path><path d="M597 987L661 1080L629 967Z" fill="#d0dbe7" stroke="#d0dbe7"></path><path d="M855 1080L605 1089L960 1080Z" fill="#c7d3df" stroke="#c7d3df"></path><path d="M1543 237L1422 199L1420 236Z" fill="#d5dfeb" stroke="#d5dfeb"></path><path d="M1420 236L1422 199L1333 186Z" fill="#e4ebf7" stroke="#e4ebf7"></path><path d="M1333 186L1369 129L1174 130Z" fill="#c7d3df" stroke="#c7d3df"></path><path d="M1581 416L1545 356L1533 467Z" fill="#d0dbe7" stroke="#d0dbe7"></path><path d="M1527 349L1543 237L1440 319Z" fill="#cbd7e3" stroke="#cbd7e3"></path><path d="M404 684L459 824L498 747Z" fill="#e4ebf7" stroke="#e4ebf7"></path><path d="M597 987L605 1089L661 1080Z" fill="#e9effb" stroke="#e9effb"></path><path d="M459 824L471 857L581 866Z" fill="#bdcbd7" stroke="#bdcbd7"></path><path d="M1611 440L1581 416L1533 467Z" fill="#bdcbd7" stroke="#bdcbd7"></path><path d="M1611 440L1533 467L1655 475Z" fill="#c7d3df" stroke="#c7d3df"></path><path d="M506 271L448 447L582 334Z" fill="#cbd7e3" stroke="#cbd7e3"></path><path d="M506 271L582 334L597 288Z" fill="#e4ebf7" stroke="#e4ebf7"></path><path d="M448 447L443 462L534 460Z" fill="#d0dbe7" stroke="#d0dbe7"></path><path d="M1389 118L1369 129L1422 199Z" fill="#c7d3df" stroke="#c7d3df"></path><path d="M1422 199L1369 129L1333 186Z" fill="#e4ebf7" stroke="#e4ebf7"></path><path d="M1430 1080L1451 1055L1366 1080Z" fill="#dae3ef" stroke="#dae3ef"></path><path d="M1366 1080L1451 1055L1452 938Z" fill="#e9effb" stroke="#e9effb"></path><path d="M812 0L691 102L744 181Z" fill="#cbd7e3" stroke="#cbd7e3"></path><path d="M514 203L506 271L597 288Z" fill="#bdcbd7" stroke="#bdcbd7"></path><path d="M1358 1083L1430 1080L1366 1080Z" fill="#d5dfeb" stroke="#d5dfeb"></path><path d="M1590 310L1576 314L1625 364Z" fill="#dae3ef" stroke="#dae3ef"></path><path d="M1519 167L1389 118L1422 199Z" fill="#d5dfeb" stroke="#d5dfeb"></path><path d="M1655 475L1533 467L1558 616Z" fill="#eef3ff" stroke="#eef3ff"></path><path d="M360 602L404 684L442 635Z" fill="#e4ebf7" stroke="#e4ebf7"></path><path d="M442 635L404 684L498 747Z" fill="#dfe7f3" stroke="#dfe7f3"></path><path d="M361 924L431 939L350 903Z" fill="#e9effb" stroke="#e9effb"></path><path d="M360 602L442 635L442 577Z" fill="#eef3ff" stroke="#eef3ff"></path><path d="M1546 977L1484 873L1452 938Z" fill="#e4ebf7" stroke="#e4ebf7"></path><path d="M1560 816L1658 724L1558 616Z" fill="#c2cfdb" stroke="#c2cfdb"></path><path d="M572 178L597 288L674 181Z" fill="#d0dbe7" stroke="#d0dbe7"></path><path d="M353 468L442 577L443 462Z" fill="#d0dbe7" stroke="#d0dbe7"></path><path d="M1129 0L1055 0L1154 90Z" fill="#cbd7e3" stroke="#cbd7e3"></path><path d="M1154 90L1055 0L1128 121Z" fill="#e9effb" stroke="#e9effb"></path><path d="M907 68L812 0L744 181Z" fill="#d5dfeb" stroke="#d5dfeb"></path><path d="M1576 314L1527 349L1545 356Z" fill="#c7d3df" stroke="#c7d3df"></path><path d="M1151 0L1129 0L1154 90Z" fill="#c2cfdb" stroke="#c2cfdb"></path><path d="M496 1080L605 1089L597 987Z" fill="#e4ebf7" stroke="#e4ebf7"></path><path d="M661 1080L605 1089L855 1080Z" fill="#e9effb" stroke="#e9effb"></path><path d="M691 102L572 178L674 181Z" fill="#eef3ff" stroke="#eef3ff"></path><path d="M1151 0L1154 90L1302 0Z" fill="#dfe7f3" stroke="#dfe7f3"></path><path d="M1302 0L1174 130L1369 129Z" fill="#d5dfeb" stroke="#d5dfeb"></path><path d="M1576 314L1545 356L1625 364Z" fill="#eef3ff" stroke="#eef3ff"></path><path d="M1557 1047L1546 977L1451 1055Z" fill="#e9effb" stroke="#e9effb"></path><path d="M1451 1055L1546 977L1452 938Z" fill="#c2cfdb" stroke="#c2cfdb"></path><path d="M1658 724L1657 672L1558 616Z" fill="#e4ebf7" stroke="#e4ebf7"></path><path d="M1686 811L1658 724L1612 801Z" fill="#cbd7e3" stroke="#cbd7e3"></path><path d="M1612 801L1658 724L1560 816Z" fill="#c2cfdb" stroke="#c2cfdb"></path><path d="M1576 314L1543 237L1527 349Z" fill="#dfe7f3" stroke="#dfe7f3"></path><path d="M1625 364L1581 416L1611 440Z" fill="#d5dfeb" stroke="#d5dfeb"></path><path d="M1625 364L1545 356L1581 416Z" fill="#e4ebf7" stroke="#e4ebf7"></path><path d="M1576 314L1590 310L1543 237Z" fill="#dfe7f3" stroke="#dfe7f3"></path><path d="M1685 508L1655 475L1558 616Z" fill="#c7d3df" stroke="#c7d3df"></path><path d="M1685 508L1558 616L1657 672Z" fill="#eef3ff" stroke="#eef3ff"></path><path d="M1055 0L812 0L907 68Z" fill="#cbd7e3" stroke="#cbd7e3"></path><path d="M545 114L514 203L572 178Z" fill="#d5dfeb" stroke="#d5dfeb"></path><path d="M572 178L514 203L597 288Z" fill="#c2cfdb" stroke="#c2cfdb"></path><path d="M286 401L353 468L296 366Z" fill="#bdcbd7" stroke="#bdcbd7"></path><path d="M545 114L572 178L691 102Z" fill="#d5dfeb" stroke="#d5dfeb"></path><path d="M1655 475L1625 364L1611 440Z" fill="#e9effb" stroke="#e9effb"></path><path d="M1574 169L1519 167L1543 237Z" fill="#d0dbe7" stroke="#d0dbe7"></path><path d="M514 203L496 223L506 271Z" fill="#cbd7e3" stroke="#cbd7e3"></path><path d="M353 468L443 462L448 447Z" fill="#dae3ef" stroke="#dae3ef"></path><path d="M353 468L360 602L442 577Z" fill="#d5dfeb" stroke="#d5dfeb"></path><path d="M431 939L471 857L350 903Z" fill="#e4ebf7" stroke="#e4ebf7"></path><path d="M471 857L459 824L350 903Z" fill="#c7d3df" stroke="#c7d3df"></path><path d="M471 857L431 939L581 866Z" fill="#d5dfeb" stroke="#d5dfeb"></path><path d="M1546 977L1640 880L1484 873Z" fill="#d5dfeb" stroke="#d5dfeb"></path><path d="M1721 642L1685 508L1657 672Z" fill="#e4ebf7" stroke="#e4ebf7"></path><path d="M1655 475L1741 340L1625 364Z" fill="#cbd7e3" stroke="#cbd7e3"></path><path d="M1721 642L1657 672L1658 724Z" fill="#c7d3df" stroke="#c7d3df"></path><path d="M1574 169L1543 237L1653 185Z" fill="#bdcbd7" stroke="#bdcbd7"></path><path d="M1543 237L1519 167L1422 199Z" fill="#cbd7e3" stroke="#cbd7e3"></path><path d="M1309 0L1302 0L1369 129Z" fill="#e4ebf7" stroke="#e4ebf7"></path><path d="M1309 0L1369 129L1389 118Z" fill="#bdcbd7" stroke="#bdcbd7"></path><path d="M353 468L448 447L296 366Z" fill="#bdcbd7" stroke="#bdcbd7"></path><path d="M1398 0L1309 0L1389 118Z" fill="#cbd7e3" stroke="#cbd7e3"></path><path d="M1549 1080L1557 1047L1451 1055Z" fill="#d5dfeb" stroke="#d5dfeb"></path><path d="M1546 977L1600 987L1640 880Z" fill="#eef3ff" stroke="#eef3ff"></path><path d="M1557 1047L1600 987L1546 977Z" fill="#cbd7e3" stroke="#cbd7e3"></path><path d="M1829 997L1686 811L1640 880Z" fill="#c2cfdb" stroke="#c2cfdb"></path><path d="M1640 880L1686 811L1612 801Z" fill="#e4ebf7" stroke="#e4ebf7"></path><path d="M627 0L545 114L691 102Z" fill="#eef3ff" stroke="#eef3ff"></path><path d="M514 203L452 143L496 223Z" fill="#e9effb" stroke="#e9effb"></path><path d="M496 223L324 281L506 271Z" fill="#cbd7e3" stroke="#cbd7e3"></path><path d="M431 939L496 1080L597 987Z" fill="#dae3ef" stroke="#dae3ef"></path><path d="M1557 1047L1629 1082L1600 987Z" fill="#e4ebf7" stroke="#e4ebf7"></path><path d="M1430 1080L1549 1080L1451 1055Z" fill="#e9effb" stroke="#e9effb"></path><path d="M1358 1083L1549 1080L1430 1080Z" fill="#eef3ff" stroke="#eef3ff"></path><path d="M1780 667L1721 642L1789 729Z" fill="#dfe7f3" stroke="#dfe7f3"></path><path d="M812 0L683 0L691 102Z" fill="#dfe7f3" stroke="#dfe7f3"></path><path d="M431 939L482 1080L496 1080Z" fill="#eef3ff" stroke="#eef3ff"></path><path d="M496 1080L482 1080L605 1089Z" fill="#c2cfdb" stroke="#c2cfdb"></path><path d="M431 939L477 1080L482 1080Z" fill="#bdcbd7" stroke="#bdcbd7"></path><path d="M482 1080L477 1080L605 1089Z" fill="#bdcbd7" stroke="#bdcbd7"></path><path d="M1653 185L1543 237L1590 310Z" fill="#dae3ef" stroke="#dae3ef"></path><path d="M1445 0L1398 0L1389 118Z" fill="#dfe7f3" stroke="#dfe7f3"></path><path d="M1653 185L1590 310L1757 266Z" fill="#d0dbe7" stroke="#d0dbe7"></path><path d="M353 468L300 614L360 602Z" fill="#d0dbe7" stroke="#d0dbe7"></path><path d="M360 602L300 614L404 684Z" fill="#c2cfdb" stroke="#c2cfdb"></path><path d="M431 939L362 946L477 1080Z" fill="#eef3ff" stroke="#eef3ff"></path><path d="M683 0L655 0L691 102Z" fill="#c2cfdb" stroke="#c2cfdb"></path><path d="M1780 667L1741 559L1721 642Z" fill="#cbd7e3" stroke="#cbd7e3"></path><path d="M1721 642L1741 559L1685 508Z" fill="#e9effb" stroke="#e9effb"></path><path d="M1685 508L1741 340L1655 475Z" fill="#cbd7e3" stroke="#cbd7e3"></path><path d="M350 903L312 824L342 900Z" fill="#c7d3df" stroke="#c7d3df"></path><path d="M350 903L459 824L312 824Z" fill="#bdcbd7" stroke="#bdcbd7"></path><path d="M1445 0L1389 118L1519 167Z" fill="#c2cfdb" stroke="#c2cfdb"></path><path d="M312 824L459 824L404 684Z" fill="#e4ebf7" stroke="#e4ebf7"></path><path d="M350 903L342 900L361 924Z" fill="#d0dbe7" stroke="#d0dbe7"></path><path d="M361 924L362 946L431 939Z" fill="#dfe7f3" stroke="#dfe7f3"></path><path d="M342 900L362 946L361 924Z" fill="#dfe7f3" stroke="#dfe7f3"></path><path d="M655 0L627 0L691 102Z" fill="#c2cfdb" stroke="#c2cfdb"></path><path d="M218 683L312 824L404 684Z" fill="#d5dfeb" stroke="#d5dfeb"></path><path d="M534 10L452 143L545 114Z" fill="#d0dbe7" stroke="#d0dbe7"></path><path d="M545 114L452 143L514 203Z" fill="#e9effb" stroke="#e9effb"></path><path d="M353 468L233 575L300 614Z" fill="#eef3ff" stroke="#eef3ff"></path><path d="M1525 1L1445 0L1519 167Z" fill="#d5dfeb" stroke="#d5dfeb"></path><path d="M1789 729L1721 642L1658 724Z" fill="#dfe7f3" stroke="#dfe7f3"></path><path d="M1789 729L1658 724L1686 811Z" fill="#c2cfdb" stroke="#c2cfdb"></path><path d="M1713 1080L1640 880L1600 987Z" fill="#dae3ef" stroke="#dae3ef"></path><path d="M366 186L403 173L312 0Z" fill="#d5dfeb" stroke="#d5dfeb"></path><path d="M452 143L403 173L496 223Z" fill="#eef3ff" stroke="#eef3ff"></path><path d="M1358 1083L1629 1082L1549 1080Z" fill="#eef3ff" stroke="#eef3ff"></path><path d="M1549 1080L1629 1082L1557 1047Z" fill="#bdcbd7" stroke="#bdcbd7"></path><path d="M605 1089L1629 1082L1358 1083Z" fill="#d5dfeb" stroke="#d5dfeb"></path><path d="M296 366L448 447L324 281Z" fill="#cbd7e3" stroke="#cbd7e3"></path><path d="M300 614L218 683L404 684Z" fill="#d0dbe7" stroke="#d0dbe7"></path><path d="M324 281L448 447L506 271Z" fill="#e4ebf7" stroke="#e4ebf7"></path><path d="M1741 340L1590 310L1625 364Z" fill="#c2cfdb" stroke="#c2cfdb"></path><path d="M1541 0L1525 1L1519 167Z" fill="#c2cfdb" stroke="#c2cfdb"></path><path d="M1741 340L1685 508L1878 409Z" fill="#dfe7f3" stroke="#dfe7f3"></path><path d="M1761 325L1864 353L1822 306Z" fill="#d5dfeb" stroke="#d5dfeb"></path><path d="M366 186L324 281L496 223Z" fill="#c2cfdb" stroke="#c2cfdb"></path><path d="M1895 763L1789 729L1686 811Z" fill="#d5dfeb" stroke="#d5dfeb"></path><path d="M1761 325L1741 340L1864 353Z" fill="#cbd7e3" stroke="#cbd7e3"></path><path d="M627 0L534 10L545 114Z" fill="#d0dbe7" stroke="#d0dbe7"></path><path d="M409 0L403 173L452 143Z" fill="#dae3ef" stroke="#dae3ef"></path><path d="M403 173L366 186L496 223Z" fill="#d0dbe7" stroke="#d0dbe7"></path><path d="M209 572L233 575L143 479Z" fill="#bdcbd7" stroke="#bdcbd7"></path><path d="M286 401L233 575L353 468Z" fill="#dae3ef" stroke="#dae3ef"></path><path d="M324 281L298 301L296 366Z" fill="#d0dbe7" stroke="#d0dbe7"></path><path d="M296 366L233 354L286 401Z" fill="#c2cfdb" stroke="#c2cfdb"></path><path d="M304 278L298 301L324 281Z" fill="#dfe7f3" stroke="#dfe7f3"></path><path d="M366 186L304 278L324 281Z" fill="#c7d3df" stroke="#c7d3df"></path><path d="M1685 508L1741 559L1878 409Z" fill="#c7d3df" stroke="#c7d3df"></path><path d="M1741 340L1757 266L1590 310Z" fill="#c7d3df" stroke="#c7d3df"></path><path d="M1541 0L1574 169L1600 10Z" fill="#e9effb" stroke="#e9effb"></path><path d="M1541 0L1519 167L1574 169Z" fill="#c7d3df" stroke="#c7d3df"></path><path d="M233 575L218 683L300 614Z" fill="#dfe7f3" stroke="#dfe7f3"></path><path d="M312 824L247 861L342 900Z" fill="#c7d3df" stroke="#c7d3df"></path><path d="M342 900L247 861L362 946Z" fill="#c2cfdb" stroke="#c2cfdb"></path><path d="M226 788L247 861L312 824Z" fill="#eef3ff" stroke="#eef3ff"></path><path d="M362 946L319 1080L477 1080Z" fill="#e4ebf7" stroke="#e4ebf7"></path><path d="M1600 10L1574 169L1653 185Z" fill="#cbd7e3" stroke="#cbd7e3"></path><path d="M1525 1L1541 0L1445 0Z" fill="#c2cfdb" stroke="#c2cfdb"></path><path d="M218 683L226 788L312 824Z" fill="#bdcbd7" stroke="#bdcbd7"></path><path d="M147 550L209 572L143 479Z" fill="#dae3ef" stroke="#dae3ef"></path><path d="M233 575L209 572L218 683Z" fill="#c7d3df" stroke="#c7d3df"></path><path d="M136 804L147 839L226 788Z" fill="#c2cfdb" stroke="#c2cfdb"></path><path d="M233 354L296 366L298 301Z" fill="#eef3ff" stroke="#eef3ff"></path><path d="M1822 306L1757 266L1761 325Z" fill="#d0dbe7" stroke="#d0dbe7"></path><path d="M1761 325L1757 266L1741 340Z" fill="#dae3ef" stroke="#dae3ef"></path><path d="M142 310L298 301L304 278Z" fill="#dae3ef" stroke="#dae3ef"></path><path d="M142 310L233 354L298 301Z" fill="#c2cfdb" stroke="#c2cfdb"></path><path d="M1629 1082L1713 1080L1600 987Z" fill="#dae3ef" stroke="#dae3ef"></path><path d="M1757 266L1723 169L1653 185Z" fill="#c7d3df" stroke="#c7d3df"></path><path d="M286 1080L319 1080L362 946Z" fill="#bdcbd7" stroke="#bdcbd7"></path><path d="M477 1080L319 1080L605 1089Z" fill="#d5dfeb" stroke="#d5dfeb"></path><path d="M1735 76L1600 10L1653 185Z" fill="#eef3ff" stroke="#eef3ff"></path><path d="M1878 409L1741 559L1920 458Z" fill="#e9effb" stroke="#e9effb"></path><path d="M1757 266L1751 124L1723 169Z" fill="#eef3ff" stroke="#eef3ff"></path><path d="M118 1003L286 1080L247 861Z" fill="#d5dfeb" stroke="#d5dfeb"></path><path d="M247 861L286 1080L362 946Z" fill="#c7d3df" stroke="#c7d3df"></path><path d="M319 1080L286 1080L605 1089Z" fill="#e4ebf7" stroke="#e4ebf7"></path><path d="M627 0L409 0L534 10Z" fill="#cbd7e3" stroke="#cbd7e3"></path><path d="M534 10L409 0L452 143Z" fill="#d0dbe7" stroke="#d0dbe7"></path><path d="M366 186L264 173L304 278Z" fill="#dae3ef" stroke="#dae3ef"></path><path d="M143 479L233 575L286 401Z" fill="#d0dbe7" stroke="#d0dbe7"></path><path d="M209 572L111 593L218 683Z" fill="#c7d3df" stroke="#c7d3df"></path><path d="M226 788L147 839L247 861Z" fill="#d5dfeb" stroke="#d5dfeb"></path><path d="M312 0L264 173L366 186Z" fill="#bdcbd7" stroke="#bdcbd7"></path><path d="M233 354L143 479L286 401Z" fill="#dae3ef" stroke="#dae3ef"></path><path d="M1908 633L1741 559L1780 667Z" fill="#d0dbe7" stroke="#d0dbe7"></path><path d="M1908 633L1780 667L1789 729Z" fill="#d5dfeb" stroke="#d5dfeb"></path><path d="M1920 172L1751 124L1757 266Z" fill="#c7d3df" stroke="#c7d3df"></path><path d="M1723 169L1735 76L1653 185Z" fill="#e9effb" stroke="#e9effb"></path><path d="M1920 172L1757 266L1822 306Z" fill="#dae3ef" stroke="#dae3ef"></path><path d="M1878 409L1864 353L1741 340Z" fill="#dae3ef" stroke="#dae3ef"></path><path d="M1920 924L1895 763L1686 811Z" fill="#c7d3df" stroke="#c7d3df"></path><path d="M101 341L143 479L233 354Z" fill="#dae3ef" stroke="#dae3ef"></path><path d="M1895 763L1908 633L1789 729Z" fill="#e9effb" stroke="#e9effb"></path><path d="M1713 1080L1829 997L1640 880Z" fill="#cbd7e3" stroke="#cbd7e3"></path><path d="M1813 0L1735 76L1751 124Z" fill="#d5dfeb" stroke="#d5dfeb"></path><path d="M1751 124L1735 76L1723 169Z" fill="#bdcbd7" stroke="#bdcbd7"></path><path d="M136 804L218 683L68 778Z" fill="#dae3ef" stroke="#dae3ef"></path><path d="M136 804L226 788L218 683Z" fill="#c7d3df" stroke="#c7d3df"></path><path d="M1920 768L1920 628L1908 633Z" fill="#c7d3df" stroke="#c7d3df"></path><path d="M1908 633L1920 458L1741 559Z" fill="#eef3ff" stroke="#eef3ff"></path><path d="M111 593L209 572L147 550Z" fill="#bdcbd7" stroke="#bdcbd7"></path><path d="M136 804L136 816L147 839Z" fill="#cbd7e3" stroke="#cbd7e3"></path><path d="M0 477L119 517L143 479Z" fill="#bdcbd7" stroke="#bdcbd7"></path><path d="M143 479L119 517L147 550Z" fill="#d0dbe7" stroke="#d0dbe7"></path><path d="M136 804L68 778L136 816Z" fill="#c2cfdb" stroke="#c2cfdb"></path><path d="M119 517L111 593L147 550Z" fill="#c7d3df" stroke="#c7d3df"></path><path d="M1920 784L1920 768L1895 763Z" fill="#e9effb" stroke="#e9effb"></path><path d="M1895 763L1920 768L1908 633Z" fill="#c2cfdb" stroke="#c2cfdb"></path><path d="M1920 924L1920 784L1895 763Z" fill="#d5dfeb" stroke="#d5dfeb"></path><path d="M1878 409L1920 342L1864 353Z" fill="#dfe7f3" stroke="#dfe7f3"></path><path d="M1864 353L1920 297L1822 306Z" fill="#e4ebf7" stroke="#e4ebf7"></path><path d="M1920 628L1920 458L1908 633Z" fill="#eef3ff" stroke="#eef3ff"></path><path d="M1920 458L1920 408L1878 409Z" fill="#dae3ef" stroke="#dae3ef"></path><path d="M131 237L304 278L264 173Z" fill="#eef3ff" stroke="#eef3ff"></path><path d="M131 237L142 310L304 278Z" fill="#d5dfeb" stroke="#d5dfeb"></path><path d="M1889 1080L1901 952L1829 997Z" fill="#dfe7f3" stroke="#dfe7f3"></path><path d="M1829 997L1901 952L1686 811Z" fill="#e4ebf7" stroke="#e4ebf7"></path><path d="M409 0L312 0L403 173Z" fill="#d0dbe7" stroke="#d0dbe7"></path><path d="M1920 408L1920 342L1878 409Z" fill="#c7d3df" stroke="#c7d3df"></path><path d="M1901 952L1920 924L1686 811Z" fill="#cbd7e3" stroke="#cbd7e3"></path><path d="M1901 952L1920 928L1920 924Z" fill="#dfe7f3" stroke="#dfe7f3"></path><path d="M1920 342L1920 297L1864 353Z" fill="#e4ebf7" stroke="#e4ebf7"></path><path d="M142 310L101 341L233 354Z" fill="#dfe7f3" stroke="#dfe7f3"></path><path d="M0 555L0 650L111 593Z" fill="#dae3ef" stroke="#dae3ef"></path><path d="M131 237L101 341L142 310Z" fill="#eef3ff" stroke="#eef3ff"></path><path d="M0 650L68 778L111 593Z" fill="#e4ebf7" stroke="#e4ebf7"></path><path d="M111 593L68 778L218 683Z" fill="#e9effb" stroke="#e9effb"></path><path d="M136 816L0 904L147 839Z" fill="#dfe7f3" stroke="#dfe7f3"></path><path d="M93 952L118 1003L247 861Z" fill="#cbd7e3" stroke="#cbd7e3"></path><path d="M150 166L131 237L264 173Z" fill="#e4ebf7" stroke="#e4ebf7"></path><path d="M312 0L217 68L264 173Z" fill="#eef3ff" stroke="#eef3ff"></path><path d="M93 952L247 861L147 839Z" fill="#eef3ff" stroke="#eef3ff"></path><path d="M217 68L150 166L264 173Z" fill="#e4ebf7" stroke="#e4ebf7"></path><path d="M0 477L143 479L0 402Z" fill="#e9effb" stroke="#e9effb"></path><path d="M1713 1080L1889 1080L1829 997Z" fill="#eef3ff" stroke="#eef3ff"></path><path d="M1901 952L1920 1080L1920 928Z" fill="#dfe7f3" stroke="#dfe7f3"></path><path d="M1629 1082L1889 1080L1713 1080Z" fill="#d0dbe7" stroke="#d0dbe7"></path><path d="M0 904L93 952L147 839Z" fill="#c7d3df" stroke="#c7d3df"></path><path d="M312 0L234 0L217 68Z" fill="#d0dbe7" stroke="#d0dbe7"></path><path d="M217 68L134 23L150 166Z" fill="#e4ebf7" stroke="#e4ebf7"></path><path d="M1920 297L1920 172L1822 306Z" fill="#bdcbd7" stroke="#bdcbd7"></path><path d="M1920 89L1813 0L1751 124Z" fill="#c7d3df" stroke="#c7d3df"></path><path d="M1735 76L1813 0L1600 10Z" fill="#c7d3df" stroke="#c7d3df"></path><path d="M1600 10L1813 0L1541 0Z" fill="#c7d3df" stroke="#c7d3df"></path><path d="M1629 1082L1920 1080L1889 1080Z" fill="#e9effb" stroke="#e9effb"></path><path d="M1889 1080L1920 1080L1901 952Z" fill="#eef3ff" stroke="#eef3ff"></path><path d="M0 555L111 593L119 517Z" fill="#e9effb" stroke="#e9effb"></path><path d="M68 778L0 904L136 816Z" fill="#cbd7e3" stroke="#cbd7e3"></path><path d="M0 555L119 517L0 477Z" fill="#eef3ff" stroke="#eef3ff"></path><path d="M143 479L101 341L0 402Z" fill="#c2cfdb" stroke="#c2cfdb"></path><path d="M0 402L101 341L0 342Z" fill="#e4ebf7" stroke="#e4ebf7"></path><path d="M0 993L118 1003L93 952Z" fill="#e4ebf7" stroke="#e4ebf7"></path><path d="M0 993L88 1064L118 1003Z" fill="#bdcbd7" stroke="#bdcbd7"></path><path d="M118 1003L88 1064L286 1080Z" fill="#c2cfdb" stroke="#c2cfdb"></path><path d="M234 0L192 0L217 68Z" fill="#d5dfeb" stroke="#d5dfeb"></path><path d="M0 342L101 341L0 300Z" fill="#e9effb" stroke="#e9effb"></path><path d="M101 341L131 237L0 300Z" fill="#eef3ff" stroke="#eef3ff"></path><path d="M1920 172L1920 89L1751 124Z" fill="#eef3ff" stroke="#eef3ff"></path><path d="M192 0L168 0L217 68Z" fill="#bdcbd7" stroke="#bdcbd7"></path><path d="M0 300L131 237L0 200Z" fill="#e9effb" stroke="#e9effb"></path><path d="M0 650L0 904L68 778Z" fill="#e4ebf7" stroke="#e4ebf7"></path><path d="M0 904L0 915L93 952Z" fill="#cbd7e3" stroke="#cbd7e3"></path><path d="M1920 89L1882 0L1813 0Z" fill="#c7d3df" stroke="#c7d3df"></path><path d="M168 0L134 23L217 68Z" fill="#cbd7e3" stroke="#cbd7e3"></path><path d="M32 170L131 237L150 166Z" fill="#e4ebf7" stroke="#e4ebf7"></path><path d="M0 915L0 993L93 952Z" fill="#eef3ff" stroke="#eef3ff"></path><path d="M134 23L32 170L150 166Z" fill="#c2cfdb" stroke="#c2cfdb"></path><path d="M1920 89L1920 0L1882 0Z" fill="#d5dfeb" stroke="#d5dfeb"></path><path d="M0 162L0 200L32 170Z" fill="#c2cfdb" stroke="#c2cfdb"></path><path d="M32 170L0 200L131 237Z" fill="#e9effb" stroke="#e9effb"></path><path d="M0 993L0 1080L88 1064Z" fill="#e4ebf7" stroke="#e4ebf7"></path><path d="M88 1064L0 1080L286 1080Z" fill="#e9effb" stroke="#e9effb"></path><path d="M286 1080L0 1080L605 1089Z" fill="#cbd7e3" stroke="#cbd7e3"></path><path d="M0 0L0 162L32 170Z" fill="#c2cfdb" stroke="#c2cfdb"></path><path d="M168 0L0 0L134 23Z" fill="#d0dbe7" stroke="#d0dbe7"></path><path d="M134 23L0 0L32 170Z" fill="#e9effb" stroke="#e9effb"></path></g></svg>