<!--?xml version="1.0" encoding="utf-8"?-->
<!-- Generator: Adobe Illustrator 18.1.1, SVG Export Plug-In . SVG Version: 6.00 Build 0)  -->

<svg version="1.1" id="_x32_" xmlns="http://www.w3.org/2000/svg" xmlns:xlink="http://www.w3.org/1999/xlink" x="0px" y="0px" viewBox="0 0 512 512" style="width: 256px; height: 256px; opacity: 1;" xml:space="preserve">
<style type="text/css">
	.st0{fill:#4B4B4B;}
</style>
<g>
	<path class="st0" d="M268.012,201.704c18.67,0,33.804-15.139,33.804-33.808c0-18.669-15.134-33.8-33.804-33.8
		c-18.669,0-33.804,15.131-33.804,33.8C234.208,186.565,249.342,201.704,268.012,201.704z" style="fill: rgb(75, 75, 75);"></path>
	<path class="st0" d="M170.885,236.457c-13.57,3.57-14.281,28.57,7.142,27.138c19.966-1.33,98.554-12.861,98.554-12.861
		l21.032,35.454c26.865-0.684,49.83-2.169,69.438-4.162c-9.946-15.892-28.173-45.177-34.288-56.046
		c-8.57-15.239-25.236-22.378-43.8-18.093C275.166,211.073,175.004,235.373,170.885,236.457z" style="fill: rgb(75, 75, 75);"></path>
	<path class="st0" d="M76.62,351.657c2.035-0.307,3.981-0.699,5.865-1.192c3.642-0.939,6.839-2.162,10.22-3.454
		c1.004-0.377,2.015-0.77,3.062-1.154c2.992-1.108,6.65-2.384,11.142-3.408c6.288-1.446,13.177-2.146,21.058-2.146
		c8.865,0,16.215,0.846,23.193,2.654c4.696,1.224,8.469,2.662,12.119,4.054c0.992,0.384,1.972,0.762,2.957,1.123
		c2.562,0.946,5.4,1.931,8.835,2.723c4.984,1.138,10.358,1.669,16.916,1.669c7.196,0,13.073-0.654,18.489-2.061
		c3.645-0.939,6.842-2.162,10.222-3.454c1.004-0.384,2.02-0.77,3.062-1.154c2.992-1.108,6.654-2.384,11.142-3.408
		c2.396-0.554,4.882-0.992,7.47-1.331l-42.304-50.569c-80.734-4.238-129.677-16.692-150.65-31.908
		c-3.812-2.861-5.946,3.254-6.623,7.131C39.008,287.55,45.785,334.427,76.62,351.657z" style="fill: rgb(75, 75, 75);"></path>
	<path class="st0" d="M232.789,291.765l41.996,50.208c1.477,0.293,2.935,0.608,4.37,0.984c4.696,1.224,8.473,2.662,12.123,4.054
		c0.992,0.384,1.972,0.762,2.954,1.123c2.561,0.946,5.404,1.931,8.838,2.723c4.98,1.138,10.358,1.669,16.916,1.669
		c7.196,0,13.073-0.654,18.489-2.061c3.645-0.939,6.842-2.162,10.222-3.454c1.004-0.377,2.016-0.77,3.062-1.154
		c2.992-1.108,6.654-2.384,11.142-3.408c6.293-1.446,13.181-2.146,21.062-2.146c8.868,0,16.218,0.846,23.196,2.654
		c4.696,1.224,8.473,2.662,12.126,4.062c0.992,0.376,1.969,0.754,2.95,1.115c2.565,0.946,5.404,1.931,8.838,2.723
		c4.985,1.138,10.362,1.669,16.92,1.669c0.196,0,0.377-0.008,0.569-0.008c32.216-16.477,39.292-64.592,35.438-86.746
		c-0.673-3.877-2.807-9.992-6.619-7.131c-25.984,18.846-94.862,33.47-213.984,33.47
		C252.792,292.112,242.604,291.996,232.789,291.765z" style="fill: rgb(75, 75, 75);"></path>
	<path class="st0" d="M512,350.388c-8.238,0-14.565,0.792-19.858,2.008c-3.965,0.907-7.338,2.046-10.458,3.2
		c-4.692,1.746-8.769,3.477-13.819,4.785c-5.05,1.308-11.139,2.231-19.873,2.231c-7.762,0-13.439-0.731-18.15-1.808
		c-3.531-0.808-6.534-1.824-9.512-2.923c-4.45-1.646-8.88-3.538-14.554-5.015c-5.677-1.47-12.523-2.477-21.792-2.477
		c-8.242,0-14.561,0.792-19.854,2.008c-3.969,0.907-7.339,2.046-10.458,3.2c-4.692,1.746-8.773,3.477-13.819,4.785
		c-5.046,1.308-11.138,2.231-19.869,2.231c-7.762,0-13.439-0.731-18.146-1.808c-3.535-0.808-6.539-1.824-9.512-2.923
		c-4.454-1.646-8.881-3.538-14.554-5.015c-5.673-1.47-12.523-2.477-21.792-2.477c-8.238,0-14.561,0.792-19.854,2.008
		c-3.965,0.907-7.335,2.046-10.454,3.2c-4.692,1.746-8.773,3.477-13.819,4.785c-5.046,1.308-11.138,2.231-19.869,2.231
		c-7.762,0-13.439-0.731-18.146-1.808c-3.531-0.808-6.535-1.824-9.512-2.923c-4.45-1.646-8.877-3.538-14.554-5.015
		c-5.673-1.47-12.52-2.477-21.788-2.477c-8.235,0-14.558,0.792-19.85,2.008c-3.966,0.907-7.339,2.046-10.454,3.2
		c-4.688,1.746-8.769,3.477-13.815,4.785c-5.05,1.308-11.139,2.231-19.87,2.231c-7.757,0-13.438-0.731-18.146-1.808
		c-3.53-0.808-6.535-1.824-9.507-2.923c-4.454-1.646-8.881-3.538-14.554-5.015c-5.674-1.47-12.524-2.477-21.789-2.477v7.638
		c2.128,0,4.069,0.069,5.904,0.169C4.038,358.104,2.1,358.034,0,358.034v7.638c7.762,0.008,13.439,0.739,18.146,1.816
		c3.531,0.815,6.535,1.823,9.512,2.923c4.45,1.646,8.876,3.538,14.549,5.015c5.674,1.469,12.524,2.477,21.788,2.477
		c8.238,0,14.562-0.792,19.851-2.008c3.969-0.908,7.338-2.046,10.457-3.208c4.688-1.738,8.77-3.47,13.816-4.777
		c5.046-1.308,11.135-2.231,19.866-2.239c7.761,0.008,13.438,0.739,18.146,1.816c3.534,0.815,6.538,1.823,9.511,2.923
		c4.451,1.646,8.878,3.538,14.554,5.015c5.673,1.469,12.519,2.477,21.788,2.477c8.238,0,14.561-0.792,19.854-2.008
		c3.965-0.908,7.338-2.046,10.458-3.2c4.688-1.746,8.769-3.477,13.819-4.784c5.046-1.308,11.135-2.231,19.866-2.239
		c7.761,0.008,13.439,0.739,18.15,1.816c3.53,0.815,6.535,1.823,9.511,2.923c4.451,1.646,8.878,3.538,14.55,5.015
		c5.677,1.469,12.523,2.477,21.792,2.477c8.238,0,14.561-0.792,19.854-2.008c3.965-0.908,7.338-2.046,10.458-3.2
		c4.688-1.746,8.769-3.477,13.819-4.784c5.046-1.308,11.135-2.231,19.87-2.239c7.761,0.008,13.438,0.739,18.15,1.816
		c3.53,0.815,6.535,1.823,9.511,2.923c4.45,1.646,8.877,3.538,14.554,5.015c5.673,1.469,12.523,2.477,21.792,2.477
		c8.242,0,14.562-0.792,19.854-2.008c3.969-0.908,7.342-2.046,10.461-3.2c4.688-1.746,8.77-3.477,13.819-4.784
		c5.05-1.308,11.139-2.231,19.873-2.239v-7.638c-0.807,0-1.515,0.039-2.288,0.054c0.776-0.015,1.465-0.061,2.288-0.061V350.388z
		 M127.985,358.034c-0.808,0-1.516,0.039-2.288,0.054c0.777-0.015,1.465-0.061,2.288-0.061c2.127,0,4.065,0.069,5.904,0.169
		C132.024,358.104,130.085,358.034,127.985,358.034z M255.981,358.034c-0.808,0-1.512,0.039-2.284,0.054
		c0.777-0.015,1.465-0.061,2.284-0.061c2.127,0,4.065,0.069,5.904,0.169C260.02,358.104,258.081,358.034,255.981,358.034z
		 M383.985,358.034c-0.808,0-1.516,0.039-2.285,0.054c0.774-0.015,1.462-0.061,2.285-0.061c2.127,0,4.065,0.069,5.904,0.169
		C388.024,358.104,386.085,358.034,383.985,358.034z" style="fill: rgb(75, 75, 75);"></path>
	<path class="st0" d="M169.485,231.135c0.446-0.116,1.9-0.477,4.142-1.031l-19.262-22.924l-10.692,7.97l17.554,20.892
		C163.458,233.719,166.262,231.981,169.485,231.135z" style="fill: rgb(75, 75, 75);"></path>
	<path class="st0" d="M188.231,268.165l60.8,72.338c2.227-0.131,4.527-0.2,6.931-0.2c3.804,0,7.322,0.162,10.661,0.485
		l-62.588-74.493C198.193,267.027,192.808,267.673,188.231,268.165z" style="fill: rgb(75, 75, 75);"></path>
</g>
</svg>
