<!--?xml version="1.0" encoding="utf-8"?-->
<!-- Generator: Adobe Illustrator 18.1.1, SVG Export Plug-In . SVG Version: 6.00 Build 0)  -->

<svg version="1.1" id="_x32_" xmlns="http://www.w3.org/2000/svg" xmlns:xlink="http://www.w3.org/1999/xlink" x="0px" y="0px" viewBox="0 0 512 512" style="width: 256px; height: 256px; opacity: 1;" xml:space="preserve">
<style type="text/css">
	.st0{fill:#4B4B4B;}
</style>
<g>
	<path class="st0" d="M423.36,365.523c0,0,0.028-0.009,0.037-0.009c0-0.01,0.009-0.019,0.018-0.019L423.36,365.523z" style="fill: rgb(75, 75, 75);"></path>
	<path class="st0" d="M88.584,365.495c0.01,0,0.019,0.01,0.019,0.019c0.009,0,0.037,0.009,0.037,0.009L88.584,365.495z" style="fill: rgb(75, 75, 75);"></path>
	<path class="st0" d="M460.975,235.36c4.281-0.167,7.628-0.382,10.826-0.895c7.264-1.203,13.726-3.637,19.154-7.077
		c8.187-5.157,13.697-12.495,16.822-19.768c3.152-7.311,4.205-14.565,4.224-20.971c-0.019-4.868-0.597-9.222-1.725-13.213
		c-0.532-1.818-1.222-3.767-2.285-6.649c-3.665-9.856-11.273-28.543-20.942-48.404c-9.736-19.89-21.167-40.665-33.803-55.398
		c-4.671-5.399-10.471-9.819-17.064-13.082c-6.592-3.236-14.043-5.324-22.015-5.334c-8.383-0.047-17.521,2.546-25.121,8.513
		c-23.908,18.594-58.745,46.903-83.279,66.961c-3.086-3.479-6.611-6.714-10.872-9.353c-10.239-6.396-23.229-9.605-38.894-9.586
		c-15.945-0.019-29.121,3.301-39.443,9.922c-4.253,2.695-7.721,5.986-10.771,9.511c-23.321-19.461-58.046-48.172-82.841-67.455
		c-7.6-5.958-16.71-8.56-25.11-8.513c-7.973,0.01-15.424,2.098-22.016,5.334c-6.592,3.264-12.402,7.684-17.074,13.082
		c-7.264,8.439-13.996,18.79-20.374,29.876c-9.52,16.616-18.08,34.838-24.57,49.812c-3.236,7.478-5.95,14.136-7.982,19.358
		c-1.016,2.62-1.865,4.886-2.536,6.741c-0.681,1.902-1.156,3.264-1.558,4.663C0.597,177.426,0.009,181.79,0,186.648
		c0.028,8.504,1.855,18.686,8.15,28.179c3.142,4.708,7.459,9.128,12.896,12.56c5.418,3.44,11.889,5.874,19.134,7.077
		c3.208,0.522,6.555,0.718,10.835,0.895c4.243,0.158,9.241,0.224,14.874,0.224c26.174,0,66.401-1.492,98.916-3.04
		c-3.702,3.115-7.59,6.257-11.609,9.427c-24.114,19.032-53.234,38.884-78.634,55.371c-25.429,16.513-47.071,29.634-56.723,35.592
		l-0.018,0.01c-2.499,1.548-4.933,3.646-6.817,6.536c-1.892,2.854-3.039,6.537-3.012,10.053c0.01,4.96,1.986,9.064,4.391,11.936
		c2.406,2.834,5.306,4.792,8.859,6.023l-0.01,0.029l0.01,0.008c0.335,0.121,1.808,0.718,3.692,1.51
		c6.714,2.835,19.824,8.542,31.172,13.503c8.672,3.786,16.3,7.134,19.442,8.523c0.979,4.233,3.683,15.982,6.536,28.254
		c1.782,7.655,3.619,15.47,5.101,21.698c0.747,3.115,1.408,5.828,1.94,7.973c0.261,1.063,0.494,1.986,0.699,2.779l0.615,2.182
		c1.148,3.776,3.768,7.693,7.348,10.127c3.562,2.48,7.543,3.366,10.863,3.356c3.049-0.018,5.706-0.652,8.122-1.678
		c2.415-1.035,4.634-2.443,6.714-4.55l0.047-0.037C196.089,386.503,235.457,321.278,256,274.412
		c20.542,46.866,59.911,112.092,132.467,186.755c2.107,2.144,4.344,3.562,6.769,4.596c2.434,1.017,5.082,1.651,8.113,1.669
		c3.329,0.01,7.301-0.885,10.854-3.356c3.58-2.424,6.201-6.341,7.347-10.118l0.616-2.191c1.492-5.669,5.091-21.018,8.41-35.312
		c2.602-11.18,4.97-21.466,5.875-25.391c3.814-1.678,14.546-6.396,25.68-11.246c6.909-3.021,13.912-6.06,19.367-8.401
		c2.723-1.166,5.064-2.164,6.77-2.882l2.014-0.82l0.476-0.187l0.009-0.008l-0.018-0.047c3.571-1.213,6.471-3.18,8.868-6.005
		c2.405-2.872,4.373-6.975,4.391-11.936c0.029-3.506-1.118-7.19-3.012-10.053c-1.883-2.89-4.326-4.998-6.835-6.545
		c-12.85-7.926-47.173-28.702-83.12-53.096c-17.95-12.177-36.282-25.251-52.358-37.942c-4.019-3.16-7.897-6.312-11.599-9.418
		c32.487,1.585,72.825,3.105,99.075,3.123C451.771,235.594,456.751,235.528,460.975,235.36z M65.888,206.939
		c-5.4,0-10.1-0.066-13.792-0.205c-3.646-0.121-6.461-0.382-7.208-0.522c-3.916-0.662-6.555-1.79-8.514-3.021
		c-2.89-1.865-4.578-4.084-5.874-6.993c-1.268-2.863-1.865-6.425-1.855-9.548c-0.01-2.332,0.345-4.42,0.624-5.334
		c0.037-0.186,0.671-2.098,1.594-4.56c3.282-8.858,10.696-27.059,19.843-45.831c9.073-18.742,20.244-38.324,29.737-49.234
		c1.902-2.229,4.839-4.532,8.028-6.089c3.189-1.576,6.574-2.406,9.362-2.387c2.992,0.047,5.203,0.718,7.524,2.471
		c28.142,21.895,70.392,57.048,92.342,75.437c0,5.931,0,12.644,0,19.582c0,11.096,0,22.481,0,31.414
		C166.632,204.001,101.508,206.948,65.888,206.939z M113.938,429.659c-1.679-7.069-3.628-15.432-5.408-23.116
		c-2.966-12.775-5.455-23.629-5.464-23.657l-0.018-0.065c-1.819-7.739-7.18-14.145-14.444-17.306
		c-0.178-0.094-13.502-5.949-27.285-11.955c-4.475-1.958-8.96-3.906-13.092-5.688c16.897-10.443,42.288-26.333,68.733-44.283
		c18.323-12.429,37.122-25.828,53.971-39.126c11.917-9.418,22.762-18.715,31.975-27.778c0.494,0.792,0.858,1.604,1.454,2.387
		c2.704,3.506,6.509,6.574,11.05,8.541c4.551,1.996,9.698,2.938,15.312,2.938h4.196
		C218.654,291.942,183.817,355.126,113.938,429.659z M230.721,227.63c-3.087,0-4.979-0.513-6.108-1.007
		c-1.642-0.793-2.098-1.352-2.853-2.779c-0.681-1.389-1.156-3.758-1.138-6.304c0-4.98,0-26.528,0-46.837c0-7.106,0-14.006,0-20.03
		c0.792-1.045,1.473-2.164,1.958-3.403c2.182-5.474,4.886-9.157,9.437-12.132c4.569-2.928,11.833-5.371,23.983-5.389
		c11.936,0.01,19.153,2.378,23.722,5.231c4.541,2.901,7.226,6.453,9.436,11.722c0.541,1.333,1.333,2.499,2.219,3.59
		c0,6.117,0,13.157,0,20.412c0,20.309,0,41.858,0,46.837c0.037,3.46-0.858,6.322-1.847,7.478c-0.512,0.634-1.006,1.092-2.144,1.604
		c-1.128,0.494-3.021,1.007-6.107,1.007H230.721z M421.783,321.333c16.216,10.528,30.93,19.713,41.989,26.538
		c-16.813,7.274-40.04,17.484-40.376,17.643c-7.264,3.161-12.636,9.568-14.444,17.306l-0.019,0.065
		c-0.009,0.028-3.366,14.677-6.919,29.932c-1.352,5.79-2.723,11.665-3.944,16.85c-69.888-74.532-104.726-137.726-120.988-179.118
		h4.196c5.614,0,10.76-0.942,15.311-2.938c5.548-2.368,9.782-6.434,12.57-10.834c9.175,9.016,19.946,18.248,31.778,27.601
		C366.236,284.333,395.936,304.549,421.783,321.333z M314.298,202.015c0-8.924,0-20.253,0-31.312c0-7.329,0-14.463,0-20.626
		c24.076-19.722,65.534-53.561,92.342-74.392c2.321-1.763,4.512-2.424,7.525-2.471c2.788-0.019,6.173,0.812,9.362,2.387
		c3.189,1.557,6.126,3.86,8.02,6.089c5.381,6.21,11.451,15.32,17.232,25.428c8.718,15.18,16.952,32.655,23.124,46.931
		c3.096,7.143,5.688,13.502,7.582,18.369c0.941,2.434,1.716,4.495,2.284,6.071c0.559,1.538,0.942,2.714,0.96,2.806
		c0.271,0.923,0.634,3.021,0.626,5.353c0.028,4.205-1.092,9.007-3.32,12.252c-1.119,1.65-2.462,3.039-4.411,4.289
		c-1.958,1.231-4.598,2.36-8.523,3.021c-0.774,0.14-3.581,0.401-7.217,0.532c-3.684,0.139-8.364,0.214-13.726,0.205
		C410.435,206.957,345.078,203.936,314.298,202.015z" style="fill: rgb(75, 75, 75);"></path>
</g>
</svg>
