<!--?xml version="1.0" encoding="utf-8"?-->
<!-- Generator: Adobe Illustrator 15.1.0, SVG Export Plug-In . SVG Version: 6.00 Build 0)  -->

<svg version="1.1" id="_x32_" xmlns="http://www.w3.org/2000/svg" xmlns:xlink="http://www.w3.org/1999/xlink" x="0px" y="0px" width="512px" height="512px" viewBox="0 0 512 512" style="width: 256px; height: 256px; opacity: 1;" xml:space="preserve">
<style type="text/css">

	.st0{fill:#4B4B4B;}

</style>
<g>
	<rect x="220.047" class="st0" width="71.906" height="74.797" style="fill: rgb(75, 75, 75);"></rect>
	<path class="st0" d="M291.953,123.688c0-17.25,0-31.625,0-31.625h-71.906c0,0,0,14.375,0,31.625
		c0,37.391-51.766,51.766-51.766,117.938c0,31.625,0,245.922,0,245.922c0,13.516,10.938,24.453,24.438,24.453h126.563
		c13.5,0,24.438-10.938,24.438-24.453c0,0,0-214.297,0-245.922C343.719,175.453,291.953,161.078,291.953,123.688z M303.469,428.578
		h-94.938V238.75h94.938V428.578z" style="fill: rgb(75, 75, 75);"></path>
</g>
</svg>
