<!--?xml version="1.0" encoding="utf-8"?-->
<!-- Generator: Adobe Illustrator 18.1.1, SVG Export Plug-In . SVG Version: 6.00 Build 0)  -->

<svg version="1.1" id="_x32_" xmlns="http://www.w3.org/2000/svg" xmlns:xlink="http://www.w3.org/1999/xlink" x="0px" y="0px" viewBox="0 0 512 512" style="width: 256px; height: 256px; opacity: 1;" xml:space="preserve">
<style type="text/css">
	.st0{fill:#4B4B4B;}
</style>
<g>
	<path class="st0" d="M239.756,279.008v0.581c-35.39,0-53.814-15.022-56.208-35.386c-4.167-35.394,51.35-72.171,51.35-145.723
		c0-49.061-39.768-88.829-88.825-88.829c-45.203,0-83.15,33.793-88.188,77.476c-11.194,11.556-35.007,34.471-51.987,39.1
		c-21.208,5.782,18.304,20.469,62.292,19.299c16.193,29.894,42.466,34.55,21.671,90.343
		c-66.587,171.472,56.212,266.48,176.96,266.48C489.339,502.349,512,279.008,512,279.008H239.756z" style="fill: rgb(75, 75, 75);"></path>
</g>
</svg>
