<!--?xml version="1.0" encoding="utf-8"?-->
<!-- Generator: Adobe Illustrator 15.1.0, SVG Export Plug-In . SVG Version: 6.00 Build 0)  -->

<svg version="1.1" id="_x32_" xmlns="http://www.w3.org/2000/svg" xmlns:xlink="http://www.w3.org/1999/xlink" x="0px" y="0px" width="512px" height="512px" viewBox="0 0 512 512" style="width: 256px; height: 256px; opacity: 1;" xml:space="preserve">
<style type="text/css">

	.st0{fill:#4B4B4B;}

</style>
<g>
	<path class="st0" d="M499.47,223.234c-6.203-13.953-19.734-22.984-34.484-22.984l-1.75,0.031l-9.969,0.531
		c-22.391-31.125-53.781-55.125-91.578-69.859c-24.719-9.656-52.281-15.406-81.906-17.078c-6.156-0.344-12.438-0.5-18.703-0.5
		c-4.5,0-9.094,0.078-13.766,0.25c-13.797,0.531-27.422,2.313-40.516,5.281c-2.094,0.469-4.203,0.984-6.313,1.531
		c-26.234-15.375-51.859-18.844-69.625-18.844c-1.469,0-2.906,0.016-4.281,0.063c-3.641,0.094-6.281,0.25-8.281,0.469
		c-4.047,0.422-7.563,1.5-10.563,3.063c-6.188,2.641-11.5,7.094-15.219,12.906c-5.469,8.688-6.75,19.063-3.641,28.625l11.688,35.781
		c-2.328,2.828-4.516,5.688-6.563,8.563c-9.313,13.078-15.781,25.125-21.469,35.75c-7.719,14.375-12.719,23.297-18.25,25.5
		l-0.469,0.172l-1.406,0.547l-3.109,1.188c-13.75,5.156-45.953,17.234-39.25,50.688l1.469,7.422
		c5.703,29.031,9.5,47.328,12.047,54.984l1.469,4.5c5.125,15.578,8.313,23.531,24.766,34.125c7.234,4.641,16.031,6.281,25.344,8.016
		c2.766,0.516,6.813,1.266,8.625,1.781c1.766,0.875,3.641,1.547,5.578,2c6.547,1.516,11.859,2.297,16.125,2.906
		c2.766,0.406,6.203,0.906,7.141,1.297c0.469,0.328,4,3.203,13.25,19.906l0.484,0.828c5.656,9.344,11.766,24.5,13.781,29.484
		c1.063,2.641,2.016,5.063,2.844,7.141c1.844,4.688,2.703,6.844,3.625,8.719C154.626,504,168.876,512,189.063,512h28.313
		c18.188,0,36.531-13.484,36.531-43.625v-5.656v-4.328h50.047v4.328v5.656c0,30.141,18,43.625,35.844,43.625h26.563
		c19.906,0,33.844-8.219,41.438-24.422c0.938-2,1.797-4.297,3.656-9.313c0.594-1.625,1.281-3.453,2.016-5.406
		c11.75-23.266,23.109-41.328,35.641-56.797c26-30.563,39.75-68.063,39.75-108.469c0-10.844-1.125-21.906-3.344-33.047
		c1.719-2.125,3.703-4.484,6-7.031C502.954,254.844,506.001,237.906,499.47,223.234z M472.829,250.578
		c-7.516,8.297-12.313,15.094-14.516,18.391c3.578,13.266,5.313,26.344,5.313,38.625c0,37.094-13.25,68.141-33.906,92.344
		c-16.531,20.328-29.125,42.328-39.391,62.781l0,0c-2.641,6.969-4.594,12.469-5.375,14.156c-2.641,5.641-6.641,9.906-18.594,9.906
		c-11.938,0-18.594,0-26.563,0c-7.953,0-10.625-8.5-10.625-18.406c0-1.531,0-3.453,0-5.656v-29.563H228.688v29.563
		c0,2.203,0,4.125,0,5.656c0,9.906-2.844,18.406-11.313,18.406c-8.5,0-15.594,0-28.313,0c-12.75,0-17-4.266-19.828-9.906
		c-0.828-1.688-2.891-7.188-5.719-14.156c-4.078-10.141-9.75-23.484-15.594-33.109c-21.391-38.578-25.594-30.172-52.922-36.453
		v-0.031c-6.078-3.484-25.641-4.609-31.531-8.406c-10.719-6.891-10.281-8.344-15.969-25.328c-3-9.063-10.219-46.953-12.719-59.438
		c-2.703-13.516,12.703-18.016,26.859-23.438l1.938-0.75c22.563-8.953,27.813-37.563,50.969-70.063
		c4.141-5.813,9.031-11.578,14.547-17.141l-16.219-49.641c-0.797-2.422-0.469-5.078,0.891-7.234
		c1.391-2.172,3.656-3.609,6.219-3.906c0,0-3.531-0.594,7.375-0.906c1.125-0.031,2.297-0.063,3.5-0.063
		c16.797,0,41.375,3.766,65.578,21.063c5.141-1.641,10.453-3.125,15.969-4.375c11.25-2.563,23.203-4.188,35.859-4.672
		c4.344-0.156,8.609-0.234,12.813-0.234c5.891,0,11.656,0.156,17.266,0.469c28.266,1.594,52.906,7.094,74.172,15.406
		c41.25,16.078,69.828,42.766,87.672,72.266c13.234-0.672,15.219-0.766,24.281-1.234l0.516-0.016
		C474.657,225.484,483.376,238.891,472.829,250.578z" style="fill: rgb(75, 75, 75);"></path>
	<path class="st0" d="M137.563,261.734c-11.031,0-19.984,8.938-19.984,19.984c0,11.031,8.953,19.969,19.984,19.969
		s19.969-8.938,19.969-19.969C157.532,270.672,148.595,261.734,137.563,261.734z" style="fill: rgb(75, 75, 75);"></path>
	<path class="st0" d="M248.642,84.719c6.813,1.469,13.531-2.844,15.016-9.656c6.406-29.609,32.641-49.828,61.703-49.828
		c4.453,0,8.953,0.469,13.469,1.453l0.031,0.016c29.609,6.391,49.813,32.641,49.813,61.703c0,4.438-0.469,8.953-1.453,13.516
		c-1.469,6.813,2.844,13.516,9.656,15c6.813,1.469,13.531-2.844,15-9.641c1.375-6.328,2.031-12.656,2.031-18.875
		c0-40.75-28.281-77.344-69.703-86.375l0.031,0.031C337.907,0.656,331.579,0,325.36,0c-40.766,0-77.344,28.281-86.359,69.719
		C237.517,76.5,241.845,83.219,248.642,84.719z" style="fill: rgb(75, 75, 75);"></path>
</g>
</svg>
