<!--?xml version="1.0" encoding="utf-8"?-->
<!-- Generator: Adobe Illustrator 18.1.1, SVG Export Plug-In . SVG Version: 6.00 Build 0)  -->

<svg version="1.1" id="_x32_" xmlns="http://www.w3.org/2000/svg" xmlns:xlink="http://www.w3.org/1999/xlink" x="0px" y="0px" viewBox="0 0 512 512" style="width: 256px; height: 256px; opacity: 1;" xml:space="preserve">
<style type="text/css">
	.st0{fill:#4B4B4B;}
</style>
<g>
	<path class="st0" d="M65.631,367.348l-15.274-4.027c-5.042-1.331-8.977-5.258-10.299-10.282l-4.018-15.283
		c-0.283-1.072-1.232-1.788-2.321-1.788c-1.107,0-2.055,0.716-2.329,1.788l-4.027,15.283c-1.314,5.024-5.258,8.952-10.299,10.282
		l-15.266,4.027C0.732,367.614,0,368.579,0,369.661c0,1.106,0.732,2.056,1.797,2.33l15.266,4.026
		c5.042,1.331,8.985,5.249,10.299,10.291l4.027,15.283c0.274,1.056,1.222,1.789,2.329,1.789c1.089,0,2.038-0.732,2.321-1.789
		l4.018-15.283c1.322-5.042,5.257-8.96,10.299-10.291l15.274-4.026c1.056-0.274,1.789-1.223,1.789-2.33
		C67.42,368.579,66.688,367.614,65.631,367.348z" style="fill: rgb(75, 75, 75);"></path>
	<path class="st0" d="M412.065,235.453l17.97,4.725c5.924,1.564,10.558,6.19,12.113,12.096l4.726,17.97
		c0.324,1.248,1.447,2.114,2.737,2.114c1.289,0,2.413-0.866,2.736-2.114l4.725-17.97c1.564-5.906,6.19-10.532,12.113-12.096
		l17.979-4.725c1.231-0.332,2.104-1.448,2.104-2.745c0-1.281-0.873-2.405-2.104-2.737l-17.979-4.734
		c-5.923-1.547-10.549-6.182-12.113-12.096l-4.725-17.97c-0.324-1.248-1.448-2.113-2.736-2.113c-1.29,0-2.414,0.864-2.737,2.113
		l-4.726,17.97c-1.556,5.915-6.19,10.549-12.113,12.096l-17.97,4.734c-1.239,0.332-2.112,1.456-2.112,2.737
		C409.952,234.005,410.826,235.121,412.065,235.453z" style="fill: rgb(75, 75, 75);"></path>
	<path class="st0" d="M505.683,370.476c-11.064-12.428-25.191-22.978-37.679-33.935c-13.394-11.738-26.83-23.402-40.274-35.082
		c-5.89-5.108-11.88-10.1-17.587-15.408c-5.365-4.991-10.524-10.798-17.229-14.009c-12.621-6.024-26.872,1.48-37.171,8.951
		c-12.845,11.09-28.602,13.028-44.159,6.647c-30.981-12.695-54.183-43.227-73.75-69.1c-9.742-12.887-19.517-25.782-27.995-39.542
		c-9.326-15.124-17.587-30.881-25.665-46.697c-7.204-14.093-13.236-30.798-27.886-38.909c-15.565-8.644-32.704-2.047-44.301,9.916
		c-7.704,7.97-14.492,17.404-20.632,26.589c-9.534,14.285-18.435,29.933-22.387,46.805c0.416-1.781,1.107-4.759-0.016,0.058
		c-0.358,1.54-0.234,1.007-0.009,0.058c-5.324,23.062,3.935,46.148,10.291,68.002c6.464,22.196,11.497,44.958,15.848,67.654
		c7.862,40.897,11.497,81.712,8.061,123.259c17.629,0,35.258,0,52.903,0c6.572,0,13.152,0,19.742,0
		c0.374,0,0.732-14.608,0.756-15.242c1.539-40.249,1.173-81.072,5.6-121.146c12.712,20.899,24.318,42.479,36.338,63.793
		c11.939,21.156,23.103,42.179,43.602,56.322c20.332,14.027,44.858,20,69.034,23.144c24.475,3.179,49.217,4.193,73.784,1.456
		c17.263-1.921,34.376-5.566,50.732-11.456c15.191-5.448,30.99-12.404,43.444-22.844
		C511.315,399.503,517.472,383.737,505.683,370.476z M494.002,388.87c-2.77,5.982-9.776,10.242-15.182,13.503
		c-29.193,17.604-64.159,24.758-97.894,25.524c-17.679,0.391-35.474-1.015-52.961-3.627c-16.464-2.479-33.028-6.473-47.762-14.476
		c-29.691-16.123-43.11-49.708-58.893-77.836c-8.261-14.742-16.422-29.559-25.299-43.926c-4.401-7.105-11.256-20.498-21.63-15.474
		c-6.688,3.245-8.045,11.938-9.052,18.469c-1.114,7.362-1.664,14.825-2.163,22.263c-0.815,12.47-1.33,24.957-1.814,37.437
		c-0.615,15.807-1.156,31.613-1.73,47.42c-0.183,5.092-0.366,10.2-0.566,15.308c-0.117,3.061,1.106,4.542-2.463,4.542
		c-2.287,0-4.575,0-6.871,0c-9.168,0-18.336,0-27.504,0c3.278-67.811-14.326-133.917-32.138-198.641
		c0.267,0.948,0.241,0.873-0.59-2.163c-3.985-14.36-6.29-28.544-1.389-42.92c4.617-13.619,12.221-26.256,20.382-38.002
		c6.206-8.936,13.868-20.699,23.302-26.39c16.231-9.767,25.557,8.652,31.614,20.666c15.657,31.048,32.229,60.814,52.911,88.817
		c19.974,27.038,41.338,55.016,69.408,74.175c13.46,9.201,29.251,16.298,45.872,15.706c8.394-0.29,16.614-2.62,24.001-6.63
		c6.482-3.535,11.897-8.577,18.452-12.021c6.548-3.461,10.458-3.994,16.132,1.065c5.15,4.56,10.033,9.401,15.224,13.927
		c12.52,10.865,25.049,21.714,37.545,32.612c13.403,11.68,26.789,23.403,40.008,35.324
		C486.623,376.815,496.74,382.905,494.002,388.87z" style="fill: rgb(75, 75, 75);"></path>
	<path class="st0" d="M412.056,401.058c29.368,7.72,52.545-16.996,52.545-16.996l-47.911-46.364
		C433.696,371.699,435.235,387.148,412.056,401.058z" style="fill: rgb(75, 75, 75);"></path>
	<path class="st0" d="M104.117,201.045c6.14,20.465,16.373,46.388,16.373,46.388l2.038-70.673
		C122.527,176.76,97.977,180.579,104.117,201.045z" style="fill: rgb(75, 75, 75);"></path>
	<path class="st0" d="M298.514,396.799c28.643,14.342,51.156,6.156,51.156,6.156l-79.808-42.977
		C273.956,372.256,269.862,382.489,298.514,396.799z" style="fill: rgb(75, 75, 75);"></path>
	<path class="st0" d="M293.365,123.325l24.143,6.356c7.97,2.096,14.185,8.32,16.273,16.273l6.356,24.143
		c0.44,1.68,1.947,2.837,3.677,2.837c1.73,0,3.245-1.157,3.677-2.837l6.356-24.143c2.097-7.953,8.32-14.176,16.273-16.273
		l24.159-6.356c1.664-0.433,2.829-1.947,2.829-3.677c0-1.73-1.165-3.236-2.829-3.685l-24.159-6.356
		c-7.954-2.097-14.176-8.311-16.273-16.265l-6.356-24.151c-0.432-1.672-1.946-2.837-3.677-2.837c-1.73,0-3.236,1.164-3.677,2.837
		l-6.356,24.151c-2.088,7.954-8.302,14.168-16.273,16.265l-24.143,6.356c-1.68,0.449-2.846,1.955-2.846,3.685
		C290.519,121.378,291.685,122.892,293.365,123.325z" style="fill: rgb(75, 75, 75);"></path>
</g>
</svg>
