<!--?xml version="1.0" encoding="utf-8"?-->
<!-- Generator: Adobe Illustrator 18.1.1, SVG Export Plug-In . SVG Version: 6.00 Build 0)  -->

<svg version="1.1" id="_x32_" xmlns="http://www.w3.org/2000/svg" xmlns:xlink="http://www.w3.org/1999/xlink" x="0px" y="0px" viewBox="0 0 512 512" style="width: 256px; height: 256px; opacity: 1;" xml:space="preserve">
<style type="text/css">
	.st0{fill:#4B4B4B;}
</style>
<g>
	<path class="st0" d="M503.336,297.422c-20.41,0.821-40.682,1.341-59.62,1.341c-25.476,0.008-48.582-0.942-66.141-3.244
		c-14.483-1.87-33.909-5.936-51.343-14.328c-17.498-8.424-32.68-20.833-40.487-39.487c-5.366-12.831-7.66-24.915-7.664-36.063
		c0.012-20.345,7.64-37.812,19.284-50.976c11.632-13.148,27.318-21.777,42.776-24.118h0.025c2.402-0.374,4.83-0.553,7.245-0.553
		c10.79-0.024,21.17,3.675,28.485,9.521c7.351,5.912,11.534,13.458,11.555,22.037c-0.008,5.326-0.988,9.181-2.289,12.108
		c-1.96,4.366-4.741,6.863-7.107,8.424c-0.432,0.276-0.822,0.488-1.208,0.7c-0.333-0.147-0.634-0.292-1.004-0.447
		c-2.984-1.212-7.079-2.529-12.03-2.553c-3.688-0.008-7.953,0.829-11.909,3.244c-3.964,2.39-7.351,6.245-9.716,11.205
		c-1.878,3.887-2.912,7.904-2.912,11.88c-0.02,4.651,1.489,9.091,3.936,12.612c3.692,5.318,9.054,8.734,14.848,10.97
		c5.826,2.22,12.259,3.285,18.788,3.293c21.155-0.016,42.874-8.342,59.437-24.572c16.58-16.215,27.696-40.454,27.651-71.046
		c-0.073-25.98-11.871-55.156-33.343-78.412c-21.446-23.207-53.115-40.332-92.284-40.3c-2.436,0-4.895,0.065-7.379,0.195h0.004
		c-37.938,2.001-70.435,13.002-98.265,32.706c-27.85,19.694-50.948,47.821-71.22,83.705c-17.56,31.144-37.832,72.053-63.056,104.88
		c-12.588,16.41-26.37,30.737-41.336,40.861c-15.003,10.132-31.005,16.117-48.858,16.409L0,297.536v80.624h8.327
		c9.628,0.008,16.434,1.195,22.086,2.894c8.432,2.521,14.697,6.562,23.682,10.612c8.94,4.032,20.264,7.359,36.746,7.31
		c11.006,0.008,19.674-1.407,26.915-3.61c10.913-3.334,18.186-8.074,25.639-11.344c7.501-3.285,15.519-5.814,29.985-5.863
		c9.632,0.008,16.446,1.195,22.102,2.894c8.441,2.521,14.706,6.562,23.699,10.612c8.944,4.032,20.272,7.359,36.762,7.31
		c11.006,0.008,19.674-1.407,26.916-3.61c10.912-3.334,18.186-8.074,25.639-11.344c7.5-3.285,15.518-5.814,29.984-5.863
		c9.636,0.008,16.454,1.195,22.11,2.894c8.445,2.521,14.718,6.562,23.712,10.612c8.949,4.032,20.28,7.359,36.775,7.31
		c11.01,0.008,19.682-1.407,26.931-3.61c10.913-3.334,18.19-8.074,25.655-11.344c7.506-3.285,15.531-5.814,30.01-5.863H512v-8.326
		v-72.769L503.336,297.422z M451.087,376.452c-7.506,3.293-15.532,5.822-30.009,5.871c-9.636-0.008-16.45-1.196-22.11-2.895
		c-8.441-2.521-14.714-6.57-23.708-10.62c-8.949-4.025-20.284-7.351-36.779-7.302c-11.006-0.008-19.67,1.406-26.915,3.61
		c-10.909,3.334-18.182,8.074-25.639,11.335c-7.497,3.293-15.519,5.822-29.985,5.871c-9.632-0.008-16.442-1.196-22.098-2.895
		c-8.44-2.521-14.71-6.562-23.699-10.62c-8.944-4.025-20.275-7.351-36.766-7.302c-11.006-0.008-19.67,1.406-26.915,3.61
		c-10.909,3.334-18.182,8.074-25.639,11.335c-7.497,3.293-15.519,5.822-29.985,5.871c-9.624-0.008-16.433-1.196-22.081-2.895
		c-8.432-2.521-14.698-6.562-23.687-10.612c-7.338-3.309-16.336-6.115-28.42-6.993v-48.236c18.284-1.821,34.913-8.733,49.737-18.8
		c25.557-17.344,46.252-43.78,64.048-71.517c17.759-27.744,32.583-56.928,45.508-79.818c19.458-34.445,41.084-60.45,66.332-78.298
		c25.269-17.825,54.246-27.753,89.54-29.664h0.004c2.196-0.122,4.355-0.179,6.485-0.179c34.234,0.024,61.218,14.686,80.071,34.965
		c18.829,20.231,28.973,46.252,28.904,67.093c-0.044,26.623-9.342,46.032-22.662,59.157c-13.332,13.108-30.993,19.816-47.773,19.808
		c-6.216,0.032-12.298-1.496-16.043-3.708c-1.887-1.089-3.155-2.285-3.867-3.334c-0.707-1.065-0.983-1.903-1.008-3.179
		c0.004-1.09,0.273-2.594,1.26-4.66c1.281-2.61,2.44-3.619,3.366-4.196c0.935-0.57,1.911-0.812,3.257-0.821
		c1.76-0.017,4.005,0.585,5.688,1.292c0.842,0.35,1.541,0.699,1.992,0.943l0.476,0.269l0.024,0.016l0.049,0.032l0,0l2.997,1.928
		l3.512-0.895c0.81-0.227,6.88-1.805,13.21-7.562c3.146-2.879,6.302-6.83,8.607-12.002c2.313-5.164,3.744-11.49,3.736-18.906
		c0.02-14.369-7.331-26.769-17.84-35.063c-10.542-8.368-24.346-13.133-38.852-13.149c-3.232,0-6.513,0.236-9.814,0.748h0.024
		c-19.698,3.042-38.576,13.604-52.716,29.534c-14.129,15.922-23.484,37.421-23.476,62.019c0,13.458,2.798,27.778,8.957,42.496
		c9.851,23.532,28.854,38.592,48.638,48.065c19.849,9.514,40.808,13.792,56.396,15.832c18.788,2.447,42.394,3.375,68.296,3.382
		c16.519,0,34.006-0.447,51.631-1.081v47.471c-7.197,0.52-13.295,1.692-18.605,3.31C465.826,368.45,458.548,373.182,451.087,376.452
		z" style="fill: rgb(75, 75, 75);"></path>
	<path class="st0" d="M451.087,424.192c-7.506,3.293-15.532,5.822-30.009,5.871c-9.636-0.008-16.45-1.196-22.11-2.895
		c-8.441-2.521-14.714-6.57-23.708-10.62c-8.949-4.025-20.284-7.351-36.779-7.302c-11.006-0.008-19.67,1.406-26.915,3.61
		c-10.909,3.334-18.182,8.066-25.639,11.335c-7.497,3.293-15.519,5.822-29.985,5.871c-9.632-0.008-16.442-1.196-22.098-2.895
		c-8.44-2.521-14.71-6.57-23.699-10.62c-8.944-4.025-20.275-7.351-36.766-7.302c-11.006-0.008-19.67,1.406-26.915,3.61
		c-10.909,3.334-18.182,8.066-25.639,11.335c-7.497,3.293-15.519,5.822-29.985,5.871c-9.624-0.008-16.433-1.196-22.081-2.895
		c-8.432-2.521-14.698-6.57-23.687-10.62c-8.94-4.025-20.264-7.351-36.746-7.302v16.653c9.628,0.008,16.434,1.188,22.086,2.894
		c8.432,2.521,14.697,6.562,23.682,10.612c8.94,4.032,20.264,7.359,36.746,7.31c11.006,0.008,19.674-1.415,26.915-3.61
		c10.913-3.334,18.186-8.074,25.639-11.335c7.501-3.293,15.519-5.822,29.985-5.871c9.632,0.008,16.446,1.188,22.102,2.894
		c8.441,2.521,14.706,6.562,23.699,10.62c8.944,4.025,20.272,7.352,36.762,7.302c11.006,0.008,19.674-1.415,26.916-3.61
		c10.912-3.334,18.186-8.074,25.639-11.335c7.5-3.293,15.518-5.822,29.984-5.871c9.636,0.008,16.454,1.188,22.11,2.894
		c8.445,2.521,14.718,6.57,23.712,10.62c8.949,4.025,20.28,7.352,36.775,7.302c11.01,0.008,19.682-1.415,26.931-3.61
		c10.913-3.334,18.19-8.067,25.655-11.335c7.506-3.293,15.531-5.822,30.01-5.871v-16.653c-11.015-0.008-19.683,1.406-26.932,3.61
		C465.826,416.19,458.548,420.922,451.087,424.192z" style="fill: rgb(75, 75, 75);"></path>
	<path class="st0" d="M451.087,470.818c-7.506,3.293-15.532,5.822-30.009,5.871c-9.636-0.008-16.45-1.196-22.11-2.895
		c-8.441-2.52-14.714-6.57-23.708-10.619c-8.949-4.025-20.284-7.352-36.779-7.302c-11.006-0.008-19.67,1.406-26.915,3.61
		c-10.909,3.334-18.182,8.066-25.639,11.335c-7.497,3.293-15.519,5.822-29.985,5.871c-9.632-0.008-16.442-1.196-22.098-2.895
		c-8.44-2.52-14.71-6.57-23.699-10.619c-8.944-4.025-20.275-7.352-36.766-7.302c-11.006-0.008-19.67,1.406-26.915,3.61
		c-10.909,3.334-18.182,8.066-25.639,11.335c-7.497,3.293-15.519,5.822-29.985,5.871c-9.624-0.008-16.433-1.196-22.081-2.895
		c-8.432-2.52-14.698-6.57-23.687-10.619c-8.94-4.025-20.264-7.352-36.746-7.302v16.653c9.628,0.008,16.434,1.187,22.086,2.895
		c8.432,2.52,14.697,6.561,23.682,10.612c8.94,4.032,20.264,7.359,36.746,7.31c11.006,0.008,19.674-1.415,26.915-3.611
		c10.913-3.334,18.186-8.074,25.639-11.335c7.501-3.293,15.519-5.822,29.985-5.871c9.632,0.008,16.446,1.187,22.102,2.895
		c8.441,2.52,14.706,6.561,23.699,10.619c8.944,4.025,20.272,7.352,36.762,7.303c11.006,0.008,19.674-1.415,26.916-3.611
		c10.912-3.334,18.186-8.074,25.639-11.335c7.5-3.293,15.518-5.822,29.984-5.871c9.636,0.008,16.454,1.187,22.11,2.895
		c8.445,2.52,14.718,6.57,23.712,10.619c8.949,4.025,20.28,7.352,36.775,7.303c11.01,0.008,19.682-1.415,26.931-3.611
		c10.913-3.334,18.19-8.066,25.655-11.335c7.506-3.293,15.531-5.822,30.01-5.871v-16.653c-11.015-0.008-19.683,1.406-26.932,3.61
		C465.826,462.816,458.548,467.548,451.087,470.818z" style="fill: rgb(75, 75, 75);"></path>
</g>
</svg>
