<!--?xml version="1.0" encoding="utf-8"?-->
<!-- Generator: Adobe Illustrator 15.1.0, SVG Export Plug-In . SVG Version: 6.00 Build 0)  -->

<svg version="1.1" id="_x32_" xmlns="http://www.w3.org/2000/svg" xmlns:xlink="http://www.w3.org/1999/xlink" x="0px" y="0px" width="512px" height="512px" viewBox="0 0 512 512" style="width: 256px; height: 256px; opacity: 1;" xml:space="preserve">
<style type="text/css">

	.st0{fill:#4B4B4B;}

</style>
<g>
	<path class="st0" d="M101.438,93.344c0-16.25-23.703-16.813-23.703-0.188v73.453c0,3.609-2.922,6.516-6.516,6.516h-1.75
		c-3.594,0-6.516-2.906-6.516-6.516V92.891c0-9.281-6.25-12.063-12.234-12.063c-6,0-12.25,2.781-12.25,12.063v73.719
		c0,3.609-2.922,6.516-6.516,6.516h-1.734c-3.609,0-6.516-2.906-6.516-6.516V93.156C23.704,76.531,0,77.094,0,93.344
		c0,19.438,0,70.891,0,70.891c-0.125,29.891,7.016,37.656,18.813,46.969c9.5,7.5,17.625,11.797,17.625,30.406v189.563H65V241.609
		C65,223,73.11,218.703,82.61,211.203c11.797-9.313,18.938-17.078,18.828-46.969C101.438,164.234,101.438,112.781,101.438,93.344z" style="fill: rgb(75, 75, 75);"></path>
	<path class="st0" d="M475.704,98.516c-5.188,17.297-20.734,74.141-24.625,109.141c-3.891,34.984,14.25,46.641,25.922,66.094
		l6.438,16.203v140.969h28.406h0.156c0-4.766,0-131.125,0-189.219c0-57.469,0-133.094,0-143.188
		C512.001,77.781,483.485,72.594,475.704,98.516z" style="fill: rgb(75, 75, 75);"></path>
	<path class="st0" d="M268.282,87.141c-93.266,0.016-168.844,75.594-168.859,168.844c0.016,93.266,75.594,168.844,168.859,168.859
		c93.25-0.016,168.829-75.594,168.844-168.859C437.11,162.734,361.532,87.156,268.282,87.141z M366.516,354.219
		c-25.188,25.172-59.828,40.688-98.234,40.703c-38.406-0.016-73.047-15.531-98.234-40.703
		c-25.172-25.188-40.688-59.813-40.688-98.234c0-38.406,15.516-73.047,40.688-98.219c25.188-25.172,59.828-40.688,98.234-40.703
		c38.406,0.016,73.047,15.531,98.234,40.703c25.156,25.172,40.672,59.813,40.688,98.219
		C407.188,294.406,391.672,329.031,366.516,354.219z" style="fill: rgb(75, 75, 75);"></path>
	<path class="st0" d="M174.235,255.984c0,17.219,4.719,33.359,12.781,47.188l14.766-8.594
		c-6.609-11.391-10.438-24.516-10.453-38.594c0.016-21.281,8.609-40.453,22.547-54.406c13.938-13.938,33.125-22.531,54.406-22.531
		c14.078,0,27.188,3.828,38.578,10.453l8.594-14.781c-13.828-8.047-29.953-12.766-47.172-12.766
		C216.329,161.953,174.235,204.047,174.235,255.984z" style="fill: rgb(75, 75, 75);"></path>
</g>
</svg>
