<!--?xml version="1.0" encoding="utf-8"?-->
<!-- Generator: Adobe Illustrator 15.1.0, SVG Export Plug-In . SVG Version: 6.00 Build 0)  -->

<svg version="1.1" id="_x32_" xmlns="http://www.w3.org/2000/svg" xmlns:xlink="http://www.w3.org/1999/xlink" x="0px" y="0px" width="512px" height="512px" viewBox="0 0 512 512" style="width: 256px; height: 256px; opacity: 1;" xml:space="preserve">
<style type="text/css">

	.st0{fill:#4B4B4B;}

</style>
<g>
	<path class="st0" d="M500.813,125.453c-2.906-1.469-6.125-2.25-9.344-2.25c-4.359,0-8.516,1.359-12.016,3.906l-54.422,39.297
		L26.875,36.875c-2.063-0.672-4.188-1-6.344-1c-4.359,0-8.531,1.359-12.063,3.922C3.156,43.625,0,49.844,0,56.406v399.203
		c0,6.531,3.156,12.75,8.469,16.625c3.531,2.547,7.719,3.891,12.063,3.891c2.156,0,4.281-0.328,6.344-1L425,345.609l54.438,39.281
		c3.516,2.563,7.656,3.906,12.016,3.906c3.234,0,6.453-0.781,9.359-2.25C507.719,383,512,376,512,368.266V143.75
		C512,136,507.719,129,500.813,125.453z M470.938,328.109l-30.328-21.906c-3.516-2.547-7.672-3.891-12.016-3.891
		c-2.156,0-4.313,0.344-6.359,1.016l-381.172,124V84.672l381.156,124c2.063,0.688,4.219,1.016,6.375,1.016
		c4.344,0,8.5-1.344,12.016-3.891l30.328-21.906V328.109z" style="fill: rgb(75, 75, 75);"></path>
</g>
</svg>
