<!--?xml version="1.0" encoding="utf-8"?-->
<!-- Generator: Adobe Illustrator 18.1.1, SVG Export Plug-In . SVG Version: 6.00 Build 0)  -->

<svg version="1.1" id="_x32_" xmlns="http://www.w3.org/2000/svg" xmlns:xlink="http://www.w3.org/1999/xlink" x="0px" y="0px" viewBox="0 0 512 512" style="width: 256px; height: 256px; opacity: 1;" xml:space="preserve">
<style type="text/css">
	.st0{fill:#4B4B4B;}
</style>
<g>
	<path class="st0" d="M474.97,286.112l-36.332-1.028c0,0-50.09-94.134-52.646-98.918c-8.787-16.516-24.663-28.558-54.437-28.558
		h-38.934l0.062-51.25h-31.939l-0.093,84.592c-17.185-11.638-40.648-8.102-53.518,8.545c-13.384,17.333-10.205,42.214,7.12,55.59
		l91.906,71.061l66.838,106.762l7.9,12.612c2.29,3.638,3.443,7.767,3.443,11.919c0,3.763-0.904,7.456-2.804,10.898
		c-3.958,7.143-11.545,11.607-19.694,11.607h-0.124l-270.393-0.327c-8.148,0-15.673-4.456-19.63-11.592
		c-1.917-3.451-2.805-7.143-2.805-10.906c0-4.144,1.153-8.28,3.443-11.918l102.564-163.108
		c11.856-18.867,18.166-40.664,18.228-62.92l0.062-112.815h-31.814l-0.078,51.226h-22.373c-18.618,0-33.7,15.09-33.7,33.708
		c0,10.501,4.798,19.872,12.324,26.058c-14.427,3.841-25.021,16.959-25.021,32.57c0,18.61,15.097,33.708,33.7,33.708h10.064
		l-90.987,144.56c-5.531,8.788-8.273,18.86-8.273,28.87v0.132c0,9.044,2.228,18.034,6.746,26.198
		c9.566,17.333,27.732,28.099,47.55,28.099l263.568,0.319V512l6.949-0.194h6.87v-0.195l0.639-0.054v-0.32
		c16.764-2.36,31.69-12.363,40.025-27.413c4.596-8.226,6.824-17.34,6.824-26.385c0-6.886-1.262-13.711-3.88-20.145l62.647,7.019
		V286.112z M260.62,215.854l-23.246,33.389l-15.331-11.678c-9.02-6.972-10.687-19.974-3.724-29.002
		c3.958-5.111,9.925-8.032,16.406-8.032c4.596,0,8.958,1.496,12.62,4.316l13.29,10.112L260.62,215.854z" style="fill: rgb(75, 75, 75);"></path>
	<path class="st0" d="M221.576,36.309c10.018,0.023,18.167-8.109,18.167-18.12C239.758,8.148,231.64,0.007,221.607,0
		c-10.033-0.008-18.166,8.11-18.182,18.135C203.41,28.168,211.542,36.294,221.576,36.309z" style="fill: rgb(75, 75, 75);"></path>
	<path class="st0" d="M209.533,97.851c0,5.92,4.783,10.704,10.688,10.704c5.905,0,10.673-4.768,10.673-10.665
		c0.015-5.897-4.768-10.696-10.657-10.696C214.331,87.194,209.548,91.969,209.533,97.851z" style="fill: rgb(75, 75, 75);"></path>
	<path class="st0" d="M232.933,59.609c-0.015,7.058,5.703,12.776,12.761,12.784c7.042,0,12.76-5.687,12.775-12.753
		c0.016-7.065-5.702-12.775-12.744-12.775C238.667,46.841,232.933,52.559,232.933,59.609z" style="fill: rgb(75, 75, 75);"></path>
	<path class="st0" d="M170.489,334.348l-63.769,101.34c-2.695,4.3-2.851,9.722-0.405,14.154c2.446,4.464,7.12,7.447,12.215,7.471
		h216.189c5.064,0,9.738-2.758,12.184-7.19c2.477-4.44,2.322-9.893-0.374-14.178l-63.52-101.474
		c-2.571-4.097-6.98-6.544-11.825-6.551l-88.9-0.086C177.453,327.836,173.043,330.266,170.489,334.348z M254.746,404.786
		c5.64,0,10.205,4.572,10.205,10.205c0,5.64-4.564,10.213-10.205,10.213c-5.64,0-10.205-4.573-10.205-10.213
		C244.541,409.358,249.106,404.786,254.746,404.786z M205.746,360.873c8.444,0,15.316,6.856,15.316,15.315
		c0,8.452-6.871,15.308-15.316,15.308c-8.46,0-15.315-6.856-15.315-15.308C190.431,367.729,197.287,360.873,205.746,360.873z" style="fill: rgb(75, 75, 75);"></path>
</g>
</svg>
