<!--?xml version="1.0" encoding="utf-8"?-->
<!-- Generator: Adobe Illustrator 18.0.0, SVG Export Plug-In . SVG Version: 6.00 Build 0)  -->

<svg version="1.1" id="_x32_" xmlns="http://www.w3.org/2000/svg" xmlns:xlink="http://www.w3.org/1999/xlink" x="0px" y="0px" viewBox="0 0 512 512" style="width: 256px; height: 256px; opacity: 1;" xml:space="preserve">
<style type="text/css">
	.st0{fill:#4B4B4B;}
</style>
<g>
	<path class="st0" d="M156.39,251.514l74.811-79.462l-1.046-0.89l-2.258-2.424l-0.277,0.277l-79.199-81.909l-19.308-20.03
		c-0.008,0.012-0.014,0.027-0.022,0.035l-0.115-0.117c-13.845,22.212-21.164,47.936-21.164,74.386
		c0,36.713,6.833,66.518,40.845,101.612L156.39,251.514z" style="fill: rgb(75, 75, 75);"></path>
	<path class="st0" d="M350.736,242.996c34.016-35.101,40.849-64.903,40.849-101.616c0-37.735-14.729-73.242-41.472-99.984
		C323.42,14.7,287.911,0,250.127,0h-0.857C211.436,0,175.9,14.7,149.208,41.396c-1.249,1.241-2.496,2.49-3.578,4.027l46.478,48.08
		c18.288-4.69,37.808-7.067,58.02-7.067c27.675,0,54.339,4.562,77.661,12.968c2.408,0.886,4.808,1.779,7.128,2.743L156.433,291.821
		l-63.576,65.902l-39.893,41.642L29.472,423.75l0.115,0.016l-0.137,0.14l69.736,9.725l6.328,64.314l26.898-27.917l84.408-86.896
		l116.743-121.17L350.736,242.996z" style="fill: rgb(75, 75, 75);"></path>
	<path class="st0" d="M482.355,432.522l0.195-0.027l-67.984-70.534l-65.998-68.243l-2.101-2.181l-0.004,0.004l-0.111-0.117
		l-79.185,82.369l38.188,39.406l29.636,30.352l8.667,8.944l0.035-0.031L401.083,512l6.624-68.665l46.974-6.806l27.753-3.926
		L482.355,432.522z M346.354,325.248l51.194,53.118l22.864,23.492l13.412,13.916l-29.426,4.16l-18.286,2.708l-1.791,18.239
		l-0.921,11.016l-0.685,6.989l-38.5-39.94l-0.113,0.113H344.1l-0.078,0.074l-21.693-22.384l-22.504-23l45.116-47.034
		L346.354,325.248z" style="fill: rgb(75, 75, 75);"></path>
</g>
</svg>
